<?xml version="1.0" encoding="UTF-8"?>
<!DOCTYPE svg PUBLIC "-//W3C//DTD SVG 1.1//EN" "http://www.w3.org/Graphics/SVG/1.1/DTD/svg11.dtd">
<!-- Creator: CorelDRAW 2019 (64-Bit) -->
<svg xmlns="http://www.w3.org/2000/svg" xml:space="preserve" width="10.1598mm" height="10.1598mm" version="1.1" style="shape-rendering:geometricPrecision; text-rendering:geometricPrecision; image-rendering:optimizeQuality; fill-rule:evenodd; clip-rule:evenodd"
viewBox="0 0 123.09 123.09"
 xmlns:xlink="http://www.w3.org/1999/xlink">
 <defs>
  <style type="text/css">
   <![CDATA[
    .fil1 {fill:#FEFEFE}
    .fil0 {fill:#CDAA3B}
   ]]>
  </style>
 </defs>
 <g id="Слой_x0020_1">
  <metadata id="CorelCorpID_0Corel-Layer"/>
  <rect class="fil0" width="123.09" height="123.09"/>
  <path class="fil1" d="M92.31 82.17l0 -7.5 -2.87 -0.73c-0.02,-0.05 -0.04,-0.1 -0.06,-0.15l1.51 -2.55 -5.3 -5.3 -2.55 1.51c-0.05,-0.02 -0.1,-0.04 -0.14,-0.06l-0.73 -2.87 -7.5 0 -0.73 2.87c-0.05,0.02 -0.1,0.04 -0.15,0.06l-2.55 -1.51 -5.3 5.3 1.51 2.55c-0.02,0.05 -0.04,0.1 -0.06,0.15l-2.87 0.73 0 7.5 2.87 0.73c0.02,0.05 0.04,0.1 0.06,0.15l-1.51 2.55 5.3 5.3 2.55 -1.51c0.05,0.02 0.1,0.04 0.15,0.06l0.73 2.87 7.5 0 0.73 -2.87c0.05,-0.02 0.1,-0.04 0.15,-0.06l2.55 1.51 5.3 -5.3 -1.51 -2.55c0.02,-0.05 0.04,-0.1 0.06,-0.14l2.87 -0.73zm-13.9 -35.51l0 12.49 -2.28 -2.28 -1.4 1.4 4.67 4.67 4.67 -4.67 -1.4 -1.4 -2.28 2.28 0 -12.49c0,-1.64 -1.34,-2.98 -2.98,-2.98l-4.96 0 0 1.98 4.96 0c0.55,0 0.99,0.45 0.99,0.99l0 0zm-36.73 0c0,-0.55 0.44,-0.99 0.99,-0.99l4.55 0 -2.28 2.28 1.4 1.4 4.67 -4.67 -4.67 -4.67 -1.4 1.4 2.28 2.28 -4.55 0c-1.64,0 -2.98,1.34 -2.98,2.98l0 17.87 1.99 0 0 -17.87zm15.59 28.5l-1.4 -1.4 -4.67 4.67 4.67 4.67 1.4 -1.4 -2.28 -2.28 7.53 0 0 -1.98 -7.53 0 2.28 -2.28zm-22.54 11.21l7.94 0 0 1.99 -7.94 0 0 -1.99zm9.93 0l1.99 0 0 1.99 -1.99 0 0 -1.99zm-9.93 -3.97l11.91 0 0 1.99 -11.91 0 0 -1.99zm0 -3.97l11.91 0 0 1.99 -11.91 0 0 -1.99zm3.97 -3.97l7.94 0 0 1.98 -7.94 0 0 -1.98zm-3.97 0l1.99 0 0 1.98 -1.99 0 0 -1.98zm0 -3.97l11.91 0 0 1.99 -11.91 0 0 -1.99zm-3.97 21.84l19.85 0 0 -25.81 -19.85 0 0 25.81zm1.99 -23.82l15.88 0 0 21.84 -15.88 0 0 -21.84zm23.15 -20.91c0.33,0.98 0.91,1.83 1.66,2.51l0 0.84 -4.72 1.77c-1.93,0.72 -3.22,2.59 -3.22,4.65l0 5.19 23.82 0 0 -5.19c0,-2.06 -1.29,-3.93 -3.22,-4.65l-4.72 -1.77 0 -0.84c0.75,-0.67 1.33,-1.53 1.66,-2.51 1.87,-0.32 3.3,-1.94 3.3,-3.9l0 -3.97c0,-4.92 -4.01,-8.93 -8.93,-8.93 -4.93,0 -8.93,4.01 -8.93,8.93l0 3.97c0,1.96 1.43,3.58 3.3,3.9zm7.62 3.76l-1.99 3.31 -1.99 -3.31 0 -0.07c0.62,0.22 1.29,0.35 1.99,0.35 0.7,0 1.36,-0.13 1.99,-0.35l0 0.07zm-5.39 1.49l2 3.34 -1.99 0.99 -1.28 -3.85 1.27 -0.48zm13.33 4.51l0 3.2 -19.85 0 0 -3.2c0,-1.24 0.78,-2.36 1.93,-2.79l1.46 -0.55 1.98 5.95 4.55 -2.28 4.55 2.28 1.98 -5.95 1.46 0.55c1.16,0.43 1.93,1.55 1.93,2.79zm-5.25 -4.03l-1.28 3.85 -1.99 -0.99 2 -3.34 1.27 0.48zm-4.68 -3.68c-2.19,0 -3.97,-1.78 -3.97,-3.97l0 -4.04c1.45,-0.15 2.82,-0.68 3.97,-1.58 1.15,0.9 2.52,1.43 3.97,1.58l0 4.04c0,2.19 -1.78,3.97 -3.97,3.97zm5.96 -4.25l0 -3.42c0.59,0.35 0.99,0.98 0.99,1.71 0,0.73 -0.4,1.36 -0.99,1.71zm-5.96 -12.63c3.83,0 6.95,3.12 6.95,6.95l0 0.55c-0.59,-0.34 -1.26,-0.55 -1.98,-0.55l-0.17 0c-1.55,0 -3,-0.6 -4.09,-1.69l-0.7 -0.7 -0.7 0.7c-1.09,1.09 -2.55,1.69 -4.09,1.69l-0.17 0c-0.73,0 -1.4,0.21 -1.98,0.55l0 -0.55c0,-3.83 3.12,-6.95 6.95,-6.95l0 0zm-5.96 9.21l0 3.42c-0.59,-0.35 -0.99,-0.98 -0.99,-1.71 0,-0.73 0.4,-1.36 0.99,-1.71zm22.83 32.48c-2.19,0 -3.97,1.78 -3.97,3.97 0,2.19 1.78,3.97 3.97,3.97 2.19,0 3.97,-1.78 3.97,-3.97 0,-2.19 -1.78,-3.97 -3.97,-3.97zm0 5.96c-1.1,0 -1.99,-0.89 -1.99,-1.99 0,-1.1 0.89,-1.99 1.99,-1.99 1.1,0 1.99,0.89 1.99,1.99 0,1.1 -0.89,1.99 -1.99,1.99zm0 -9.93c-4.38,0 -7.94,3.56 -7.94,7.94 0,4.38 3.56,7.94 7.94,7.94 4.38,0 7.94,-3.56 7.94,-7.94 0,-4.38 -3.56,-7.94 -7.94,-7.94zm0 13.9c-3.28,0 -5.96,-2.67 -5.96,-5.96 0,-3.28 2.67,-5.96 5.96,-5.96 3.28,0 5.96,2.67 5.96,5.96 0,3.28 -2.67,5.96 -5.96,5.96zm9.98 0.91l-3.12 3.12 -2.12 -1.26 -0.48 0.23c-0.31,0.15 -0.62,0.28 -0.95,0.39l-0.5 0.18 -0.61 2.39 -4.41 0 -0.61 -2.39 -0.5 -0.18c-0.32,-0.11 -0.64,-0.25 -0.95,-0.39l-0.48 -0.23 -2.12 1.26 -3.12 -3.12 1.26 -2.12 -0.23 -0.48c-0.15,-0.31 -0.28,-0.62 -0.39,-0.95l-0.18 -0.5 -2.39 -0.61 0 -4.41 2.39 -0.61 0.18 -0.5c0.11,-0.32 0.24,-0.64 0.39,-0.95l0.23 -0.48 -1.26 -2.12 3.12 -3.12 2.12 1.26 0.48 -0.23c0.31,-0.15 0.62,-0.28 0.95,-0.39l0.5 -0.18 0.61 -2.39 4.41 0 0.61 2.39 0.5 0.18c0.32,0.11 0.64,0.24 0.95,0.39l0.48 0.23 2.12 -1.26 3.12 3.12 -1.26 2.12 0.23 0.48c0.15,0.31 0.28,0.62 0.39,0.95l0.18 0.5 2.39 0.61 0 4.41 -2.39 0.61 -0.18 0.5c-0.11,0.32 -0.25,0.64 -0.39,0.95l-0.23 0.48 1.26 2.12z"/>
 </g>
</svg>
