<?xml version="1.0" encoding="UTF-8"?>
<!DOCTYPE svg PUBLIC "-//W3C//DTD SVG 1.1//EN" "http://www.w3.org/Graphics/SVG/1.1/DTD/svg11.dtd">
<!-- Creator: CorelDRAW 2019 (64-Bit) -->
<svg xmlns="http://www.w3.org/2000/svg" xml:space="preserve" width="100%" height="auto" version="1.1" style="shape-rendering:geometricPrecision; text-rendering:geometricPrecision; image-rendering:optimizeQuality; fill-rule:evenodd; clip-rule:evenodd"
viewBox="0 0 260.59 154.75"
 xmlns:xlink="http://www.w3.org/1999/xlink">
 <defs>
  <style type="text/css">
   <![CDATA[
    .fil0 {fill:#2C2F47;fill-rule:nonzero}
   ]]>
  </style>
 </defs>
 <g id="Слой_x0020_1">
  <metadata id="CorelCorpID_0Corel-Layer"/>
  <path class="fil0" d="M235.89 89.58c-0.15,0 -0.3,-0.15 -0.23,-0.45l2.48 -18.47 0.15 0 2.63 18.4c0.08,0.3 -0.08,0.53 -0.3,0.53l-4.73 0zm-132.9 -76.99c0.69,0 1.37,-0.3 1.76,-0.79l3.31 9.84 -108.06 0 0 2.48 260.59 0 0 -2.48 -108.06 0 3.3 -9.84c0.39,0.49 1.08,0.79 1.77,0.79 1.18,0 2.26,-0.98 2.26,-2.26 0,-1.18 -0.88,-2.15 -2.06,-2.26 0.59,-0.39 1.08,-1.17 1.08,-1.96 0,-1.28 -1.08,-2.26 -2.26,-2.26 -1.27,0 -2.35,0.98 -2.35,2.26 0,0.29 0.09,0.59 0.19,0.88 -0.39,-0.59 -1.08,-0.98 -1.86,-0.98 -1.18,0 -2.25,1.08 -2.25,2.36 0,0.98 0.68,1.76 1.57,2.16l-0.79 2.55c-0.59,1.86 -2.55,2.94 -4.41,2.45 -1.87,-0.59 -2.94,-2.54 -2.35,-4.41l0.59 -2.06c0.39,0.1 0.78,0.1 1.18,0 1.18,-0.3 1.96,-1.57 1.57,-2.75 -0.29,-1.18 -1.37,-1.87 -2.55,-1.67 0.49,-0.59 0.78,-1.37 0.58,-2.16 -0.29,-1.18 -1.57,-1.96 -2.84,-1.67 -1.17,0.39 -1.86,1.57 -1.57,2.85 0,0.19 0.1,0.39 0.2,0.49 -0.1,0 -0.29,0 -0.39,0 -0.39,-0.2 -0.98,-0.3 -1.47,-0.1 -1.17,0.29 -1.86,1.56 -1.56,2.75 0.19,0.88 0.98,1.47 1.77,1.67l-0.1 2.16c-0.1,2.06 -1.96,3.63 -4.01,3.53 -2.06,-0.1 -3.73,-1.96 -3.54,-4.02l0.1 -2.06c1.08,0.3 2.16,-0.19 2.65,-1.27 0.48,-1.18 0,-2.45 -1.18,-2.95 -0.39,-0.19 -0.78,-0.29 -1.18,-0.19l0 -0.3c-0.19,0 -0.29,0 -0.39,0 0,-0.09 0,-0.09 0,-0.19 0.59,-1.18 0,-2.45 -1.07,-2.95 -1.18,-0.59 -2.56,0 -3.05,1.08 -0.29,0.68 -0.19,1.47 0.1,2.05 -0.1,0 -0.1,0 -0.2,0l0 0.1c-0.98,-0.19 -2.06,0.39 -2.55,1.37 -0.49,1.08 0.1,2.45 1.17,2.94 0.59,0.29 1.18,0.29 1.67,0.1l0.1 2.25c0.09,2.06 -1.48,3.92 -3.53,4.02 -2.16,0.1 -3.92,-1.47 -4.02,-3.53l-0.2 -2.16c0.88,-0.19 1.57,-0.78 1.86,-1.67 0.3,-1.18 -0.39,-2.45 -1.67,-2.75 -0.49,-0.2 -0.98,-0.1 -1.37,0.1 -0.2,0 -0.29,0 -0.39,0 0,-0.1 0.1,-0.3 0.19,-0.49 0.29,-1.28 -0.39,-2.45 -1.67,-2.85 -1.18,-0.29 -2.45,0.49 -2.74,1.67 -0.2,0.78 0,1.57 0.59,2.16 -1.18,-0.2 -2.35,0.49 -2.65,1.67 -0.29,1.17 0.39,2.45 1.67,2.75 0.39,0.1 0.78,0.1 1.18,0l0.59 2.06c0.58,1.87 -0.49,3.82 -2.35,4.41 -1.86,0.49 -3.82,-0.59 -4.41,-2.45l-0.78 -2.55c0.88,-0.39 1.47,-1.18 1.47,-2.16 0,-1.28 -0.98,-2.36 -2.26,-2.36 -0.78,0 -1.37,0.39 -1.86,0.98 0.19,-0.29 0.19,-0.59 0.19,-0.88 0,-1.28 -0.98,-2.26 -2.26,-2.26 -1.27,0 -2.25,0.98 -2.25,2.26 0,0.78 0.39,1.57 1.08,1.96 -1.18,0.1 -2.06,1.08 -2.06,2.26 0,1.28 0.98,2.26 2.25,2.26zm-37.99 130.94l0 -0.11c-0.46,-0.1 -0.83,-0.37 -1.1,-0.8 -0.27,-0.43 -0.51,-1.18 -0.72,-2.25 -0.19,-0.92 -0.39,-1.56 -0.62,-1.91 -0.22,-0.35 -0.52,-0.53 -0.89,-0.53 -0.16,0 -0.28,0.03 -0.37,0.07 -0.08,0.05 -0.12,0.12 -0.12,0.22 0,0.03 0.09,0.18 0.28,0.45 0.19,0.28 0.28,0.55 0.28,0.83 0,0.38 -0.14,0.68 -0.41,0.9 -0.28,0.22 -0.65,0.33 -1.11,0.33 -0.45,0 -0.81,-0.14 -1.09,-0.42 -0.28,-0.28 -0.42,-0.65 -0.42,-1.1 0,-0.68 0.24,-1.24 0.72,-1.68 0.48,-0.44 1.1,-0.66 1.86,-0.66 0.86,0 1.52,0.23 1.96,0.68 0.45,0.45 0.84,1.52 1.18,3.2 0.18,0.88 0.48,1.52 0.88,1.9 0.41,0.39 0.98,0.58 1.71,0.58l0.29 0 0 -3.97c0,-0.4 -0.06,-0.67 -0.19,-0.79 -0.13,-0.12 -0.38,-0.18 -0.74,-0.18l-0.76 0 0 -0.96 6.42 0 0 0.96 -0.75 0c-0.37,0 -0.61,0.06 -0.74,0.18 -0.13,0.12 -0.2,0.38 -0.2,0.79l0 3.97 0.29 0c0.73,0 1.29,-0.19 1.69,-0.57 0.4,-0.38 0.69,-1.02 0.88,-1.91l0.01 -0.06c0.53,-2.55 1.58,-3.82 3.15,-3.82 0.75,0 1.37,0.22 1.85,0.66 0.48,0.44 0.72,1 0.72,1.68 0,0.45 -0.14,0.82 -0.42,1.1 -0.28,0.28 -0.64,0.42 -1.09,0.42 -0.47,0 -0.84,-0.11 -1.11,-0.33 -0.28,-0.22 -0.41,-0.52 -0.41,-0.9 0,-0.28 0.09,-0.56 0.27,-0.83 0.18,-0.28 0.28,-0.43 0.28,-0.47 0,-0.08 -0.05,-0.15 -0.13,-0.2 -0.09,-0.05 -0.2,-0.08 -0.35,-0.08 -0.37,0 -0.67,0.18 -0.89,0.53 -0.23,0.35 -0.43,0.99 -0.62,1.91 -0.2,1.04 -0.43,1.78 -0.71,2.23 -0.28,0.45 -0.65,0.73 -1.13,0.82l0 0.11c0.97,0.03 1.73,0.24 2.29,0.63 0.56,0.39 0.95,0.99 1.17,1.78 0.13,0.44 0.24,1.04 0.36,1.79 0.16,1.08 0.43,1.63 0.82,1.63 0.29,0 0.51,-0.14 0.65,-0.43 0.14,-0.29 0.21,-0.75 0.23,-1.38l0.92 0 0 0.11c0,1.05 -0.25,1.85 -0.76,2.42 -0.51,0.57 -1.23,0.85 -2.16,0.85 -0.92,0 -1.59,-0.28 -2.01,-0.83 -0.43,-0.55 -0.69,-1.56 -0.78,-3.03 -0.09,-1.33 -0.3,-2.14 -0.65,-2.44 -0.34,-0.29 -0.99,-0.43 -1.96,-0.43 -0.01,0 -0.02,0 -0.05,0.01 -0.11,0.01 -0.22,0.01 -0.33,0.01l0 4.45c0,0.4 0.06,0.66 0.19,0.78 0.13,0.12 0.38,0.18 0.75,0.18l0.75 0 0 0.97 -6.42 0 0 -0.97 0.76 0c0.37,0 0.61,-0.06 0.74,-0.18 0.13,-0.12 0.19,-0.38 0.19,-0.77l0 -4.45c-0.08,0 -0.18,-0 -0.28,-0.01 -0.11,-0.01 -0.17,-0.01 -0.18,-0.01 -1.56,0 -2.4,0.94 -2.53,2.82l0 0.05c-0.11,1.49 -0.38,2.5 -0.8,3.05 -0.42,0.54 -1.09,0.81 -2.02,0.81 -0.93,0 -1.65,-0.28 -2.15,-0.85 -0.5,-0.57 -0.75,-1.38 -0.75,-2.42l0 -0.11 0.92 0c0.01,0.63 0.09,1.1 0.23,1.38 0.14,0.28 0.35,0.43 0.64,0.43 0.39,0 0.67,-0.54 0.83,-1.63 0.11,-0.75 0.23,-1.35 0.35,-1.79 0.22,-0.8 0.61,-1.39 1.17,-1.78 0.56,-0.39 1.31,-0.6 2.27,-0.63zm15.76 7.08l0 -0.97 0.93 0c0.36,0 0.61,-0.06 0.73,-0.18 0.13,-0.12 0.19,-0.38 0.19,-0.78l0 -9.42c0,-0.41 -0.06,-0.67 -0.19,-0.79 -0.13,-0.12 -0.37,-0.18 -0.73,-0.18l-0.93 0 0 -0.96 7 0 0 0.96 -0.92 0c-0.36,0 -0.61,0.06 -0.74,0.18 -0.13,0.12 -0.19,0.38 -0.19,0.79l0 6.99 4.87 -6.58 0 -0.48c0,-0.38 -0.06,-0.63 -0.19,-0.74 -0.13,-0.11 -0.37,-0.17 -0.73,-0.17l-0.93 0 0 -0.96 7 0 0 0.96 -0.94 0c-0.36,0 -0.6,0.06 -0.73,0.18 -0.13,0.12 -0.19,0.38 -0.19,0.8l0 9.42c0,0.41 0.06,0.68 0.18,0.79 0.12,0.11 0.37,0.17 0.73,0.17l0.94 0 0 0.97 -7 0 0 -0.97 0.93 0c0.36,0 0.6,-0.06 0.73,-0.18 0.13,-0.12 0.19,-0.38 0.19,-0.78l0 -7.19 -4.87 6.58 0 0.65c0,0.38 0.06,0.63 0.19,0.74 0.13,0.11 0.38,0.17 0.75,0.17l0.92 0 0 0.97 -7 0zm24.89 -12.32c-0.56,0 -0.95,0.06 -1.18,0.19 -0.22,0.13 -0.38,0.37 -0.48,0.72 -0.1,0.38 -0.18,1.19 -0.24,2.42 -0.06,1.24 -0.11,2.18 -0.17,2.82 -0.2,2.48 -0.57,4.18 -1.12,5.1 -0.55,0.93 -1.39,1.39 -2.53,1.39 -0.78,0 -1.4,-0.25 -1.87,-0.76 -0.47,-0.51 -0.7,-1.18 -0.7,-2.02 0,-0.7 0.18,-1.28 0.54,-1.73 0.36,-0.44 0.83,-0.67 1.39,-0.67 0.41,0 0.76,0.14 1.03,0.42 0.28,0.28 0.42,0.63 0.42,1.05 0,0.34 -0.07,0.61 -0.2,0.81 -0.13,0.19 -0.35,0.33 -0.66,0.43 -0.06,0.02 -0.15,0.04 -0.27,0.07 -0.41,0.11 -0.62,0.28 -0.62,0.5 0,0.24 0.09,0.46 0.29,0.63 0.19,0.18 0.41,0.27 0.67,0.27 0.92,0 1.59,-0.81 2,-2.44 0.42,-1.62 0.62,-4.28 0.62,-7.97 0,-0.43 -0.1,-0.75 -0.29,-0.95 -0.2,-0.2 -0.51,-0.3 -0.94,-0.3l-0.78 0 0 -0.96 12.11 0 0 0.96 -0.94 0c-0.36,0 -0.6,0.06 -0.73,0.18 -0.13,0.12 -0.19,0.38 -0.19,0.8l0 9.42c0,0.41 0.06,0.68 0.19,0.79 0.13,0.11 0.37,0.17 0.73,0.17l0.94 0 0 0.97 -7 0 0 -0.97 0.92 0c0.37,0 0.62,-0.06 0.74,-0.18 0.13,-0.12 0.19,-0.38 0.19,-0.77l0 -10.39 -1.88 0zm16.07 -0.26c-1.12,0 -1.94,0.49 -2.47,1.48 -0.53,0.99 -0.79,2.54 -0.79,4.64 0,1.93 0.27,3.37 0.81,4.32 0.54,0.95 1.36,1.43 2.45,1.43 1.09,0 1.91,-0.49 2.45,-1.47 0.54,-0.98 0.81,-2.47 0.81,-4.46 0,-2.03 -0.27,-3.52 -0.8,-4.49 -0.53,-0.96 -1.35,-1.45 -2.47,-1.45zm-6.94 6.02c0,-2.11 0.64,-3.81 1.91,-5.1 1.27,-1.3 2.95,-1.94 5.02,-1.94 2.08,0 3.75,0.64 5.03,1.93 1.28,1.29 1.92,2.97 1.92,5.04 0,1.03 -0.14,1.92 -0.43,2.68 -0.28,0.75 -0.74,1.46 -1.38,2.12 -0.68,0.71 -1.46,1.25 -2.32,1.61 -0.87,0.36 -1.81,0.54 -2.82,0.54 -1.04,0 -1.97,-0.17 -2.8,-0.52 -0.83,-0.35 -1.59,-0.88 -2.27,-1.6 -0.65,-0.67 -1.12,-1.39 -1.42,-2.14 -0.3,-0.76 -0.44,-1.63 -0.44,-2.61zm21.82 -9.32c0.19,0.22 0.44,0.38 0.75,0.48 0.31,0.11 0.69,0.16 1.13,0.16 0.46,0 0.84,-0.05 1.15,-0.15 0.3,-0.1 0.55,-0.26 0.75,-0.49 -0.21,-0.08 -0.37,-0.2 -0.46,-0.34 -0.1,-0.14 -0.15,-0.33 -0.15,-0.57 0,-0.28 0.1,-0.51 0.29,-0.7 0.19,-0.19 0.43,-0.29 0.7,-0.29 0.27,0 0.51,0.11 0.69,0.32 0.19,0.22 0.28,0.48 0.28,0.81 0,0.61 -0.31,1.13 -0.92,1.55 -0.61,0.42 -1.39,0.63 -2.32,0.63 -0.94,0 -1.72,-0.21 -2.34,-0.64 -0.62,-0.43 -0.93,-0.94 -0.93,-1.55 0,-0.32 0.09,-0.59 0.28,-0.81 0.19,-0.21 0.43,-0.32 0.71,-0.32 0.27,0 0.51,0.09 0.7,0.29 0.19,0.19 0.29,0.43 0.29,0.7 0,0.23 -0.05,0.43 -0.15,0.58 -0.1,0.15 -0.25,0.26 -0.46,0.33zm-5.83 15.88l0 -0.97 0.93 0c0.36,0 0.61,-0.06 0.73,-0.18 0.13,-0.12 0.19,-0.38 0.19,-0.78l0 -9.42c0,-0.41 -0.06,-0.67 -0.19,-0.79 -0.13,-0.12 -0.37,-0.18 -0.73,-0.18l-0.93 0 0 -0.96 7 0 0 0.96 -0.92 0c-0.36,0 -0.61,0.06 -0.74,0.18 -0.13,0.12 -0.2,0.38 -0.2,0.79l0 6.99 4.87 -6.58 0 -0.48c0,-0.38 -0.06,-0.63 -0.19,-0.74 -0.13,-0.11 -0.37,-0.17 -0.73,-0.17l-0.92 0 0 -0.96 7 0 0 0.96 -0.94 0c-0.36,0 -0.6,0.06 -0.73,0.18 -0.13,0.12 -0.19,0.38 -0.19,0.8l0 9.42c0,0.41 0.06,0.68 0.18,0.79 0.12,0.11 0.37,0.17 0.73,0.17l0.94 0 0 0.97 -7 0 0 -0.97 0.92 0c0.36,0 0.6,-0.06 0.73,-0.18 0.13,-0.12 0.19,-0.38 0.19,-0.78l0 -7.19 -4.87 6.58 0 0.65c0,0.38 0.06,0.63 0.19,0.74 0.13,0.11 0.38,0.17 0.74,0.17l0.92 0 0 0.97 -7 0zm27.65 -12.32c-0.06,2.65 -0.27,4.89 -0.62,6.7 -0.35,1.81 -0.87,3.36 -1.57,4.64l5.42 0 0 -11.34 -3.23 0zm8.38 -0.96l0 0.96 -0.94 0c-0.36,0 -0.6,0.06 -0.73,0.18 -0.13,0.12 -0.19,0.38 -0.19,0.8l0 10.37 1.86 0 0 5.11 -0.91 0c-0.33,-1.56 -0.84,-2.63 -1.52,-3.24 -0.68,-0.6 -1.76,-0.9 -3.25,-0.9l-2.43 0c-1.5,0 -2.58,0.3 -3.26,0.9 -0.68,0.6 -1.18,1.68 -1.52,3.24l-0.9 0 0 -5.11 1.84 0c0.71,-1.12 1.26,-2.52 1.66,-4.19 0.4,-1.68 0.6,-3.44 0.6,-5.28 0,-0.8 -0.09,-1.32 -0.26,-1.54 -0.18,-0.22 -0.53,-0.34 -1.06,-0.34l-0.63 0 0 -0.96 11.64 0zm8.92 0.7c-1.12,0 -1.94,0.49 -2.47,1.48 -0.53,0.99 -0.79,2.54 -0.79,4.64 0,1.93 0.27,3.37 0.81,4.32 0.54,0.95 1.36,1.43 2.45,1.43 1.09,0 1.91,-0.49 2.45,-1.47 0.54,-0.98 0.81,-2.47 0.81,-4.46 0,-2.03 -0.27,-3.52 -0.8,-4.49 -0.53,-0.96 -1.35,-1.45 -2.47,-1.45zm-6.94 6.02c0,-2.11 0.64,-3.81 1.91,-5.1 1.27,-1.3 2.94,-1.94 5.02,-1.94 2.08,0 3.75,0.64 5.03,1.93 1.28,1.29 1.92,2.97 1.92,5.04 0,1.03 -0.14,1.92 -0.43,2.68 -0.28,0.75 -0.74,1.46 -1.38,2.12 -0.68,0.71 -1.46,1.25 -2.32,1.61 -0.87,0.36 -1.81,0.54 -2.82,0.54 -1.03,0 -1.97,-0.17 -2.8,-0.52 -0.83,-0.35 -1.59,-0.88 -2.27,-1.6 -0.65,-0.67 -1.12,-1.39 -1.42,-2.14 -0.3,-0.76 -0.44,-1.63 -0.44,-2.61zm18.94 -5.25l0 8.71c0,0.78 0.16,1.32 0.47,1.63 0.31,0.31 0.86,0.47 1.63,0.48l0 0.97 -5.29 0 0 -0.97c0.73,-0.04 1.24,-0.21 1.53,-0.51 0.28,-0.3 0.42,-0.89 0.42,-1.75l0 -0.1 0 -8c0,-0.4 -0.07,-0.67 -0.2,-0.79 -0.13,-0.13 -0.37,-0.19 -0.72,-0.19l-0.94 0 0 -0.96 5.94 0 2.87 7.94 2.72 -7.94 5.83 0 0 0.96 -0.92 0c-0.36,0 -0.61,0.06 -0.74,0.18 -0.13,0.12 -0.2,0.38 -0.2,0.78l0 9.41c0,0.4 0.06,0.66 0.19,0.78 0.13,0.12 0.38,0.18 0.74,0.18l0.92 0 0 0.98 -6.86 0 0 -0.98 0.82 0c0.37,0 0.62,-0.06 0.75,-0.18 0.13,-0.12 0.19,-0.38 0.19,-0.77l0 -9.94 -3.99 11.87 -0.92 0 -4.25 -11.8zm-187.74 3.75l50.36 0 0 2.48 -50.36 0 0 -2.48zm210.24 0l50.36 0 0 2.48 -50.36 0 0 -2.48zm32.56 -40.44c0.08,0.68 -0.08,1.2 -0.38,1.5l-2.03 2.03c-0.23,0.23 -0.53,0.45 -0.53,0.68 0,0.23 0.15,0.45 0.53,0.45l10.81 0c0.38,0 0.53,-0.23 0.53,-0.45 0,-0.23 -0.23,-0.45 -0.45,-0.68l-2.18 -1.95c-0.53,-0.45 -0.75,-1.28 -0.83,-2.03l-7.13 -50.39c-0.08,-0.45 -0.3,-0.83 -0.68,-0.83l-2.78 0c-0.38,0 -0.53,0.3 -0.6,0.68l-6.83 50.47c-0.08,0.68 -0.15,1.43 -0.6,1.88l-2.1 2.1c-0.23,0.23 -0.53,0.53 -0.53,0.75 0,0.23 0.15,0.45 0.45,0.45l8.64 0c0.38,0 0.53,-0.23 0.53,-0.45 0,-0.23 -0.45,-0.53 -0.75,-0.9l-1.65 -1.73c-0.3,-0.38 -0.45,-0.83 -0.38,-1.35l1.13 -8.26c0.08,-0.3 0.23,-0.53 0.45,-0.53l5.56 0c0.38,0 0.6,0.3 0.68,0.68l1.13 7.89zm-79.68 -47.91l1.13 0c3.68,0 5.18,2.48 5.18,10.14 0,9.01 -1.5,11.94 -5.18,11.94l-1.13 0 0 -22.08zm0 25.83l1.28 0c2.63,0 4.66,2.48 4.66,5.78l0 16.15c0,2.55 1.35,4.81 4.81,4.81l3.91 0c0.38,0 0.75,0 0.75,-0.23 0,-0.23 -0.3,-0.53 -0.6,-0.83l-2.4 -2.55c-0.38,-0.38 -0.68,-0.83 -0.68,-1.35l0 -15.7c0,-4.13 -2.25,-7.06 -4.81,-8.41 2.63,-1.65 5.56,-5.03 5.56,-13.37 0,-9.76 -4.06,-13.89 -11.87,-13.89l-9.39 0c-0.3,0 -0.45,0.23 -0.45,0.45 0,0.23 0.38,0.45 0.53,0.68l2.25 2.18c0.53,0.53 0.68,1.2 0.68,2.1l0 45.51c0,0.9 -0.15,1.58 -0.68,2.1l-2.25 2.18c-0.15,0.23 -0.53,0.45 -0.53,0.68 0,0.23 0.15,0.45 0.45,0.45l11.79 0c0.3,0 0.45,-0.23 0.45,-0.45 0,-0.23 -0.38,-0.45 -0.53,-0.68l-2.25 -2.18c-0.53,-0.53 -0.68,-1.2 -0.68,-2.1l0 -21.33zm-79.83 18.62c0,4.66 3.08,8.11 9.01,8.11 5.11,0 8.71,-3.45 8.71,-8.11l0 -42.81c0,-0.9 0.23,-1.65 0.6,-2.1l2.33 -2.18c0.23,-0.23 0.38,-0.45 0.38,-0.68 0,-0.23 -0.15,-0.45 -0.45,-0.45l-10.29 0c-0.3,0 -0.45,0.23 -0.45,0.45 0,0.23 0.15,0.45 0.38,0.68l2.33 2.18c0.45,0.45 0.6,1.2 0.6,2.1l0 40.85c0,3.3 -0.75,6.31 -3.53,6.31 -3.53,0 -3.83,-3 -3.83,-6.31l0 -40.85c0,-0.9 0.23,-1.65 0.6,-2.1l2.33 -2.18c0.23,-0.23 0.38,-0.45 0.38,-0.68 0,-0.23 -0.15,-0.45 -0.45,-0.45l-11.49 0c-0.3,0 -0.45,0.23 -0.45,0.45 0,0.23 0.15,0.45 0.38,0.68l2.33 2.18c0.45,0.45 0.6,1.2 0.6,2.1l0 42.81zm-65.56 -9.09c-0.15,0 -0.3,-0.15 -0.23,-0.45l2.48 -18.47 0.15 0 2.63 18.4c0.08,0.3 -0.08,0.53 -0.3,0.53l-4.73 0zm6.91 12.54c0.08,0.68 -0.08,1.2 -0.38,1.5l-2.03 2.03c-0.23,0.23 -0.53,0.45 -0.53,0.68 0,0.23 0.15,0.45 0.53,0.45l10.81 0c0.38,0 0.53,-0.23 0.53,-0.45 0,-0.23 -0.23,-0.45 -0.45,-0.68l-2.18 -1.95c-0.53,-0.45 -0.75,-1.28 -0.83,-2.03l-7.13 -50.39c-0.08,-0.45 -0.3,-0.83 -0.68,-0.83l-2.78 0c-0.38,0 -0.53,0.3 -0.6,0.68l-6.83 50.47c-0.08,0.68 -0.15,1.43 -0.6,1.88l-2.1 2.1c-0.23,0.23 -0.53,0.53 -0.53,0.75 0,0.23 0.15,0.45 0.45,0.45l8.64 0c0.38,0 0.53,-0.23 0.53,-0.45 0,-0.23 -0.45,-0.53 -0.75,-0.9l-1.65 -1.73c-0.3,-0.38 -0.45,-0.83 -0.38,-1.35l1.13 -8.26c0.08,-0.3 0.23,-0.53 0.45,-0.53l5.56 0c0.38,0 0.6,0.3 0.68,0.68l1.13 7.89z"/>
 </g>
</svg>
