<?xml version="1.0" encoding="UTF-8"?>
<!DOCTYPE svg PUBLIC "-//W3C//DTD SVG 1.1//EN" "http://www.w3.org/Graphics/SVG/1.1/DTD/svg11.dtd">
<!-- Creator: CorelDRAW 2019 (64-Bit) -->
<svg xmlns="http://www.w3.org/2000/svg" xml:space="preserve" width="25.2933mm" height="25.2933mm" version="1.1" style="shape-rendering:geometricPrecision; text-rendering:geometricPrecision; image-rendering:optimizeQuality; fill-rule:evenodd; clip-rule:evenodd"
viewBox="0 0 1090.33 1090.33"
 xmlns:xlink="http://www.w3.org/1999/xlink">
 <defs>
  <style type="text/css">
   <![CDATA[
    .fil0 {fill:transparent}
    .fil1 {fill:#2C2F47;fill-rule:nonzero}
   ]]>
  </style>
 </defs>
 <g id="Слой_x0020_1">
  <metadata id="CorelCorpID_0Corel-Layer"/>
  <g id="_1320906942704">
   <rect class="fil0" x="-0" y="-0" width="1090.34" height="1090.34"/>
   <path class="fil1" d="M781.78 572.51c-0.34,0 -0.67,-0.34 -0.5,-1.01l5.55 -41.4 0.34 0 5.89 41.23c0.17,0.67 -0.17,1.18 -0.67,1.18l-10.6 0zm-297.81 -172.52c1.54,0 3.08,-0.66 3.95,-1.76l7.41 22.05 -242.15 0 0 5.56 583.97 0 0 -5.56 -242.15 0 7.41 -22.05c0.88,1.1 2.41,1.76 3.96,1.76 2.63,0 5.06,-2.2 5.06,-5.06 0,-2.64 -1.98,-4.83 -4.61,-5.06 1.31,-0.88 2.41,-2.63 2.41,-4.38 0,-2.87 -2.41,-5.07 -5.06,-5.07 -2.85,0 -5.26,2.2 -5.26,5.07 0,0.65 0.21,1.31 0.44,1.97 -0.88,-1.32 -2.42,-2.21 -4.17,-2.21 -2.64,0 -5.05,2.42 -5.05,5.28 0,2.2 1.53,3.95 3.51,4.83l-1.76 5.72c-1.31,4.17 -5.71,6.59 -9.88,5.48 -4.18,-1.31 -6.59,-5.7 -5.28,-9.88l1.32 -4.61c0.88,0.22 1.75,0.22 2.64,0 2.63,-0.66 4.39,-3.52 3.51,-6.15 -0.66,-2.64 -3.08,-4.18 -5.71,-3.73 1.1,-1.32 1.76,-3.08 1.31,-4.84 -0.65,-2.63 -3.51,-4.4 -6.37,-3.74 -2.63,0.88 -4.17,3.52 -3.51,6.38 0,0.44 0.22,0.88 0.44,1.1 -0.22,0 -0.66,0 -0.88,0 -0.87,-0.44 -2.19,-0.67 -3.3,-0.22 -2.63,0.66 -4.17,3.5 -3.5,6.15 0.44,1.97 2.19,3.3 3.96,3.73l-0.23 4.83c-0.22,4.62 -4.39,8.14 -8.99,7.91 -4.63,-0.22 -8.35,-4.4 -7.92,-9.01l0.22 -4.62c2.42,0.66 4.84,-0.44 5.94,-2.85 1.09,-2.65 0,-5.5 -2.65,-6.6 -0.88,-0.44 -1.75,-0.66 -2.63,-0.44l0 -0.66c-0.43,0 -0.66,0 -0.88,0 0,-0.21 0,-0.21 0,-0.43 1.33,-2.64 0,-5.49 -2.4,-6.6 -2.65,-1.31 -5.73,0 -6.83,2.43 -0.65,1.53 -0.43,3.29 0.23,4.6 -0.23,0 -0.23,0 -0.44,0l0 0.22c-2.2,-0.44 -4.61,0.88 -5.71,3.07 -1.1,2.42 0.22,5.49 2.63,6.6 1.32,0.66 2.64,0.66 3.74,0.22l0.22 5.05c0.21,4.61 -3.31,8.79 -7.92,9.01 -4.83,0.22 -8.78,-3.3 -9.01,-7.91l-0.44 -4.83c1.98,-0.44 3.51,-1.76 4.17,-3.73 0.66,-2.65 -0.87,-5.5 -3.73,-6.15 -1.1,-0.45 -2.2,-0.22 -3.07,0.22 -0.44,0 -0.66,0 -0.88,0 0,-0.22 0.22,-0.67 0.43,-1.1 0.66,-2.86 -0.87,-5.5 -3.74,-6.38 -2.63,-0.66 -5.48,1.11 -6.14,3.74 -0.44,1.76 0,3.52 1.31,4.84 -2.63,-0.45 -5.27,1.09 -5.93,3.73 -0.66,2.63 0.88,5.49 3.74,6.15 0.88,0.22 1.75,0.22 2.63,0l1.32 4.61c1.31,4.18 -1.1,8.57 -5.27,9.88 -4.17,1.1 -8.57,-1.31 -9.89,-5.48l-1.75 -5.72c1.98,-0.88 3.3,-2.63 3.3,-4.83 0,-2.86 -2.2,-5.28 -5.06,-5.28 -1.76,0 -3.07,0.88 -4.17,2.21 0.44,-0.66 0.44,-1.32 0.44,-1.97 0,-2.87 -2.2,-5.07 -5.06,-5.07 -2.85,0 -5.05,2.2 -5.05,5.07 0,1.75 0.88,3.51 2.41,4.38 -2.64,0.23 -4.61,2.42 -4.61,5.06 0,2.86 2.19,5.06 5.05,5.06zm-85.14 293.42l0 -0.24c-1.03,-0.23 -1.85,-0.83 -2.46,-1.79 -0.6,-0.96 -1.14,-2.64 -1.6,-5.05 -0.42,-2.06 -0.88,-3.5 -1.38,-4.28 -0.5,-0.79 -1.16,-1.19 -2,-1.19 -0.36,0 -0.64,0.06 -0.82,0.16 -0.18,0.11 -0.27,0.28 -0.27,0.5 0,0.06 0.21,0.39 0.62,1.02 0.42,0.63 0.63,1.24 0.63,1.86 0,0.84 -0.31,1.52 -0.93,2.02 -0.62,0.5 -1.45,0.74 -2.49,0.74 -1,0 -1.82,-0.31 -2.44,-0.95 -0.63,-0.63 -0.94,-1.45 -0.94,-2.47 0,-1.53 0.53,-2.79 1.61,-3.76 1.08,-0.98 2.46,-1.47 4.16,-1.47 1.93,0 3.4,0.51 4.4,1.53 1.01,1.02 1.89,3.41 2.64,7.16 0.41,1.97 1.06,3.4 1.98,4.26 0.92,0.87 2.2,1.3 3.84,1.3l0.65 0 0 -8.9c0,-0.9 -0.14,-1.49 -0.43,-1.76 -0.29,-0.28 -0.84,-0.41 -1.66,-0.41l-1.69 0 0 -2.14 14.38 0 0 2.14 -1.68 0c-0.82,0 -1.38,0.14 -1.67,0.41 -0.3,0.27 -0.44,0.86 -0.44,1.77l0 8.9 0.66 0c1.63,0 2.9,-0.42 3.79,-1.28 0.9,-0.85 1.55,-2.28 1.97,-4.28l0.02 -0.13c1.19,-5.71 3.54,-8.57 7.06,-8.57 1.69,0 3.07,0.5 4.15,1.48 1.08,0.99 1.62,2.24 1.62,3.75 0,1.02 -0.31,1.84 -0.94,2.47 -0.63,0.63 -1.44,0.95 -2.44,0.95 -1.04,0 -1.88,-0.25 -2.49,-0.74 -0.62,-0.5 -0.93,-1.17 -0.93,-2.02 0,-0.63 0.21,-1.25 0.61,-1.87 0.41,-0.62 0.62,-0.97 0.62,-1.05 0,-0.19 -0.1,-0.34 -0.29,-0.45 -0.19,-0.11 -0.45,-0.17 -0.78,-0.17 -0.83,0 -1.5,0.4 -2,1.19 -0.51,0.79 -0.96,2.22 -1.38,4.28 -0.44,2.32 -0.97,3.98 -1.6,5 -0.63,1.01 -1.46,1.63 -2.53,1.84l0 0.24c2.16,0.07 3.87,0.54 5.13,1.42 1.26,0.88 2.13,2.21 2.62,4 0.28,1 0.55,2.33 0.8,4.02 0.36,2.43 0.97,3.65 1.83,3.65 0.66,0 1.14,-0.32 1.45,-0.97 0.31,-0.64 0.47,-1.67 0.5,-3.08l2.06 0 0 0.24c0,2.35 -0.57,4.16 -1.71,5.43 -1.14,1.27 -2.76,1.91 -4.85,1.91 -2.05,0 -3.56,-0.62 -4.51,-1.86 -0.95,-1.24 -1.54,-3.5 -1.75,-6.79 -0.2,-2.99 -0.68,-4.81 -1.45,-5.46 -0.76,-0.65 -2.22,-0.97 -4.4,-0.97 -0.01,0 -0.05,0.01 -0.12,0.02 -0.25,0.01 -0.5,0.02 -0.74,0.02l0 9.98c0,0.9 0.14,1.48 0.43,1.74 0.29,0.26 0.84,0.39 1.68,0.39l1.68 0 0 2.18 -14.38 0 0 -2.18 1.69 0c0.82,0 1.38,-0.14 1.66,-0.41 0.29,-0.27 0.43,-0.84 0.43,-1.73l0 -9.98c-0.19,0 -0.4,-0.01 -0.63,-0.02 -0.24,-0.01 -0.38,-0.02 -0.4,-0.02 -3.49,0 -5.38,2.1 -5.68,6.31l0 0.12c-0.25,3.34 -0.86,5.61 -1.8,6.82 -0.95,1.22 -2.45,1.82 -4.52,1.82 -2.08,0 -3.69,-0.64 -4.82,-1.91 -1.13,-1.28 -1.69,-3.08 -1.69,-5.43l0 -0.24 2.06 0c0.03,1.42 0.19,2.46 0.5,3.1 0.31,0.63 0.79,0.96 1.43,0.96 0.87,0 1.49,-1.22 1.85,-3.65 0.25,-1.67 0.51,-3.02 0.78,-4.02 0.5,-1.78 1.38,-3.12 2.63,-4 1.25,-0.88 2.94,-1.35 5.08,-1.42zm35.32 15.87l0 -2.18 2.1 0c0.81,0 1.37,-0.13 1.65,-0.39 0.28,-0.26 0.42,-0.84 0.42,-1.74l0 -21.11c0,-0.91 -0.14,-1.5 -0.43,-1.77 -0.29,-0.27 -0.83,-0.41 -1.63,-0.41l-2.1 0 0 -2.14 15.7 0 0 2.14 -2.06 0c-0.81,0 -1.37,0.14 -1.67,0.41 -0.29,0.27 -0.44,0.86 -0.44,1.77l0 15.67 10.91 -14.73 0 -1.06c0,-0.86 -0.14,-1.41 -0.42,-1.67 -0.28,-0.25 -0.83,-0.38 -1.63,-0.38l-2.07 0 0 -2.14 15.7 0 0 2.14 -2.11 0c-0.81,0 -1.35,0.13 -1.63,0.39 -0.28,0.26 -0.42,0.86 -0.42,1.78l0 21.11c0,0.93 0.14,1.52 0.41,1.76 0.28,0.25 0.82,0.37 1.64,0.37l2.11 0 0 2.18 -15.7 0 0 -2.18 2.07 0c0.8,0 1.34,-0.13 1.63,-0.39 0.28,-0.26 0.42,-0.84 0.42,-1.74l0 -16.12 -10.91 14.76 0 1.45c0,0.86 0.14,1.41 0.43,1.67 0.29,0.25 0.84,0.38 1.67,0.38l2.06 0 0 2.18 -15.7 0zm55.79 -27.6c-1.26,0 -2.13,0.14 -2.64,0.43 -0.49,0.29 -0.85,0.83 -1.08,1.62 -0.23,0.84 -0.41,2.66 -0.53,5.43 -0.13,2.77 -0.25,4.88 -0.37,6.32 -0.44,5.55 -1.28,9.37 -2.5,11.43 -1.23,2.07 -3.13,3.11 -5.68,3.11 -1.75,0 -3.15,-0.56 -4.2,-1.69 -1.05,-1.13 -1.58,-2.64 -1.58,-4.52 0,-1.58 0.41,-2.87 1.22,-3.87 0.81,-0.99 1.85,-1.5 3.11,-1.5 0.92,0 1.69,0.32 2.32,0.95 0.63,0.63 0.94,1.41 0.94,2.35 0,0.77 -0.16,1.37 -0.46,1.81 -0.3,0.43 -0.79,0.75 -1.47,0.95 -0.13,0.03 -0.33,0.09 -0.6,0.16 -0.92,0.24 -1.38,0.62 -1.38,1.13 0,0.55 0.21,1.02 0.64,1.42 0.43,0.39 0.93,0.59 1.5,0.59 2.07,0 3.56,-1.82 4.49,-5.47 0.93,-3.64 1.39,-9.59 1.39,-17.86 0,-0.97 -0.22,-1.69 -0.66,-2.13 -0.44,-0.44 -1.15,-0.66 -2.11,-0.66l-1.76 0 0 -2.14 27.14 0 0 2.14 -2.11 0c-0.81,0 -1.35,0.13 -1.63,0.39 -0.28,0.26 -0.42,0.86 -0.42,1.78l0 21.11c0,0.93 0.14,1.52 0.42,1.76 0.28,0.25 0.82,0.37 1.63,0.37l2.11 0 0 2.18 -15.69 0 0 -2.18 2.06 0c0.82,0 1.38,-0.14 1.67,-0.41 0.29,-0.27 0.44,-0.84 0.44,-1.73l0 -23.28 -4.2 0zm36.02 -0.58c-2.51,0 -4.35,1.11 -5.54,3.32 -1.18,2.22 -1.77,5.68 -1.77,10.4 0,4.32 0.6,7.55 1.82,9.69 1.22,2.13 3.04,3.2 5.49,3.2 2.45,0 4.28,-1.1 5.5,-3.29 1.21,-2.2 1.82,-5.54 1.82,-10.01 0,-4.54 -0.6,-7.89 -1.79,-10.07 -1.19,-2.16 -3.03,-3.25 -5.53,-3.25zm-15.54 13.48c0,-4.72 1.43,-8.53 4.28,-11.43 2.85,-2.91 6.6,-4.35 11.26,-4.35 4.66,0 8.41,1.44 11.27,4.33 2.86,2.89 4.3,6.65 4.3,11.29 0,2.31 -0.32,4.31 -0.96,6 -0.64,1.69 -1.67,3.27 -3.09,4.74 -1.53,1.59 -3.26,2.8 -5.2,3.61 -1.94,0.81 -4.05,1.22 -6.33,1.22 -2.32,0 -4.41,-0.38 -6.27,-1.16 -1.85,-0.78 -3.55,-1.97 -5.09,-3.59 -1.45,-1.5 -2.51,-3.1 -3.17,-4.8 -0.66,-1.7 -1,-3.66 -1,-5.85zm48.91 -20.89c0.43,0.49 0.99,0.84 1.68,1.08 0.69,0.24 1.54,0.35 2.53,0.35 1.03,0 1.89,-0.12 2.57,-0.34 0.68,-0.23 1.23,-0.59 1.68,-1.09 -0.47,-0.19 -0.82,-0.44 -1.04,-0.76 -0.22,-0.32 -0.33,-0.75 -0.33,-1.27 0,-0.62 0.22,-1.14 0.65,-1.57 0.44,-0.44 0.96,-0.65 1.57,-0.65 0.61,0 1.13,0.24 1.55,0.71 0.42,0.48 0.63,1.08 0.63,1.81 0,1.37 -0.69,2.53 -2.06,3.47 -1.38,0.95 -3.11,1.42 -5.21,1.42 -2.1,0 -3.85,-0.47 -5.24,-1.43 -1.39,-0.96 -2.08,-2.12 -2.08,-3.47 0,-0.72 0.21,-1.32 0.63,-1.81 0.43,-0.47 0.96,-0.71 1.59,-0.71 0.61,0 1.14,0.21 1.58,0.65 0.44,0.43 0.66,0.95 0.66,1.57 0,0.52 -0.11,0.96 -0.33,1.29 -0.22,0.34 -0.56,0.58 -1.03,0.74zm-13.06 35.58l0 -2.18 2.1 0c0.81,0 1.37,-0.13 1.65,-0.39 0.28,-0.26 0.42,-0.84 0.42,-1.74l0 -21.11c0,-0.91 -0.14,-1.5 -0.43,-1.77 -0.29,-0.27 -0.83,-0.41 -1.63,-0.41l-2.1 0 0 -2.14 15.7 0 0 2.14 -2.06 0c-0.81,0 -1.37,0.14 -1.66,0.41 -0.3,0.27 -0.44,0.86 -0.44,1.77l0 15.67 10.91 -14.73 0 -1.06c0,-0.86 -0.14,-1.41 -0.42,-1.67 -0.28,-0.25 -0.82,-0.38 -1.63,-0.38l-2.07 0 0 -2.14 15.69 0 0 2.14 -2.11 0c-0.81,0 -1.35,0.13 -1.63,0.39 -0.28,0.26 -0.42,0.86 -0.42,1.78l0 21.11c0,0.93 0.14,1.52 0.41,1.76 0.27,0.25 0.82,0.37 1.64,0.37l2.11 0 0 2.18 -15.69 0 0 -2.18 2.07 0c0.81,0 1.35,-0.13 1.63,-0.39 0.28,-0.26 0.42,-0.84 0.42,-1.74l0 -16.12 -10.91 14.76 0 1.45c0,0.86 0.14,1.41 0.43,1.67 0.29,0.25 0.84,0.38 1.67,0.38l2.06 0 0 2.18 -15.7 0zm61.97 -27.6c-0.13,5.94 -0.6,10.95 -1.39,15.01 -0.79,4.07 -1.96,7.53 -3.51,10.4l12.14 0 0 -25.42 -7.25 0zm18.78 -2.14l0 2.14 -2.11 0c-0.81,0 -1.35,0.13 -1.63,0.39 -0.28,0.26 -0.42,0.86 -0.42,1.78l0 23.24 4.16 0 0 11.45 -2.03 0c-0.75,-3.49 -1.88,-5.9 -3.41,-7.25 -1.52,-1.35 -3.95,-2.02 -7.29,-2.02l-5.44 0c-3.35,0 -5.79,0.67 -7.32,2.02 -1.52,1.35 -2.66,3.76 -3.41,7.25l-2.02 0 0 -11.45 4.11 0c1.59,-2.5 2.83,-5.64 3.73,-9.38 0.9,-3.75 1.34,-7.7 1.34,-11.82 0,-1.8 -0.2,-2.95 -0.59,-3.45 -0.4,-0.5 -1.19,-0.75 -2.37,-0.75l-1.41 0 0 -2.14 26.08 0zm19.99 1.56c-2.51,0 -4.35,1.11 -5.54,3.32 -1.18,2.22 -1.77,5.68 -1.77,10.4 0,4.32 0.6,7.55 1.82,9.69 1.21,2.13 3.04,3.2 5.48,3.2 2.45,0 4.28,-1.1 5.5,-3.29 1.22,-2.2 1.82,-5.54 1.82,-10.01 0,-4.54 -0.6,-7.89 -1.79,-10.07 -1.19,-2.16 -3.03,-3.25 -5.53,-3.25zm-15.54 13.48c0,-4.72 1.43,-8.53 4.28,-11.43 2.85,-2.91 6.6,-4.35 11.25,-4.35 4.66,0 8.41,1.44 11.27,4.33 2.86,2.89 4.3,6.65 4.3,11.29 0,2.31 -0.31,4.31 -0.95,6 -0.64,1.69 -1.67,3.27 -3.09,4.74 -1.53,1.59 -3.26,2.8 -5.2,3.61 -1.94,0.81 -4.05,1.22 -6.33,1.22 -2.32,0 -4.41,-0.38 -6.27,-1.16 -1.85,-0.78 -3.56,-1.97 -5.1,-3.59 -1.45,-1.5 -2.5,-3.1 -3.17,-4.8 -0.66,-1.7 -1,-3.66 -1,-5.85zm42.44 -11.76l0 19.52c0,1.75 0.35,2.96 1.05,3.66 0.69,0.69 1.92,1.06 3.65,1.09l0 2.18 -11.86 0 0 -2.18c1.65,-0.08 2.78,-0.46 3.42,-1.13 0.63,-0.68 0.95,-1.99 0.95,-3.93l0 -0.22 0 -17.92c0,-0.9 -0.15,-1.49 -0.46,-1.78 -0.3,-0.29 -0.84,-0.43 -1.6,-0.43l-2.1 0 0 -2.14 13.31 0 6.43 17.79 6.09 -17.79 13.06 0 0 2.14 -2.06 0c-0.81,0 -1.36,0.14 -1.66,0.41 -0.3,0.27 -0.44,0.86 -0.44,1.75l0 21.1c0,0.89 0.14,1.48 0.43,1.74 0.29,0.26 0.84,0.39 1.66,0.39l2.06 0 0 2.2 -15.36 0 0 -2.2 1.85 0c0.83,0 1.39,-0.13 1.68,-0.41 0.29,-0.27 0.43,-0.84 0.43,-1.72l0 -22.28 -8.94 26.61 -2.06 0 -9.52 -26.45zm-420.72 8.39l112.85 0 0 5.56 -112.85 0 0 -5.56zm471.12 0l112.84 0 0 5.56 -112.84 0 0 -5.56zm72.96 -90.61c0.17,1.51 -0.17,2.69 -0.84,3.37l-4.54 4.54c-0.51,0.5 -1.18,1.01 -1.18,1.51 0,0.5 0.34,1.01 1.18,1.01l24.23 0c0.84,0 1.18,-0.5 1.18,-1.01 0,-0.5 -0.5,-1.01 -1.01,-1.51l-4.88 -4.38c-1.18,-1.01 -1.68,-2.86 -1.85,-4.54l-15.99 -112.92c-0.17,-1.01 -0.67,-1.85 -1.51,-1.85l-6.23 0c-0.84,0 -1.18,0.67 -1.34,1.52l-15.32 113.09c-0.17,1.51 -0.34,3.19 -1.34,4.21l-4.71 4.71c-0.5,0.5 -1.18,1.18 -1.18,1.68 0,0.5 0.34,1.01 1.01,1.01l19.35 0c0.84,0 1.18,-0.5 1.18,-1.01 0,-0.5 -1.01,-1.18 -1.69,-2.02l-3.7 -3.87c-0.67,-0.84 -1.01,-1.85 -0.84,-3.03l2.53 -18.51c0.17,-0.67 0.5,-1.18 1.01,-1.18l12.45 0c0.84,0 1.34,0.68 1.51,1.52l2.53 17.67zm-178.56 -107.37l2.53 0c8.25,0 11.61,5.56 11.61,22.72 0,20.2 -3.37,26.76 -11.61,26.76l-2.53 0 0 -49.48zm0 57.89l2.86 0c5.89,0 10.44,5.56 10.44,12.96l0 36.18c0,5.72 3.03,10.77 10.77,10.77l8.75 0c0.84,0 1.69,0 1.69,-0.5 0,-0.5 -0.67,-1.18 -1.35,-1.85l-5.38 -5.72c-0.84,-0.84 -1.51,-1.85 -1.51,-3.03l0 -35.18c0,-9.26 -5.05,-15.82 -10.77,-18.85 5.89,-3.7 12.45,-11.28 12.45,-29.96 0,-21.88 -9.09,-31.14 -26.59,-31.14l-21.04 0c-0.67,0 -1.01,0.5 -1.01,1.01 0,0.5 0.84,1.01 1.18,1.51l5.05 4.88c1.18,1.18 1.51,2.69 1.51,4.71l0 101.99c0,2.02 -0.34,3.53 -1.51,4.71l-5.05 4.88c-0.34,0.5 -1.18,1.01 -1.18,1.51 0,0.5 0.34,1.01 1.01,1.01l26.42 0c0.67,0 1.01,-0.5 1.01,-1.01 0,-0.5 -0.84,-1.01 -1.18,-1.51l-5.05 -4.88c-1.18,-1.18 -1.52,-2.69 -1.52,-4.71l0 -47.8zm-178.89 41.74c0,10.44 6.9,18.17 20.2,18.17 11.44,0 19.52,-7.74 19.52,-18.17l0 -95.93c0,-2.02 0.51,-3.7 1.35,-4.71l5.22 -4.88c0.5,-0.5 0.84,-1.01 0.84,-1.51 0,-0.51 -0.34,-1.01 -1.01,-1.01l-23.06 0c-0.67,0 -1.01,0.5 -1.01,1.01 0,0.5 0.34,1.01 0.84,1.51l5.22 4.88c1.01,1.01 1.35,2.69 1.35,4.71l0 91.55c0,7.41 -1.68,14.13 -7.91,14.13 -7.91,0 -8.58,-6.73 -8.58,-14.13l0 -91.55c0,-2.02 0.5,-3.7 1.34,-4.71l5.22 -4.88c0.5,-0.5 0.84,-1.01 0.84,-1.51 0,-0.51 -0.34,-1.01 -1.01,-1.01l-25.75 0c-0.67,0 -1.01,0.5 -1.01,1.01 0,0.5 0.34,1.01 0.84,1.51l5.22 4.88c1.01,1.01 1.34,2.69 1.34,4.71l0 95.93zm-146.92 -20.36c-0.34,0 -0.67,-0.34 -0.5,-1.01l5.55 -41.4 0.34 0 5.89 41.23c0.17,0.67 -0.17,1.18 -0.68,1.18l-10.6 0zm15.48 28.11c0.17,1.51 -0.17,2.69 -0.84,3.37l-4.55 4.54c-0.5,0.5 -1.18,1.01 -1.18,1.51 0,0.5 0.34,1.01 1.18,1.01l24.24 0c0.84,0 1.18,-0.5 1.18,-1.01 0,-0.5 -0.5,-1.01 -1.01,-1.51l-4.88 -4.38c-1.18,-1.01 -1.68,-2.86 -1.85,-4.54l-15.99 -112.92c-0.17,-1.01 -0.67,-1.85 -1.52,-1.85l-6.22 0c-0.84,0 -1.18,0.67 -1.34,1.52l-15.32 113.09c-0.17,1.51 -0.34,3.19 -1.34,4.21l-4.71 4.71c-0.51,0.5 -1.18,1.18 -1.18,1.68 0,0.5 0.34,1.01 1.01,1.01l19.35 0c0.84,0 1.18,-0.5 1.18,-1.01 0,-0.5 -1.01,-1.18 -1.68,-2.02l-3.7 -3.87c-0.67,-0.84 -1.01,-1.85 -0.84,-3.03l2.53 -18.51c0.17,-0.67 0.5,-1.18 1.01,-1.18l12.45 0c0.84,0 1.34,0.68 1.51,1.52l2.53 17.67z"/>
  </g>
 </g>
</svg>
