<?xml version="1.0" encoding="UTF-8"?>
<!DOCTYPE svg PUBLIC "-//W3C//DTD SVG 1.1//EN" "http://www.w3.org/Graphics/SVG/1.1/DTD/svg11.dtd">
<!-- Creator: CorelDRAW 2019 (64-Bit) -->
<svg xmlns="http://www.w3.org/2000/svg" xml:space="preserve" width="25.2933mm" height="25.2933mm" version="1.1" style="shape-rendering:geometricPrecision; text-rendering:geometricPrecision; image-rendering:optimizeQuality; fill-rule:evenodd; clip-rule:evenodd"
viewBox="0 0 23729.64 23729.64"
 xmlns:xlink="http://www.w3.org/1999/xlink">
 <defs>
  <style type="text/css">
   <![CDATA[
    .fil0 {fill:transparent}
    .fil1 {fill:#2C2F47;fill-rule:nonzero}
   ]]>
  </style>
 </defs>
 <g id="Слой_x0020_1">
  <metadata id="CorelCorpID_0Corel-Layer"/>
  <g id="_1316600602208">
   <rect class="fil0" x="-0.08" y="-0.09" width="23729.67" height="23729.67"/>
   <g>
    <path class="fil1" d="M15066.31 9635.57l-1524.17 0 0 1232.3 2213.54 0c73.93,-484.01 303.22,-918.38 634.96,-1250.12 407.73,-407.64 970.36,-660.76 1589.56,-660.76l0 678.58c-431.84,0 -824.75,176.94 -1109.77,461.87 -284.92,284.92 -461.96,677.83 -461.96,1109.68 0,431.84 177.03,824.85 461.96,1109.77 285.02,284.92 677.93,461.96 1109.77,461.96l0 678.49c-619.2,0 -1181.82,-253.12 -1589.56,-660.67 -331.74,-331.74 -561.03,-766.3 -634.96,-1250.22l-2213.54 0 0 1232.49 1524.17 0 0 678.58 -1863.5 0 -339.25 0 0 -339.34 0 -1571.73 -1232.3 0 0 1910.88 -678.58 0 0 -3821.77 -1184.92 0 0 3482.61c0,619.2 -253.12,1181.82 -660.76,1589.46 -407.64,407.64 -970.26,660.76 -1589.46,660.76l0 -678.58c431.84,0 824.75,-177.03 1109.68,-461.96 285.02,-284.92 461.96,-677.83 461.96,-1109.68l0 -1571.73 -1258 0c-74.02,483.91 -303.31,918.48 -635.05,1250.22 -407.64,407.54 -970.36,660.67 -1589.46,660.67l0 -678.49c431.75,0 824.75,-177.03 1109.68,-461.96 208.18,-208.09 358.67,-473.97 424.71,-770.43l-1534.39 0 0 -678.58 1534.39 0c-66.05,-296.46 -216.53,-562.25 -424.71,-770.43 -284.92,-284.92 -677.93,-461.87 -1109.68,-461.87l0 -678.58c619.1,0 1181.82,253.12 1589.46,660.76 331.74,331.74 561.03,766.12 635.05,1250.12l1258 0 0 -1571.54 0 -339.34 339.25 0 1863.5 0 339.34 0 0 339.34 0 1571.54 1232.3 0 0 -1571.54 0 -339.34 339.25 0 1863.5 0 0 678.58z"/>
    <path class="fil1" d="M6359.16 5993.93c0,8.44 -3.38,15.57 -10.23,21.39 -6.85,5.82 -14.54,8.73 -22.99,8.73l-256.12 0 0 920.17c0,8.44 -3.19,15.86 -9.48,22.14 -6.29,6.38 -13.7,9.48 -22.14,9.48l-207.15 0c-8.44,0 -15.76,-3.1 -22.14,-9.48 -6.29,-6.29 -9.48,-13.7 -9.48,-22.14l0 -920.17 -257.72 0c-8.44,0 -15.76,-2.91 -22.14,-8.73 -6.29,-5.82 -9.48,-12.95 -9.48,-21.39l0 -162.77c0,-8.44 3.19,-15.57 9.48,-21.39 6.38,-5.82 13.7,-8.73 22.14,-8.73l784.22 0c8.44,0 16.14,2.91 22.99,8.73 6.85,5.82 10.23,12.95 10.23,21.39l0 162.77zm939.21 -164.37c0,2.06 -0.28,3.38 -0.75,3.94 -0.56,0.47 -0.84,1.78 -0.84,3.94l-265.6 893.33c-12.67,43.25 -26.83,80.87 -42.69,113.05 -15.86,32.18 -36.4,58.73 -61.64,79.84 -25.33,21.11 -57.51,37.15 -96.44,48.22 -39.03,11.07 -87.53,16.61 -145.51,16.61 -14.73,0 -31.05,-0.75 -48.97,-2.35 -17.92,-1.59 -35.84,-3.47 -53.76,-5.54 -17.92,-2.16 -34.81,-4.78 -50.66,-7.88 -15.76,-3.19 -28.43,-6.38 -37.9,-9.48 -8.44,-3.19 -16.04,-6.66 -22.89,-10.32 -6.85,-3.66 -10.32,-9.76 -10.32,-18.2l0 -128.06c0,-8.44 3.19,-15.57 9.48,-21.3 6.38,-5.82 13.7,-8.73 22.14,-8.73l3.19 0c12.67,1.03 27.68,2.06 45.03,3.19 17.36,1.03 35.28,2.35 53.76,3.94 18.48,1.59 36.4,2.91 53.76,3.94 17.36,1.03 32.46,1.59 45.03,1.59 28.52,0 50.66,-5.82 66.42,-17.45 15.86,-11.54 28.52,-33.21 38,-64.83l14.17 -48.97 -23.64 0c-14.82,0 -28.8,-1.31 -41.94,-3.94 -13.13,-2.63 -25.8,-9.01 -37.9,-19.05 -12.2,-9.94 -23.74,-24.77 -34.81,-44.19 -11.07,-19.51 -21.86,-46.16 -32.46,-79.93l-208.65 -673.52c-1.13,-3.19 -1.59,-6.85 -1.59,-11.07 0,-16.89 10.51,-25.33 31.62,-25.33l210.25 0c8.44,0 15.01,2.91 19.8,8.73 4.78,5.82 8.16,12.95 10.32,21.39l142.23 556.53c3.19,11.63 6.1,19.51 8.73,23.74 2.63,4.22 8.16,6.29 16.61,6.29l7.88 0 147.11 -586.55c2.06,-8.44 6,-15.57 11.82,-21.39 5.82,-5.82 12.95,-8.73 21.39,-8.73l210.25 0c8.44,0 15.57,2.63 21.39,7.97 5.72,5.25 8.63,12.1 8.63,20.55zm1010.42 352.57c0,73.74 -13.51,135.19 -40.34,184.16 -27.11,49.07 -62.76,88.28 -107.05,117.84 -44.47,29.55 -94.85,50.29 -151.52,62.48 -56.67,12.1 -114.36,18.2 -173.66,18.2 -18.95,0 -40.06,-0.56 -63.23,-1.59 -23.45,-1.13 -45.03,-2.16 -65.11,-3.19l0 384.18c0,8.44 -3.1,15.86 -9.48,22.14 -6.29,6.38 -13.7,9.48 -22.14,9.48l-203.96 0c-8.44,0 -15.76,-2.91 -22.14,-8.63 -6.29,-5.82 -9.48,-12.95 -9.48,-21.39l0 -1062.49c0,-27.39 5.82,-45.88 17.36,-55.35 11.63,-9.48 29.55,-16.32 53.76,-20.55 40.34,-6.38 89.69,-11.35 148.42,-15.01 58.45,-3.75 116.24,-5.54 173.38,-5.54 60.14,0 118.87,5.72 175.81,17.36 56.85,11.63 107.8,32.18 151.98,61.64 44.28,29.55 80.12,68.77 107.05,117.84 26.83,48.97 40.34,110.42 40.34,184.16l0 14.26zm-270.38 -14.26c0,-56.85 -17.17,-97.2 -51.41,-120.93 -34.24,-23.74 -84.62,-35.56 -151.05,-35.56 -5.25,0 -14.17,0.28 -26.83,0.75 -12.67,0.56 -25.61,1.03 -38.75,1.59 -13.13,0.56 -25.8,1.03 -37.9,1.59 -12.2,0.56 -20.36,0.75 -24.58,0.75l0 322.55c4.22,0 12.38,0.28 24.58,0.84 12.1,0.56 25.24,1.03 39.5,1.59 14.26,0.47 27.39,0.75 39.5,0.75 12.1,0 20.36,0 24.49,0 70.64,0 122.06,-13.13 154.24,-39.5 32.09,-26.36 48.22,-66.42 48.22,-120.18l0 -14.26zm1260.16 782.72c0,16.79 -9.01,25.24 -26.93,25.24l-221.32 0c-8.44,0 -15.29,-2.63 -20.55,-7.88 -5.25,-5.25 -9.01,-12.1 -11.07,-20.55l-56.95 -259.31 -324.14 0 -56.95 259.31c-2.06,8.44 -5.72,15.29 -11.07,20.55 -5.25,5.25 -12.1,7.88 -20.55,7.88l-221.32 0c-17.92,0 -26.93,-8.44 -26.93,-25.24 0,-1.13 0.28,-2.16 0.84,-3.19 0.47,-1.03 0.75,-2.63 0.75,-4.78l235.58 -980.3c9.48,-37.9 23.27,-68.49 41.19,-91.66 17.92,-23.17 38.65,-40.9 62.39,-53.01 23.74,-12.1 49.35,-20.26 76.74,-24.49 27.39,-4.22 54.79,-6.29 82.18,-6.29 27.39,0 54.51,2.06 81.43,6.29 26.83,4.22 52.16,12.38 75.9,24.49 23.74,12.1 44.56,29.83 62.48,53.01 17.92,23.17 31.62,53.76 41.09,91.66l235.58 980.3c0,2.16 0.28,3.75 0.75,4.78 0.56,1.03 0.84,2.06 0.84,3.19zm-477.53 -915.47c-2.06,-8.44 -4.22,-14.54 -6.29,-18.2 -2.16,-3.75 -6.85,-5.54 -14.26,-5.54 -11.63,0 -18.95,7.88 -22.14,23.74l-96.44 436.35 235.58 0 -96.44 -436.35zm1538.43 -216.63c0,6.29 -2.63,13.7 -7.88,22.14l-376.3 534.39 377.9 567.6c4.22,5.35 6.29,11.07 6.29,17.45 0,10.51 -7.32,15.76 -22.05,15.76l-271.98 0c-9.48,0 -16.61,-2.06 -21.39,-6.29 -4.69,-4.22 -9.19,-9.48 -13.42,-15.86l-320.95 -521.72 0 512.25c0,8.44 -3.19,15.86 -9.48,22.14 -6.38,6.38 -13.7,9.48 -22.14,9.48l-207.15 0c-8.44,0 -15.86,-3.1 -22.14,-9.48 -6.29,-6.29 -9.48,-13.7 -9.48,-22.14l0 -1113.06c0,-8.44 3.19,-15.57 9.48,-21.39 6.29,-5.82 13.7,-8.73 22.14,-8.73l207.15 0c8.44,0 15.76,2.91 22.14,8.73 6.29,5.82 9.48,12.95 9.48,21.39l0 502.77 347.78 -513.84c7.41,-12.67 19.05,-19.05 34.81,-19.05l241.96 0c16.89,0 25.24,5.82 25.24,17.45zm1143.17 12.67c0,-8.44 3.19,-15.57 9.57,-21.39 6.29,-5.82 13.7,-8.73 22.14,-8.73l207.06 0c8.44,0 15.86,2.91 22.14,8.73 6.38,5.82 9.48,12.95 9.48,21.39l0 502.77 347.88 -513.84c7.41,-12.67 18.95,-19.05 34.81,-19.05l241.96 0c16.79,0 25.24,5.82 25.24,17.45 0,6.29 -2.63,13.7 -7.88,22.14l-376.3 534.39 377.9 567.6c4.22,5.35 6.29,11.07 6.29,17.45 0,10.51 -7.32,15.76 -22.14,15.76l-271.98 0c-9.48,0 -16.61,-2.06 -21.3,-6.29 -4.78,-4.22 -9.19,-9.48 -13.42,-15.86l-321.04 -521.72 0 512.25c0,8.44 -3.1,15.86 -9.48,22.14 -6.29,6.38 -13.7,9.48 -22.14,9.48l-207.06 0c-8.44,0 -15.86,-3.1 -22.14,-9.48 -6.38,-6.29 -9.57,-13.7 -9.57,-22.14l0 -512.25 -320.95 521.72c-4.22,6.38 -8.63,11.63 -13.42,15.86 -4.78,4.22 -11.82,6.29 -21.39,6.29l-271.88 0c-14.82,0 -22.14,-5.25 -22.14,-15.76 0,-6.38 2.06,-12.1 6.29,-17.45l377.9 -567.6 -376.3 -534.39c-5.25,-8.44 -7.88,-15.86 -7.88,-22.14 0,-11.63 8.44,-17.45 25.24,-17.45l241.96 0c14.73,0 26.36,6.38 34.81,19.05l347.78 513.84 0 -502.77zm1989.13 1119.43c0,16.79 -8.91,25.24 -26.83,25.24l-221.41 0c-8.44,0 -15.29,-2.63 -20.55,-7.88 -5.25,-5.25 -8.91,-12.1 -11.07,-20.55l-56.95 -259.31 -324.14 0 -56.85 259.31c-2.16,8.44 -5.82,15.29 -11.07,20.55 -5.35,5.25 -12.2,7.88 -20.55,7.88l-221.41 0c-17.92,0 -26.83,-8.44 -26.83,-25.24 0,-1.13 0.19,-2.16 0.75,-3.19 0.56,-1.03 0.75,-2.63 0.75,-4.78l235.67 -980.3c9.48,-37.9 23.17,-68.49 41.09,-91.66 17.92,-23.17 38.75,-40.9 62.39,-53.01 23.74,-12.1 49.35,-20.26 76.74,-24.49 27.39,-4.22 54.79,-6.29 82.18,-6.29 27.39,0 54.6,2.06 81.43,6.29 26.93,4.22 52.16,12.38 75.9,24.49 23.74,12.1 44.56,29.83 62.48,53.01 17.92,23.17 31.62,53.76 41.09,91.66l235.58 980.3c0,2.16 0.28,3.75 0.84,4.78 0.47,1.03 0.75,2.06 0.75,3.19zm-477.53 -915.47c-2.06,-8.44 -4.22,-14.54 -6.29,-18.2 -2.16,-3.75 -6.85,-5.54 -14.26,-5.54 -11.54,0 -18.95,7.88 -22.14,23.74l-96.44 436.35 235.58 0 -96.44 -436.35zm1048.32 -314.67c-43.25,0 -81.72,-6.1 -115.4,-18.2 -33.77,-12.1 -62.95,-28.43 -87.81,-48.97 -24.77,-20.64 -44.75,-44.84 -60.04,-72.8 -15.29,-27.86 -25.05,-57.7 -29.27,-89.31 -1.03,-5.25 -1.03,-9.48 0,-12.67 1.13,-3.1 5.82,-4.69 14.26,-4.69l137.54 0c10.6,0 17.45,6.29 20.55,18.95 8.44,33.68 23.17,57.14 44.28,70.36 21.11,13.13 46.44,19.8 75.9,19.8 29.55,0 54.79,-6.66 75.9,-19.8 21.11,-13.23 35.84,-36.68 44.28,-70.36 3.19,-12.67 10.04,-18.95 20.55,-18.95l137.54 0c8.44,0 13.23,1.59 14.26,4.69 1.03,3.19 1.03,7.41 0,12.67 -5.25,31.62 -15.29,61.45 -30.02,89.31 -14.73,27.96 -34.52,52.16 -59.29,72.8 -24.77,20.55 -54.32,36.87 -88.56,48.97 -34.24,12.1 -72.43,18.2 -114.65,18.2zm-461.68 110.71c0,-8.44 3.19,-15.57 9.48,-21.39 6.29,-5.82 13.7,-8.73 22.14,-8.73l186.6 0c8.44,0 15.76,2.91 22.14,8.73 6.29,5.82 9.48,12.95 9.48,21.39l0 668.83c0,9.48 2.63,14.17 7.88,14.17 3.19,0 7.41,-4.22 12.67,-12.67l374.71 -651.38c9.48,-16.89 18.95,-29.27 28.52,-37.15 9.48,-7.97 22.05,-11.91 37.9,-11.91l159.68 0c16.89,0 31.15,5.82 42.69,17.45 11.63,11.54 17.45,25.8 17.45,42.69l0 1083.03c0,8.44 -3.19,15.86 -9.48,22.14 -6.38,6.38 -13.79,9.48 -22.14,9.48l-186.6 0c-8.44,0 -15.86,-3.1 -22.14,-9.48 -6.38,-6.29 -9.48,-13.7 -9.48,-22.14l0 -640.31c0,-8.44 -2.63,-12.67 -7.88,-12.67 -4.22,0 -9.01,4.22 -14.26,12.67l-360.54 622.95c-12.67,21.11 -25.24,34.52 -37.9,40.34 -12.67,5.72 -27.39,8.63 -44.28,8.63l-154.99 0c-16.89,0 -31.34,-5.72 -43.44,-17.36 -12.1,-11.63 -18.2,-25.8 -18.2,-42.69l0 -1084.63zm3048.42 -110.71c-43.16,0 -81.62,-6.1 -115.4,-18.2 -33.77,-12.1 -62.95,-28.43 -87.72,-48.97 -24.77,-20.64 -44.84,-44.84 -60.14,-72.8 -15.29,-27.86 -25.05,-57.7 -29.27,-89.31 -1.03,-5.25 -1.03,-9.48 0,-12.67 1.13,-3.1 5.82,-4.69 14.26,-4.69l137.54 0c10.6,0 17.45,6.29 20.55,18.95 8.44,33.68 23.27,57.14 44.28,70.36 21.11,13.13 46.44,19.8 75.9,19.8 29.55,0 54.88,-6.66 75.9,-19.8 21.11,-13.23 35.84,-36.68 44.28,-70.36 3.19,-12.67 10.04,-18.95 20.55,-18.95l137.63 0c8.35,0 13.13,1.59 14.17,4.69 1.03,3.19 1.03,7.41 0,12.67 -5.25,31.62 -15.29,61.45 -30.02,89.31 -14.73,27.96 -34.52,52.16 -59.29,72.8 -24.77,20.55 -54.32,36.87 -88.56,48.97 -34.24,12.1 -72.43,18.2 -114.65,18.2zm-461.68 110.71c0,-8.44 3.19,-15.57 9.48,-21.39 6.38,-5.82 13.7,-8.73 22.14,-8.73l186.6 0c8.44,0 15.76,2.91 22.14,8.73 6.29,5.82 9.48,12.95 9.48,21.39l0 668.83c0,9.48 2.63,14.17 7.88,14.17 3.19,0 7.41,-4.22 12.67,-12.67l374.71 -651.38c9.48,-16.89 19.05,-29.27 28.52,-37.15 9.48,-7.97 22.14,-11.91 37.9,-11.91l159.68 0c16.89,0 31.15,5.82 42.69,17.45 11.63,11.54 17.45,25.8 17.45,42.69l0 1083.03c0,8.44 -3.19,15.86 -9.48,22.14 -6.38,6.38 -13.7,9.48 -22.14,9.48l-186.6 0c-8.44,0 -15.86,-3.1 -22.14,-9.48 -6.29,-6.29 -9.48,-13.7 -9.48,-22.14l0 -640.31c0,-8.44 -2.63,-12.67 -7.88,-12.67 -4.22,0 -9.01,4.22 -14.26,12.67l-360.54 622.95c-12.57,21.11 -25.24,34.52 -37.9,40.34 -12.67,5.72 -27.39,8.63 -44.28,8.63l-154.99 0c-16.79,0 -31.34,-5.72 -43.44,-17.36 -12.1,-11.63 -18.2,-25.8 -18.2,-42.69l0 -1084.63zm-143.92 -6.38c0,5.25 -0.47,9.01 -1.5,11.07l-238.77 547.05c-15.86,36.96 -32.18,64.36 -49.07,82.28 -16.79,17.92 -34.71,31.05 -53.76,39.5l0 439.54c0,8.44 -3.1,15.86 -9.48,22.14 -6.29,6.38 -13.7,9.48 -22.14,9.48l-207.15 0c-8.35,0 -15.76,-3.1 -22.14,-9.48 -6.29,-6.29 -9.48,-13.7 -9.48,-22.14l0 -439.54c-18.95,-8.44 -37.15,-21.58 -54.51,-39.5 -17.36,-17.92 -33.96,-45.31 -49.82,-82.28l-238.77 -547.05c-1.03,-2.06 -1.59,-5.82 -1.59,-11.07 0,-6.29 2.16,-11.82 6.38,-16.61 4.22,-4.69 10.51,-7.13 18.95,-7.13l227.7 0c8.44,0 15.29,2.63 20.55,7.97 5.25,5.25 8.91,11.54 11.07,18.95l170.75 445.82c4.22,10.6 7.88,17.17 11.07,19.8 3.19,2.63 7.41,3.94 12.67,3.94 5.25,0 9.48,-1.31 12.67,-3.94 3.1,-2.63 6.85,-9.19 11.07,-19.8l170.75 -445.82c2.06,-7.41 5.82,-13.7 11.07,-18.95 5.25,-5.35 12.1,-7.97 20.55,-7.97l227.7 0c8.44,0 14.73,2.44 18.95,7.13 4.22,4.78 6.29,10.32 6.29,16.61zm2175.73 0c0,5.25 -0.56,9.01 -1.59,11.07l-238.77 547.05c-15.76,36.96 -32.18,64.36 -48.97,82.28 -16.89,17.92 -34.81,31.05 -53.76,39.5l0 439.54c0,8.44 -3.19,15.86 -9.57,22.14 -6.29,6.38 -13.7,9.48 -22.05,9.48l-207.15 0c-8.44,0 -15.86,-3.1 -22.14,-9.48 -6.38,-6.29 -9.48,-13.7 -9.48,-22.14l0 -439.54c-19.05,-8.44 -37.15,-21.58 -54.6,-39.5 -17.36,-17.92 -33.96,-45.31 -49.82,-82.28l-238.77 -547.05c-1.03,-2.06 -1.5,-5.82 -1.5,-11.07 0,-6.29 2.06,-11.82 6.29,-16.61 4.22,-4.69 10.51,-7.13 18.95,-7.13l227.7 0c8.44,0 15.29,2.63 20.55,7.97 5.25,5.25 9.01,11.54 11.07,18.95l170.75 445.82c4.22,10.6 7.97,17.17 11.07,19.8 3.19,2.63 7.41,3.94 12.67,3.94 5.25,0 9.48,-1.31 12.67,-3.94 3.19,-2.63 6.85,-9.19 11.07,-19.8l170.75 -445.82c2.16,-7.41 5.82,-13.7 11.07,-18.95 5.25,-5.35 12.1,-7.97 20.55,-7.97l227.7 0c8.44,0 14.73,2.44 18.95,7.13 4.22,4.78 6.38,10.32 6.38,16.61z"/>
    <path class="fil1" d="M7722.15 16984.69c0,-7.97 3,-14.73 9.01,-20.26 6,-5.54 13.04,-8.26 21.02,-8.26l197.11 0c7.97,0 15.01,2.72 21.02,8.26 6,5.54 9.1,12.29 9.1,20.26l0 478.38 330.9 -488.88c7.04,-12.01 18.01,-18.01 33.12,-18.01l230.14 0c16.04,0 24.02,5.44 24.02,16.51 0,6 -2.44,13.04 -7.51,21.02l-358.01 508.49 359.51 540.02c4.03,4.97 6,10.51 6,16.51 0,10.04 -6.94,15.1 -21.02,15.1l-258.75 0c-9.01,0 -15.76,-2.06 -20.26,-6 -4.5,-4.03 -8.82,-9.1 -12.85,-15.1l-305.28 -496.39 0 487.38c0,7.97 -3.1,15.01 -9.1,21.02 -6,6.1 -13.04,9.1 -21.02,9.1l-197.11 0c-7.97,0 -15.01,-3 -21.02,-9.1 -6,-6 -9.01,-13.04 -9.01,-21.02l0 -487.38 -305.38 496.39c-4.03,6 -8.26,11.07 -12.76,15.1 -4.5,3.94 -11.35,6 -20.36,6l-258.75 0c-13.98,0 -21.02,-5.07 -21.02,-15.1 0,-6 1.97,-11.54 6,-16.51l359.51 -540.02 -358.01 -508.49c-4.97,-7.97 -7.51,-15.01 -7.51,-21.02 0,-11.07 7.97,-16.51 24.02,-16.51l230.23 0c13.98,0 25.05,6 33.02,18.01l330.99 488.88 0 -478.38zm989.78 0c0,-7.97 3,-14.73 9.01,-20.26 6,-5.54 13.04,-8.26 21.11,-8.26l177.5 0c7.97,0 15.01,2.72 21.02,8.26 6,5.54 9.01,12.29 9.01,20.26l0 636.37c0,9.01 2.53,13.51 7.51,13.51 3.1,0 7.04,-4.03 12.1,-12.01l356.51 -619.76c9.01,-16.04 18.01,-27.86 27.02,-35.37 9.1,-7.51 21.11,-11.26 36.12,-11.26l151.98 0c16.04,0 29.55,5.44 40.53,16.51 11.07,11.07 16.61,24.58 16.61,40.62l0 1030.4c0,7.97 -3,15.01 -9.01,21.02 -6,6.1 -13.04,9.1 -21.11,9.1l-177.5 0c-7.97,0 -15.01,-3 -21.02,-9.1 -6,-6 -9.01,-13.04 -9.01,-21.02l0 -609.25c0,-7.97 -2.53,-12.01 -7.6,-12.01 -3.94,0 -8.54,4.03 -13.51,12.01l-343 592.74c-12.01,19.98 -24.02,32.84 -36.03,38.28 -12.1,5.54 -26.08,8.35 -42.12,8.35l-147.48 0c-16.04,0 -29.83,-5.54 -41.37,-16.61 -11.54,-10.98 -17.26,-24.58 -17.26,-40.62l0 -1031.9zm1484.67 194.11c-1.97,-8.07 -3.94,-13.79 -6,-17.36 -1.97,-3.47 -6.47,-5.25 -13.51,-5.25 -11.07,0 -18.11,7.51 -21.11,22.61l-188.01 867.91c-1.97,8.07 -5.54,14.54 -10.51,19.51 -5.07,5.07 -11.54,7.6 -19.61,7.6l-210.53 0c-17.07,0 -25.61,-8.07 -25.61,-24.11 0,-1.03 0.28,-1.97 0.75,-3 0.56,-1.03 0.75,-2.53 0.75,-4.5l224.13 -932.64c9.01,-36.12 22.05,-65.2 39.12,-87.25 17.07,-22.05 36.87,-38.84 59.39,-50.38 22.61,-11.54 46.91,-19.33 72.99,-23.36 26.08,-3.94 52.16,-6 78.24,-6 26.08,0 51.88,2.06 77.49,6 25.52,4.03 49.63,11.82 72.15,23.36 22.61,11.54 42.41,28.33 59.48,50.38 16.98,22.05 30.02,51.13 39.03,87.25l224.13 932.64c0,1.97 0.28,3.47 0.75,4.5 0.56,1.03 0.75,1.97 0.75,3 0,16.04 -8.44,24.11 -25.52,24.11l-210.62 0c-7.97,0 -14.54,-2.53 -19.51,-7.6 -5.07,-4.97 -8.54,-11.45 -10.51,-19.51l-188.1 -867.91zm1421.53 425.65c0,87.25 -11.54,161.46 -34.62,222.63 -22.99,61.17 -54.32,111.08 -94.47,149.64 -40.15,38.65 -87.25,66.7 -141.2,84.25 -54.13,17.54 -112.02,26.36 -174.22,26.36 -62.2,0 -120.09,-8.82 -174.22,-26.36 -53.95,-17.54 -101.04,-45.6 -141.2,-84.25 -40.06,-38.56 -71.4,-88.47 -94.47,-149.64 -23.08,-61.17 -34.62,-135.38 -34.62,-222.63l0 -179c0,-87.25 11.54,-161.46 34.62,-222.63 23.08,-61.17 54.41,-111.08 94.47,-149.64 40.15,-38.65 87.25,-66.7 141.2,-84.25 54.13,-17.54 112.02,-26.36 174.22,-26.36 62.2,0 120.09,8.82 174.22,26.36 53.95,17.54 101.04,45.6 141.2,84.25 40.15,38.56 71.49,88.47 94.47,149.64 23.08,61.17 34.62,135.38 34.62,222.63l0 179zm-257.25 -179.47c0,-91.57 -15.29,-157.43 -45.88,-197.86 -30.58,-40.34 -77.4,-60.42 -140.63,-60.42 -63.14,0 -109.77,20.08 -139.88,60.42 -30.12,40.44 -45.13,106.3 -45.13,197.86l0 179.94c0,91.57 15.01,157.52 45.13,197.86 30.12,40.34 76.74,60.42 139.88,60.42 63.23,0 110.05,-20.08 140.63,-60.42 30.58,-40.34 45.88,-106.3 45.88,-197.86l0 -179.94zm883.01 -545.55c-41.09,0 -77.68,-5.82 -109.77,-17.26 -32.09,-11.54 -59.95,-27.11 -83.5,-46.72 -23.55,-19.51 -42.59,-42.59 -57.14,-69.14 -14.54,-26.55 -23.83,-54.88 -27.86,-85 -1.03,-4.97 -1.03,-9.01 0,-12.01 1.03,-3 5.54,-4.5 13.51,-4.5l130.88 0c10.04,0 16.61,6 19.61,18.01 7.97,32.09 22.05,54.41 42.12,66.99 19.98,12.48 44.09,18.76 72.15,18.76 28.15,0 52.16,-6.29 72.24,-18.76 20.08,-12.57 34.06,-34.9 42.12,-66.99 3,-12.01 9.48,-18.01 19.51,-18.01l130.88 0c8.07,0 12.57,1.5 13.51,4.5 1.03,3 1.03,7.04 0,12.01 -4.97,30.12 -14.54,58.45 -28.52,85 -14.07,26.55 -32.84,49.63 -56.38,69.14 -23.64,19.61 -51.69,35.18 -84.25,46.72 -32.65,11.45 -68.96,17.26 -109.11,17.26zm-439.26 105.26c0,-7.97 3,-14.73 9.1,-20.26 6,-5.54 13.04,-8.26 21.02,-8.26l177.5 0c8.07,0 15.01,2.72 21.11,8.26 6,5.54 9.01,12.29 9.01,20.26l0 636.37c0,9.01 2.44,13.51 7.51,13.51 3,0 7.04,-4.03 12.01,-12.01l356.51 -619.76c9.01,-16.04 18.11,-27.86 27.11,-35.37 9.01,-7.51 21.02,-11.26 36.12,-11.26l151.89 0c16.04,0 29.55,5.44 40.62,16.51 10.98,11.07 16.51,24.58 16.51,40.62l0 1030.4c0,7.97 -3,15.01 -9.01,21.02 -6,6.1 -13.04,9.1 -21.02,9.1l-177.5 0c-8.07,0 -15.1,-3 -21.11,-9.1 -6,-6 -9.01,-13.04 -9.01,-21.02l0 -609.25c0,-7.97 -2.53,-12.01 -7.51,-12.01 -4.03,0 -8.54,4.03 -13.6,12.01l-342.9 592.74c-12.1,19.98 -24.11,32.84 -36.12,38.28 -12.01,5.54 -26.08,8.35 -42.12,8.35l-147.39 0c-16.04,0 -29.83,-5.54 -41.37,-16.61 -11.54,-10.98 -17.36,-24.58 -17.36,-40.62l0 -1031.9zm1420.03 895.02c0,-7.97 3,-15.01 9.01,-21.02 6.1,-6 13.04,-9.01 21.11,-9.01l91.75 0 177.5 -739.85c9.01,-36.12 22.05,-65.2 39.12,-87.25 17.07,-22.33 36.87,-39.12 59.39,-50.66 22.61,-11.54 46.91,-19.33 72.99,-23.36 26.08,-3.94 52.16,-6 78.24,-6 26.08,0 51.88,2.06 77.4,6 25.61,4.03 49.63,11.82 72.24,23.36 22.52,11.54 42.41,28.33 59.39,50.66 17.07,22.05 30.12,51.13 39.12,87.25l177.5 739.85 96.26 0c8.07,0 15.1,3 21.11,9.01 6,6 9.01,13.04 9.01,21.02l0 346c0,8.07 -3,15.01 -9.01,21.11 -6,6 -13.04,9.01 -21.11,9.01l-197.02 0c-8.07,0 -15.01,-3 -21.11,-9.01 -6,-6.1 -9.01,-13.04 -9.01,-21.11l0 -151.89 -586.64 0 0 151.89c0,8.07 -3,15.01 -9.01,21.11 -6,6 -13.04,9.01 -21.11,9.01l-197.02 0c-8.07,0 -15.01,-3 -21.11,-9.01 -6,-6.1 -9.01,-13.04 -9.01,-21.11l0 -346zm382.12 -30.02l330.9 0 -144.39 -669.39c-1.97,-8.07 -4.03,-13.79 -6,-17.36 -1.97,-3.47 -6.57,-5.25 -13.51,-5.25 -11.07,0 -18.11,7.51 -21.11,22.61l-145.89 669.39zm1672.68 -245.24c0,87.25 -11.54,161.46 -34.52,222.63 -23.08,61.17 -54.41,111.08 -94.57,149.64 -40.06,38.65 -87.25,66.7 -141.1,84.25 -54.23,17.54 -112.11,26.36 -174.31,26.36 -62.11,0 -120.09,-8.82 -174.22,-26.36 -53.85,-17.54 -101.04,-45.6 -141.1,-84.25 -40.15,-38.56 -71.49,-88.47 -94.57,-149.64 -23.08,-61.17 -34.62,-135.38 -34.62,-222.63l0 -179c0,-87.25 11.54,-161.46 34.62,-222.63 23.08,-61.17 54.41,-111.08 94.57,-149.64 40.06,-38.65 87.25,-66.7 141.1,-84.25 54.13,-17.54 112.11,-26.36 174.22,-26.36 62.2,0 120.09,8.82 174.31,26.36 53.85,17.54 101.04,45.6 141.1,84.25 40.15,38.56 71.49,88.47 94.57,149.64 22.99,61.17 34.52,135.38 34.52,222.63l0 179zm-257.15 -179.47c0,-91.57 -15.29,-157.43 -45.88,-197.86 -30.58,-40.34 -77.49,-60.42 -140.73,-60.42 -63.14,0 -109.77,20.08 -139.88,60.42 -30.02,40.44 -45.13,106.3 -45.13,197.86l0 179.94c0,91.57 15.1,157.52 45.13,197.86 30.12,40.34 76.74,60.42 139.88,60.42 63.23,0 110.14,-20.08 140.73,-60.42 30.58,-40.34 45.88,-106.3 45.88,-197.86l0 -179.94zm1460.56 627.74c0,8.07 -2.72,13.51 -8.26,16.61 -5.54,3 -11.26,4.5 -17.26,4.5l-198.61 0c-6.94,0 -12.76,-3 -17.26,-9.1 -4.5,-6 -6.75,-13.04 -6.75,-21.02l0 -627.27c0,-8.07 -2.53,-12.01 -7.51,-12.01 -4.03,0 -8.07,3.47 -12.1,10.51l-135.38 248.15c-10.04,17.07 -25.05,25.61 -45.13,25.61l-120.27 0c-20.08,0 -35.09,-8.54 -45.13,-25.61l-135.38 -248.15c-4.03,-7.04 -8.07,-10.51 -12.1,-10.51 -4.97,0 -7.51,3.94 -7.51,12.01l0 627.27c0,7.97 -2.25,15.01 -6.75,21.02 -4.5,6.1 -10.32,9.1 -17.26,9.1l-198.61 0c-6,0 -11.73,-1.5 -17.26,-4.5 -5.54,-3.1 -8.26,-8.54 -8.26,-16.61l0 -1045.41c0,-16.04 4.97,-28.61 15.01,-37.62 10.04,-9.01 23.08,-13.51 39.12,-13.51l141.38 0c30.12,0 52.16,13.51 66.14,40.62l230.23 428.65c6,13.04 11.54,19.61 16.51,19.61 4.03,0 9.57,-6.57 16.51,-19.61l230.23 -428.65c13.98,-27.11 36.03,-40.62 66.14,-40.62l141.38 0c16.04,0 29.08,4.69 39.12,14.26 10.04,9.48 15.01,22.33 15.01,38.37l0 1043.91z"/>
   </g>
  </g>
 </g>
</svg>
