<?xml version="1.0" encoding="UTF-8"?>
<!DOCTYPE svg PUBLIC "-//W3C//DTD SVG 1.1//EN" "http://www.w3.org/Graphics/SVG/1.1/DTD/svg11.dtd">
<!-- Creator: CorelDRAW 2019 (64-Bit) -->
<svg xmlns="http://www.w3.org/2000/svg" xml:space="preserve" width="100%" height="auto" version="1.1" style="shape-rendering:geometricPrecision; text-rendering:geometricPrecision; image-rendering:optimizeQuality; fill-rule:evenodd; clip-rule:evenodd"
viewBox="0 0 1270.67 1277.94"
 xmlns:xlink="http://www.w3.org/1999/xlink">
 <defs>
  <style type="text/css">
   <![CDATA[
    .fil0 {fill:#2C2F47;fill-rule:nonzero}
   ]]>
  </style>
 </defs>
 <g id="Слой_x0020_1">
  <metadata id="CorelCorpID_0Corel-Layer"/>
  <g id="_1733170007296">
   <path class="fil0" d="M955.43 416.09l-152.39 0 0 123.2 221.31 0c7.39,-48.39 30.32,-91.82 63.48,-124.99 40.76,-40.76 97.02,-66.06 158.92,-66.06l0 67.84c-43.18,0 -82.46,17.69 -110.95,46.18 -28.49,28.49 -46.19,67.77 -46.19,110.95 0,43.18 17.7,82.47 46.19,110.95 28.5,28.49 67.78,46.19 110.95,46.19l0 67.84c-61.91,0 -118.16,-25.31 -158.92,-66.05 -33.17,-33.17 -56.09,-76.61 -63.48,-125l-221.31 0 0 123.22 152.39 0 0 67.84 -186.31 0 -33.92 0 0 -33.93 0 -157.14 -123.2 0 0 191.05 -67.84 0 0 -382.1 -118.47 0 0 348.19c0,61.91 -25.31,118.16 -66.06,158.91 -40.76,40.76 -97.01,66.06 -158.91,66.06l0 -67.84c43.18,0 82.46,-17.7 110.95,-46.19 28.5,-28.49 46.19,-67.77 46.19,-110.95l0 -157.14 -125.77 0c-7.4,48.38 -30.33,91.83 -63.49,125 -40.76,40.75 -97.02,66.05 -158.91,66.05l0 -67.84c43.17,0 82.46,-17.7 110.95,-46.19 20.81,-20.8 35.86,-47.39 42.46,-77.03l-153.41 0 0 -67.84 153.41 0c-6.6,-29.64 -21.65,-56.21 -42.46,-77.03 -28.49,-28.49 -67.78,-46.18 -110.95,-46.18l0 -67.84c61.9,0 118.16,25.31 158.91,66.06 33.17,33.17 56.09,76.6 63.49,124.99l125.77 0 0 -157.12 0 -33.93 33.92 0 186.31 0 33.93 0 0 33.93 0 157.12 123.2 0 0 -157.12 0 -33.93 33.92 0 186.31 0 0 67.84z"/>
   <path class="fil0" d="M84.89 52c0,0.84 -0.34,1.56 -1.02,2.14 -0.68,0.58 -1.45,0.87 -2.3,0.87l-25.61 0 0 92c0,0.84 -0.32,1.59 -0.95,2.21 -0.63,0.64 -1.37,0.95 -2.21,0.95l-20.71 0c-0.84,0 -1.58,-0.31 -2.21,-0.95 -0.63,-0.63 -0.95,-1.37 -0.95,-2.21l0 -92 -25.77 0c-0.84,0 -1.58,-0.29 -2.21,-0.87 -0.63,-0.58 -0.95,-1.29 -0.95,-2.14l0 -16.27c0,-0.84 0.32,-1.56 0.95,-2.14 0.64,-0.58 1.37,-0.87 2.21,-0.87l78.41 0c0.84,0 1.61,0.29 2.3,0.87 0.68,0.58 1.02,1.29 1.02,2.14l0 16.27zm93.9 -16.43c0,0.21 -0.03,0.34 -0.08,0.39 -0.06,0.05 -0.08,0.18 -0.08,0.39l-26.55 89.32c-1.27,4.32 -2.68,8.09 -4.27,11.3 -1.59,3.22 -3.64,5.87 -6.16,7.98 -2.53,2.11 -5.75,3.71 -9.64,4.82 -3.9,1.11 -8.75,1.66 -14.55,1.66 -1.47,0 -3.1,-0.08 -4.9,-0.23 -1.79,-0.16 -3.58,-0.35 -5.37,-0.55 -1.79,-0.22 -3.48,-0.48 -5.07,-0.79 -1.58,-0.32 -2.84,-0.64 -3.79,-0.95 -0.84,-0.32 -1.6,-0.67 -2.29,-1.03 -0.68,-0.37 -1.03,-0.98 -1.03,-1.82l0 -12.8c0,-0.84 0.32,-1.56 0.95,-2.13 0.64,-0.58 1.37,-0.87 2.21,-0.87l0.32 0c1.27,0.1 2.77,0.21 4.5,0.32 1.74,0.1 3.53,0.23 5.37,0.39 1.85,0.16 3.64,0.29 5.37,0.39 1.74,0.1 3.25,0.16 4.5,0.16 2.85,0 5.07,-0.58 6.64,-1.74 1.59,-1.15 2.85,-3.32 3.8,-6.48l1.42 -4.9 -2.36 0c-1.48,0 -2.88,-0.13 -4.19,-0.39 -1.31,-0.26 -2.58,-0.9 -3.79,-1.9 -1.22,-0.99 -2.37,-2.48 -3.48,-4.42 -1.11,-1.95 -2.19,-4.61 -3.25,-7.99l-20.86 -67.34c-0.11,-0.32 -0.16,-0.68 -0.16,-1.11 0,-1.69 1.05,-2.53 3.16,-2.53l21.02 0c0.84,0 1.5,0.29 1.98,0.87 0.48,0.58 0.82,1.29 1.03,2.14l14.22 55.64c0.32,1.16 0.61,1.95 0.87,2.37 0.26,0.42 0.82,0.63 1.66,0.63l0.79 0 14.71 -58.64c0.21,-0.84 0.6,-1.56 1.18,-2.14 0.58,-0.58 1.29,-0.87 2.14,-0.87l21.02 0c0.84,0 1.56,0.26 2.14,0.8 0.57,0.53 0.86,1.21 0.86,2.05zm101.02 35.25c0,7.37 -1.35,13.52 -4.03,18.41 -2.71,4.91 -6.28,8.83 -10.7,11.78 -4.45,2.95 -9.48,5.03 -15.15,6.25 -5.67,1.21 -11.43,1.82 -17.36,1.82 -1.89,0 -4.01,-0.06 -6.32,-0.16 -2.34,-0.11 -4.5,-0.22 -6.51,-0.32l0 38.41c0,0.84 -0.31,1.59 -0.95,2.21 -0.63,0.64 -1.37,0.95 -2.21,0.95l-20.39 0c-0.84,0 -1.58,-0.29 -2.21,-0.86 -0.63,-0.58 -0.95,-1.29 -0.95,-2.14l0 -106.23c0,-2.74 0.58,-4.59 1.74,-5.53 1.16,-0.95 2.95,-1.63 5.37,-2.05 4.03,-0.64 8.97,-1.13 14.84,-1.5 5.84,-0.38 11.62,-0.55 17.33,-0.55 6.01,0 11.88,0.57 17.58,1.74 5.68,1.16 10.78,3.22 15.2,6.16 4.43,2.95 8.01,6.88 10.7,11.78 2.68,4.9 4.03,11.04 4.03,18.41l0 1.43zm-27.03 -1.43c0,-5.68 -1.72,-9.72 -5.14,-12.09 -3.42,-2.37 -8.46,-3.55 -15.1,-3.55 -0.53,0 -1.42,0.03 -2.68,0.08 -1.27,0.06 -2.56,0.1 -3.87,0.16 -1.31,0.06 -2.58,0.1 -3.79,0.16 -1.22,0.06 -2.04,0.08 -2.46,0.08l0 32.25c0.42,0 1.24,0.03 2.46,0.08 1.21,0.06 2.52,0.1 3.95,0.16 1.43,0.05 2.74,0.08 3.95,0.08 1.21,0 2.04,0 2.45,0 7.06,0 12.2,-1.31 15.42,-3.95 3.21,-2.64 4.82,-6.64 4.82,-12.02l0 -1.43zm125.99 78.26c0,1.68 -0.9,2.52 -2.69,2.52l-22.13 0c-0.84,0 -1.53,-0.26 -2.05,-0.79 -0.53,-0.53 -0.9,-1.21 -1.11,-2.05l-5.69 -25.93 -32.41 0 -5.69 25.93c-0.21,0.84 -0.57,1.53 -1.11,2.05 -0.53,0.53 -1.21,0.79 -2.05,0.79l-22.13 0c-1.79,0 -2.69,-0.84 -2.69,-2.52 0,-0.11 0.03,-0.22 0.08,-0.32 0.05,-0.1 0.08,-0.26 0.08,-0.48l23.55 -98.01c0.95,-3.79 2.33,-6.85 4.12,-9.16 1.79,-2.32 3.86,-4.09 6.24,-5.3 2.37,-1.21 4.93,-2.03 7.67,-2.45 2.74,-0.42 5.48,-0.63 8.22,-0.63 2.74,0 5.45,0.21 8.14,0.63 2.68,0.42 5.22,1.24 7.59,2.45 2.37,1.21 4.46,2.98 6.25,5.3 1.79,2.32 3.16,5.37 4.11,9.16l23.55 98.01c0,0.22 0.03,0.38 0.08,0.48 0.06,0.1 0.08,0.21 0.08,0.32zm-47.74 -91.53c-0.21,-0.84 -0.42,-1.45 -0.63,-1.82 -0.22,-0.38 -0.68,-0.55 -1.43,-0.55 -1.16,0 -1.89,0.79 -2.21,2.37l-9.64 43.63 23.55 0 -9.64 -43.63zm153.81 -21.66c0,0.63 -0.26,1.37 -0.79,2.21l-37.62 53.43 37.78 56.75c0.42,0.53 0.63,1.11 0.63,1.74 0,1.05 -0.73,1.58 -2.2,1.58l-27.19 0c-0.95,0 -1.66,-0.21 -2.14,-0.63 -0.47,-0.42 -0.92,-0.95 -1.34,-1.59l-32.09 -52.16 0 51.21c0,0.84 -0.32,1.59 -0.95,2.21 -0.64,0.64 -1.37,0.95 -2.21,0.95l-20.71 0c-0.84,0 -1.59,-0.31 -2.21,-0.95 -0.63,-0.63 -0.95,-1.37 -0.95,-2.21l0 -111.28c0,-0.84 0.32,-1.56 0.95,-2.14 0.63,-0.58 1.37,-0.87 2.21,-0.87l20.71 0c0.84,0 1.58,0.29 2.21,0.87 0.63,0.58 0.95,1.29 0.95,2.14l0 50.27 34.77 -51.37c0.74,-1.27 1.9,-1.9 3.48,-1.9l24.19 0c1.69,0 2.52,0.58 2.52,1.74zm114.29 1.27c0,-0.84 0.32,-1.56 0.96,-2.14 0.63,-0.58 1.37,-0.87 2.21,-0.87l20.7 0c0.84,0 1.59,0.29 2.21,0.87 0.64,0.58 0.95,1.29 0.95,2.14l0 50.27 34.78 -51.37c0.74,-1.27 1.89,-1.9 3.48,-1.9l24.19 0c1.68,0 2.52,0.58 2.52,1.74 0,0.63 -0.26,1.37 -0.79,2.21l-37.62 53.43 37.78 56.75c0.42,0.53 0.63,1.11 0.63,1.74 0,1.05 -0.73,1.58 -2.21,1.58l-27.19 0c-0.95,0 -1.66,-0.21 -2.13,-0.63 -0.48,-0.42 -0.92,-0.95 -1.34,-1.59l-32.1 -52.16 0 51.21c0,0.84 -0.31,1.59 -0.95,2.21 -0.63,0.64 -1.37,0.95 -2.21,0.95l-20.7 0c-0.84,0 -1.59,-0.31 -2.21,-0.95 -0.64,-0.63 -0.96,-1.37 -0.96,-2.21l0 -51.21 -32.09 52.16c-0.42,0.64 -0.86,1.16 -1.34,1.59 -0.48,0.42 -1.18,0.63 -2.14,0.63l-27.18 0c-1.48,0 -2.21,-0.53 -2.21,-1.58 0,-0.64 0.21,-1.21 0.63,-1.74l37.78 -56.75 -37.62 -53.43c-0.53,-0.84 -0.79,-1.59 -0.79,-2.21 0,-1.16 0.84,-1.74 2.52,-1.74l24.19 0c1.47,0 2.64,0.64 3.48,1.9l34.77 51.37 0 -50.27zm198.87 111.92c0,1.68 -0.89,2.52 -2.68,2.52l-22.14 0c-0.84,0 -1.53,-0.26 -2.05,-0.79 -0.53,-0.53 -0.89,-1.21 -1.11,-2.05l-5.69 -25.93 -32.41 0 -5.68 25.93c-0.22,0.84 -0.58,1.53 -1.11,2.05 -0.53,0.53 -1.22,0.79 -2.05,0.79l-22.14 0c-1.79,0 -2.68,-0.84 -2.68,-2.52 0,-0.11 0.02,-0.22 0.08,-0.32 0.06,-0.1 0.08,-0.26 0.08,-0.48l23.56 -98.01c0.95,-3.79 2.32,-6.85 4.11,-9.16 1.79,-2.32 3.87,-4.09 6.24,-5.3 2.37,-1.21 4.93,-2.03 7.67,-2.45 2.74,-0.42 5.48,-0.63 8.22,-0.63 2.74,0 5.46,0.21 8.14,0.63 2.69,0.42 5.22,1.24 7.59,2.45 2.37,1.21 4.46,2.98 6.25,5.3 1.79,2.32 3.16,5.37 4.11,9.16l23.55 98.01c0,0.22 0.03,0.38 0.08,0.48 0.05,0.1 0.08,0.21 0.08,0.32zm-47.74 -91.53c-0.21,-0.84 -0.42,-1.45 -0.63,-1.82 -0.22,-0.38 -0.68,-0.55 -1.43,-0.55 -1.15,0 -1.89,0.79 -2.21,2.37l-9.64 43.63 23.55 0 -9.64 -43.63zm104.81 -31.46c-4.32,0 -8.17,-0.61 -11.54,-1.82 -3.38,-1.21 -6.29,-2.84 -8.78,-4.9 -2.48,-2.06 -4.47,-4.48 -6,-7.28 -1.53,-2.79 -2.5,-5.77 -2.93,-8.93 -0.1,-0.53 -0.1,-0.95 0,-1.27 0.11,-0.31 0.58,-0.47 1.43,-0.47l13.75 0c1.06,0 1.74,0.63 2.05,1.89 0.84,3.37 2.32,5.71 4.43,7.03 2.11,1.31 4.64,1.98 7.59,1.98 2.95,0 5.48,-0.67 7.59,-1.98 2.11,-1.32 3.58,-3.67 4.43,-7.03 0.32,-1.27 1,-1.89 2.05,-1.89l13.75 0c0.84,0 1.32,0.16 1.43,0.47 0.1,0.32 0.1,0.74 0,1.27 -0.53,3.16 -1.53,6.14 -3,8.93 -1.47,2.8 -3.45,5.22 -5.93,7.28 -2.48,2.05 -5.43,3.69 -8.85,4.9 -3.42,1.21 -7.24,1.82 -11.46,1.82zm-46.16 11.07c0,-0.84 0.32,-1.56 0.95,-2.14 0.63,-0.58 1.37,-0.87 2.21,-0.87l18.66 0c0.84,0 1.58,0.29 2.21,0.87 0.63,0.58 0.95,1.29 0.95,2.14l0 66.87c0,0.95 0.26,1.42 0.79,1.42 0.32,0 0.74,-0.42 1.27,-1.27l37.46 -65.12c0.95,-1.69 1.89,-2.93 2.85,-3.71 0.95,-0.8 2.2,-1.19 3.79,-1.19l15.96 0c1.69,0 3.11,0.58 4.27,1.74 1.16,1.15 1.74,2.58 1.74,4.27l0 108.28c0,0.84 -0.32,1.59 -0.95,2.21 -0.64,0.64 -1.38,0.95 -2.21,0.95l-18.66 0c-0.84,0 -1.59,-0.31 -2.21,-0.95 -0.64,-0.63 -0.95,-1.37 -0.95,-2.21l0 -64.02c0,-0.84 -0.26,-1.27 -0.79,-1.27 -0.42,0 -0.9,0.42 -1.43,1.27l-36.05 62.28c-1.27,2.11 -2.52,3.45 -3.79,4.03 -1.27,0.57 -2.74,0.86 -4.43,0.86l-15.5 0c-1.69,0 -3.13,-0.57 -4.34,-1.74 -1.21,-1.16 -1.82,-2.58 -1.82,-4.27l0 -108.44zm304.78 -11.07c-4.31,0 -8.16,-0.61 -11.54,-1.82 -3.38,-1.21 -6.29,-2.84 -8.77,-4.9 -2.48,-2.06 -4.48,-4.48 -6.01,-7.28 -1.53,-2.79 -2.5,-5.77 -2.93,-8.93 -0.1,-0.53 -0.1,-0.95 0,-1.27 0.11,-0.31 0.58,-0.47 1.43,-0.47l13.75 0c1.06,0 1.74,0.63 2.05,1.89 0.84,3.37 2.33,5.71 4.43,7.03 2.11,1.31 4.64,1.98 7.59,1.98 2.95,0 5.49,-0.67 7.59,-1.98 2.11,-1.32 3.58,-3.67 4.43,-7.03 0.32,-1.27 1,-1.89 2.05,-1.89l13.76 0c0.83,0 1.31,0.16 1.42,0.47 0.1,0.32 0.1,0.74 0,1.27 -0.53,3.16 -1.53,6.14 -3,8.93 -1.47,2.8 -3.45,5.22 -5.93,7.28 -2.48,2.05 -5.43,3.69 -8.85,4.9 -3.42,1.21 -7.24,1.82 -11.46,1.82zm-46.16 11.07c0,-0.84 0.32,-1.56 0.95,-2.14 0.64,-0.58 1.37,-0.87 2.21,-0.87l18.66 0c0.84,0 1.58,0.29 2.21,0.87 0.63,0.58 0.95,1.29 0.95,2.14l0 66.87c0,0.95 0.26,1.42 0.79,1.42 0.32,0 0.74,-0.42 1.27,-1.27l37.46 -65.12c0.95,-1.69 1.9,-2.93 2.85,-3.71 0.95,-0.8 2.21,-1.19 3.79,-1.19l15.96 0c1.69,0 3.11,0.58 4.27,1.74 1.16,1.15 1.74,2.58 1.74,4.27l0 108.28c0,0.84 -0.32,1.59 -0.95,2.21 -0.64,0.64 -1.37,0.95 -2.21,0.95l-18.66 0c-0.84,0 -1.59,-0.31 -2.21,-0.95 -0.63,-0.63 -0.95,-1.37 -0.95,-2.21l0 -64.02c0,-0.84 -0.26,-1.27 -0.79,-1.27 -0.42,0 -0.9,0.42 -1.43,1.27l-36.05 62.28c-1.26,2.11 -2.52,3.45 -3.79,4.03 -1.27,0.57 -2.74,0.86 -4.43,0.86l-15.5 0c-1.68,0 -3.13,-0.57 -4.34,-1.74 -1.21,-1.16 -1.82,-2.58 -1.82,-4.27l0 -108.44zm-14.39 -0.64c0,0.53 -0.05,0.9 -0.15,1.11l-23.87 54.69c-1.59,3.7 -3.22,6.43 -4.91,8.23 -1.68,1.79 -3.47,3.1 -5.37,3.95l0 43.94c0,0.84 -0.31,1.59 -0.95,2.21 -0.63,0.64 -1.37,0.95 -2.21,0.95l-20.71 0c-0.83,0 -1.58,-0.31 -2.21,-0.95 -0.63,-0.63 -0.95,-1.37 -0.95,-2.21l0 -43.94c-1.89,-0.84 -3.71,-2.16 -5.45,-3.95 -1.74,-1.79 -3.4,-4.53 -4.98,-8.23l-23.87 -54.69c-0.1,-0.21 -0.16,-0.58 -0.16,-1.11 0,-0.63 0.22,-1.18 0.64,-1.66 0.42,-0.47 1.05,-0.71 1.89,-0.71l22.76 0c0.84,0 1.53,0.26 2.05,0.8 0.53,0.53 0.89,1.15 1.11,1.89l17.07 44.57c0.42,1.06 0.79,1.72 1.11,1.98 0.32,0.26 0.74,0.39 1.27,0.39 0.53,0 0.95,-0.13 1.27,-0.39 0.31,-0.26 0.68,-0.92 1.11,-1.98l17.07 -44.57c0.21,-0.74 0.58,-1.37 1.11,-1.89 0.53,-0.53 1.21,-0.8 2.05,-0.8l22.76 0c0.84,0 1.47,0.24 1.89,0.71 0.42,0.48 0.63,1.03 0.63,1.66zm217.53 0c0,0.53 -0.06,0.9 -0.16,1.11l-23.87 54.69c-1.58,3.7 -3.22,6.43 -4.9,8.23 -1.69,1.79 -3.48,3.1 -5.37,3.95l0 43.94c0,0.84 -0.32,1.59 -0.96,2.21 -0.63,0.64 -1.37,0.95 -2.2,0.95l-20.71 0c-0.84,0 -1.59,-0.31 -2.21,-0.95 -0.64,-0.63 -0.95,-1.37 -0.95,-2.21l0 -43.94c-1.9,-0.84 -3.71,-2.16 -5.46,-3.95 -1.74,-1.79 -3.4,-4.53 -4.98,-8.23l-23.87 -54.69c-0.1,-0.21 -0.15,-0.58 -0.15,-1.11 0,-0.63 0.21,-1.18 0.63,-1.66 0.42,-0.47 1.05,-0.71 1.89,-0.71l22.76 0c0.84,0 1.53,0.26 2.05,0.8 0.53,0.53 0.9,1.15 1.11,1.89l17.07 44.57c0.42,1.06 0.8,1.72 1.11,1.98 0.32,0.26 0.74,0.39 1.27,0.39 0.53,0 0.95,-0.13 1.27,-0.39 0.32,-0.26 0.68,-0.92 1.11,-1.98l17.07 -44.57c0.22,-0.74 0.58,-1.37 1.11,-1.89 0.53,-0.53 1.21,-0.8 2.05,-0.8l22.76 0c0.84,0 1.47,0.24 1.89,0.71 0.42,0.48 0.64,1.03 0.64,1.66z"/>
   <path class="fil0" d="M221.16 1150.86c0,-0.8 0.3,-1.47 0.9,-2.03 0.6,-0.55 1.3,-0.83 2.1,-0.83l19.71 0c0.8,0 1.5,0.27 2.1,0.83 0.6,0.55 0.91,1.23 0.91,2.03l0 47.83 33.08 -48.88c0.7,-1.2 1.8,-1.8 3.31,-1.8l23.01 0c1.6,0 2.4,0.54 2.4,1.65 0,0.6 -0.24,1.3 -0.75,2.1l-35.79 50.84 35.94 53.99c0.4,0.5 0.6,1.05 0.6,1.65 0,1 -0.69,1.51 -2.1,1.51l-25.87 0c-0.9,0 -1.58,-0.21 -2.03,-0.6 -0.45,-0.4 -0.88,-0.91 -1.29,-1.51l-30.52 -49.63 0 48.73c0,0.8 -0.31,1.5 -0.91,2.1 -0.6,0.61 -1.3,0.91 -2.1,0.91l-19.71 0c-0.8,0 -1.5,-0.3 -2.1,-0.91 -0.6,-0.6 -0.9,-1.3 -0.9,-2.1l0 -48.73 -30.53 49.63c-0.4,0.6 -0.83,1.11 -1.28,1.51 -0.45,0.39 -1.13,0.6 -2.04,0.6l-25.87 0c-1.4,0 -2.1,-0.51 -2.1,-1.51 0,-0.6 0.2,-1.15 0.6,-1.65l35.94 -53.99 -35.79 -50.84c-0.5,-0.8 -0.75,-1.5 -0.75,-2.1 0,-1.11 0.8,-1.65 2.4,-1.65l23.02 0c1.4,0 2.5,0.6 3.3,1.8l33.09 48.88 0 -47.83zm98.96 0c0,-0.8 0.3,-1.47 0.9,-2.03 0.6,-0.55 1.3,-0.83 2.11,-0.83l17.75 0c0.8,0 1.5,0.27 2.1,0.83 0.6,0.55 0.9,1.23 0.9,2.03l0 63.62c0,0.9 0.25,1.35 0.75,1.35 0.31,0 0.7,-0.4 1.21,-1.2l35.64 -61.96c0.9,-1.6 1.8,-2.79 2.7,-3.54 0.91,-0.75 2.11,-1.13 3.61,-1.13l15.2 0c1.6,0 2.95,0.54 4.05,1.65 1.11,1.11 1.66,2.46 1.66,4.06l0 103.02c0,0.8 -0.3,1.5 -0.9,2.1 -0.6,0.61 -1.3,0.91 -2.11,0.91l-17.75 0c-0.8,0 -1.5,-0.3 -2.1,-0.91 -0.6,-0.6 -0.9,-1.3 -0.9,-2.1l0 -60.91c0,-0.8 -0.25,-1.2 -0.76,-1.2 -0.39,0 -0.85,0.4 -1.35,1.2l-34.29 59.26c-1.2,2 -2.4,3.28 -3.6,3.83 -1.21,0.55 -2.61,0.83 -4.21,0.83l-14.75 0c-1.6,0 -2.98,-0.55 -4.14,-1.66 -1.15,-1.1 -1.73,-2.46 -1.73,-4.06l0 -103.17zm148.44 19.41c-0.2,-0.81 -0.39,-1.38 -0.6,-1.74 -0.2,-0.35 -0.65,-0.53 -1.35,-0.53 -1.11,0 -1.81,0.75 -2.11,2.26l-18.8 86.77c-0.2,0.81 -0.55,1.45 -1.05,1.95 -0.51,0.51 -1.15,0.76 -1.96,0.76l-21.05 0c-1.71,0 -2.56,-0.81 -2.56,-2.41 0,-0.1 0.03,-0.2 0.08,-0.3 0.06,-0.1 0.08,-0.25 0.08,-0.45l22.41 -93.25c0.9,-3.61 2.2,-6.52 3.91,-8.72 1.71,-2.2 3.69,-3.88 5.94,-5.04 2.26,-1.15 4.69,-1.93 7.3,-2.34 2.61,-0.39 5.22,-0.6 7.82,-0.6 2.61,0 5.19,0.21 7.75,0.6 2.55,0.4 4.96,1.18 7.21,2.34 2.26,1.15 4.24,2.83 5.95,5.04 1.7,2.2 3,5.11 3.9,8.72l22.41 93.25c0,0.2 0.03,0.35 0.08,0.45 0.06,0.1 0.08,0.2 0.08,0.3 0,1.6 -0.84,2.41 -2.55,2.41l-21.06 0c-0.8,0 -1.45,-0.25 -1.95,-0.76 -0.51,-0.5 -0.85,-1.14 -1.05,-1.95l-18.81 -86.77zm142.12 42.56c0,8.72 -1.15,16.14 -3.46,22.26 -2.3,6.12 -5.43,11.11 -9.45,14.96 -4.01,3.86 -8.72,6.67 -14.12,8.42 -5.41,1.75 -11.2,2.64 -17.42,2.64 -6.22,0 -12.01,-0.88 -17.42,-2.64 -5.39,-1.75 -10.1,-4.56 -14.12,-8.42 -4.01,-3.86 -7.14,-8.85 -9.45,-14.96 -2.31,-6.12 -3.46,-13.54 -3.46,-22.26l0 -17.9c0,-8.72 1.15,-16.14 3.46,-22.26 2.31,-6.12 5.44,-11.11 9.45,-14.96 4.01,-3.86 8.72,-6.67 14.12,-8.42 5.41,-1.75 11.2,-2.64 17.42,-2.64 6.22,0 12.01,0.88 17.42,2.64 5.39,1.75 10.1,4.56 14.12,8.42 4.01,3.86 7.15,8.85 9.45,14.96 2.31,6.12 3.46,13.54 3.46,22.26l0 17.9zm-25.72 -17.94c0,-9.15 -1.53,-15.74 -4.59,-19.78 -3.06,-4.03 -7.74,-6.04 -14.06,-6.04 -6.31,0 -10.97,2.01 -13.99,6.04 -3.01,4.04 -4.51,10.63 -4.51,19.78l0 17.99c0,9.15 1.5,15.75 4.51,19.78 3.01,4.03 7.67,6.04 13.99,6.04 6.32,0 11,-2.01 14.06,-6.04 3.06,-4.03 4.59,-10.63 4.59,-19.78l0 -17.99zm88.28 -54.54c-4.11,0 -7.77,-0.58 -10.97,-1.73 -3.21,-1.15 -5.99,-2.71 -8.35,-4.67 -2.35,-1.95 -4.26,-4.26 -5.71,-6.91 -1.45,-2.65 -2.38,-5.49 -2.79,-8.5 -0.1,-0.5 -0.1,-0.9 0,-1.2 0.1,-0.3 0.55,-0.45 1.35,-0.45l13.08 0c1,0 1.66,0.6 1.96,1.8 0.8,3.21 2.2,5.44 4.21,6.7 2,1.25 4.41,1.88 7.21,1.88 2.81,0 5.22,-0.63 7.22,-1.88 2.01,-1.26 3.4,-3.49 4.21,-6.7 0.3,-1.2 0.95,-1.8 1.95,-1.8l13.08 0c0.81,0 1.26,0.15 1.35,0.45 0.1,0.3 0.1,0.7 0,1.2 -0.5,3.01 -1.45,5.84 -2.85,8.5 -1.41,2.65 -3.28,4.96 -5.64,6.91 -2.36,1.96 -5.17,3.52 -8.42,4.67 -3.26,1.14 -6.89,1.73 -10.91,1.73zm-43.92 10.52c0,-0.8 0.3,-1.47 0.91,-2.03 0.6,-0.55 1.3,-0.83 2.1,-0.83l17.75 0c0.81,0 1.5,0.27 2.11,0.83 0.6,0.55 0.9,1.23 0.9,2.03l0 63.62c0,0.9 0.24,1.35 0.75,1.35 0.3,0 0.7,-0.4 1.2,-1.2l35.64 -61.96c0.9,-1.6 1.81,-2.79 2.71,-3.54 0.9,-0.75 2.1,-1.13 3.61,-1.13l15.19 0c1.6,0 2.95,0.54 4.06,1.65 1.1,1.11 1.65,2.46 1.65,4.06l0 103.02c0,0.8 -0.3,1.5 -0.9,2.1 -0.6,0.61 -1.3,0.91 -2.1,0.91l-17.75 0c-0.81,0 -1.51,-0.3 -2.11,-0.91 -0.6,-0.6 -0.9,-1.3 -0.9,-2.1l0 -60.91c0,-0.8 -0.25,-1.2 -0.75,-1.2 -0.4,0 -0.85,0.4 -1.36,1.2l-34.28 59.26c-1.21,2 -2.41,3.28 -3.61,3.83 -1.2,0.55 -2.61,0.83 -4.21,0.83l-14.74 0c-1.6,0 -2.98,-0.55 -4.14,-1.66 -1.15,-1.1 -1.74,-2.46 -1.74,-4.06l0 -103.17zm141.97 89.48c0,-0.8 0.3,-1.5 0.9,-2.1 0.61,-0.6 1.3,-0.9 2.11,-0.9l9.17 0 17.75 -73.97c0.9,-3.61 2.2,-6.52 3.91,-8.72 1.71,-2.23 3.69,-3.91 5.94,-5.07 2.26,-1.15 4.69,-1.93 7.3,-2.34 2.61,-0.39 5.22,-0.6 7.82,-0.6 2.61,0 5.19,0.21 7.74,0.6 2.56,0.4 4.96,1.18 7.22,2.34 2.25,1.15 4.24,2.83 5.94,5.07 1.71,2.2 3.01,5.11 3.91,8.72l17.75 73.97 9.62 0c0.81,0 1.51,0.3 2.11,0.9 0.6,0.6 0.9,1.3 0.9,2.1l0 34.59c0,0.81 -0.3,1.5 -0.9,2.11 -0.6,0.6 -1.3,0.9 -2.11,0.9l-19.7 0c-0.81,0 -1.5,-0.3 -2.11,-0.9 -0.6,-0.61 -0.9,-1.3 -0.9,-2.11l0 -15.19 -58.65 0 0 15.19c0,0.81 -0.3,1.5 -0.9,2.11 -0.6,0.6 -1.3,0.9 -2.11,0.9l-19.7 0c-0.81,0 -1.5,-0.3 -2.11,-0.9 -0.6,-0.61 -0.9,-1.3 -0.9,-2.11l0 -34.59zm38.2 -3l33.08 0 -14.44 -66.93c-0.2,-0.81 -0.4,-1.38 -0.6,-1.74 -0.2,-0.35 -0.66,-0.53 -1.35,-0.53 -1.11,0 -1.81,0.75 -2.11,2.26l-14.59 66.93zm167.23 -24.52c0,8.72 -1.15,16.14 -3.45,22.26 -2.31,6.12 -5.44,11.11 -9.45,14.96 -4.01,3.86 -8.72,6.67 -14.11,8.42 -5.42,1.75 -11.21,2.64 -17.43,2.64 -6.21,0 -12.01,-0.88 -17.42,-2.64 -5.38,-1.75 -10.1,-4.56 -14.11,-8.42 -4.01,-3.86 -7.15,-8.85 -9.45,-14.96 -2.31,-6.12 -3.46,-13.54 -3.46,-22.26l0 -17.9c0,-8.72 1.15,-16.14 3.46,-22.26 2.31,-6.12 5.44,-11.11 9.45,-14.96 4.01,-3.86 8.72,-6.67 14.11,-8.42 5.41,-1.75 11.21,-2.64 17.42,-2.64 6.22,0 12.01,0.88 17.43,2.64 5.38,1.75 10.1,4.56 14.11,8.42 4.01,3.86 7.15,8.85 9.45,14.96 2.3,6.12 3.45,13.54 3.45,22.26l0 17.9zm-25.71 -17.94c0,-9.15 -1.53,-15.74 -4.59,-19.78 -3.06,-4.03 -7.75,-6.04 -14.07,-6.04 -6.31,0 -10.97,2.01 -13.99,6.04 -3,4.04 -4.51,10.63 -4.51,19.78l0 17.99c0,9.15 1.51,15.75 4.51,19.78 3.01,4.03 7.67,6.04 13.99,6.04 6.32,0 11.01,-2.01 14.07,-6.04 3.06,-4.03 4.59,-10.63 4.59,-19.78l0 -17.99zm146.03 62.76c0,0.81 -0.27,1.35 -0.83,1.66 -0.55,0.3 -1.13,0.45 -1.73,0.45l-19.86 0c-0.69,0 -1.28,-0.3 -1.73,-0.91 -0.45,-0.6 -0.68,-1.3 -0.68,-2.1l0 -62.71c0,-0.81 -0.25,-1.2 -0.75,-1.2 -0.4,0 -0.81,0.35 -1.21,1.05l-13.54 24.81c-1,1.71 -2.5,2.56 -4.51,2.56l-12.03 0c-2.01,0 -3.51,-0.85 -4.51,-2.56l-13.54 -24.81c-0.4,-0.7 -0.81,-1.05 -1.21,-1.05 -0.5,0 -0.75,0.39 -0.75,1.2l0 62.71c0,0.8 -0.23,1.5 -0.68,2.1 -0.45,0.61 -1.03,0.91 -1.73,0.91l-19.86 0c-0.6,0 -1.17,-0.15 -1.73,-0.45 -0.55,-0.31 -0.83,-0.85 -0.83,-1.66l0 -104.52c0,-1.6 0.5,-2.86 1.5,-3.76 1,-0.9 2.31,-1.35 3.91,-1.35l14.14 0c3.01,0 5.22,1.35 6.61,4.06l23.02 42.86c0.6,1.3 1.15,1.96 1.65,1.96 0.4,0 0.96,-0.66 1.65,-1.96l23.02 -42.86c1.4,-2.71 3.6,-4.06 6.61,-4.06l14.14 0c1.6,0 2.91,0.47 3.91,1.43 1,0.95 1.5,2.23 1.5,3.84l0 104.37z"/>
  </g>
 </g>
</svg>
