<?xml version="1.0" encoding="UTF-8"?>
<!DOCTYPE svg PUBLIC "-//W3C//DTD SVG 1.1//EN" "http://www.w3.org/Graphics/SVG/1.1/DTD/svg11.dtd">
<!-- Creator: CorelDRAW 2019 (64-Bit) -->
<svg xmlns="http://www.w3.org/2000/svg" xml:space="preserve" width="1.9474mm" height="1.9474mm" version="1.1" style="shape-rendering:geometricPrecision; text-rendering:geometricPrecision; image-rendering:optimizeQuality; fill-rule:evenodd; clip-rule:evenodd"
viewBox="0 0 3.49 3.49"
 xmlns:xlink="http://www.w3.org/1999/xlink">
 <defs>
  <style type="text/css">
   <![CDATA[
    .fil0 {fill:#FEFEFE}
   ]]>
  </style>
 </defs>
 <g id="Слой_x0020_1">
  <metadata id="CorelCorpID_0Corel-Layer"/>
  <path class="fil0" d="M1.01 0l1.47 0c0.56,0 1.01,0.46 1.01,1.01l0 1.47c0,0.56 -0.46,1.01 -1.01,1.01l-0.16 0 0 -1.35 0.45 0 0.07 -0.53 -0.52 0 0 -0.34c0,-0.15 0.04,-0.26 0.26,-0.26l0.28 -0 0 -0.47c-0.05,-0.01 -0.21,-0.02 -0.41,-0.02 -0.4,0 -0.68,0.25 -0.68,0.7l0 0.39 -0.46 0 0 0.53 0.46 0 0 1.35 -0.77 0c-0.56,0 -1.01,-0.46 -1.01,-1.01l0 -1.47c0,-0.56 0.46,-1.01 1.01,-1.01z"/>
 </g>
</svg>
