<?xml version="1.0" encoding="UTF-8"?>
<!DOCTYPE svg PUBLIC "-//W3C//DTD SVG 1.1//EN" "http://www.w3.org/Graphics/SVG/1.1/DTD/svg11.dtd">
<!-- Creator: CorelDRAW 2019 (64-Bit) -->
<svg xmlns="http://www.w3.org/2000/svg" xml:space="preserve" width="1.9473mm" height="1.9474mm" version="1.1" style="shape-rendering:geometricPrecision; text-rendering:geometricPrecision; image-rendering:optimizeQuality; fill-rule:evenodd; clip-rule:evenodd"
viewBox="0 0 3.3 3.3"
 xmlns:xlink="http://www.w3.org/1999/xlink">
 <defs>
  <style type="text/css">
   <![CDATA[
    .fil0 {fill:#FEFEFE}
   ]]>
  </style>
 </defs>
 <g id="Слой_x0020_1">
  <metadata id="CorelCorpID_0Corel-Layer"/>
  <path class="fil0" d="M0.96 0l1.39 0c0.53,0 0.96,0.43 0.96,0.96l0 1.39c0,0.53 -0.43,0.96 -0.96,0.96l-1.39 0c-0.53,0 -0.96,-0.43 -0.96,-0.96l0 -1.39c0,-0.53 0.43,-0.96 0.96,-0.96zm1.57 0.57c0.11,0 0.2,0.09 0.2,0.2 0,0.11 -0.09,0.2 -0.2,0.2 -0.11,0 -0.2,-0.09 -0.2,-0.2 0,-0.11 0.09,-0.2 0.2,-0.2zm-0.88 0.23c0.47,0 0.85,0.38 0.85,0.85 0,0.47 -0.38,0.85 -0.85,0.85 -0.47,0 -0.85,-0.38 -0.85,-0.85 0,-0.47 0.38,-0.85 0.85,-0.85zm0 0.29c0.31,0 0.56,0.25 0.56,0.56 0,0.31 -0.25,0.56 -0.56,0.56 -0.31,0 -0.56,-0.25 -0.56,-0.56 0,-0.31 0.25,-0.56 0.56,-0.56zm-0.69 -0.79l1.39 0c0.36,0 0.65,0.29 0.65,0.65l0 1.39c0,0.36 -0.29,0.65 -0.65,0.65l-1.39 0c-0.36,0 -0.65,-0.29 -0.65,-0.65l0 -1.39c0,-0.36 0.29,-0.65 0.65,-0.65z"/>
 </g>
</svg>
