<?xml version="1.0" encoding="UTF-8"?>
<!DOCTYPE svg PUBLIC "-//W3C//DTD SVG 1.1//EN" "http://www.w3.org/Graphics/SVG/1.1/DTD/svg11.dtd">
<!-- Creator: CorelDRAW 2019 (64-Bit) -->
<svg xmlns="http://www.w3.org/2000/svg" xml:space="preserve" width="100%" height="100%" version="1.1" style="shape-rendering:geometricPrecision; text-rendering:geometricPrecision; image-rendering:optimizeQuality; fill-rule:evenodd; clip-rule:evenodd"
viewBox="0 0 188.19 187.1"
 xmlns:xlink="http://www.w3.org/1999/xlink">
 <defs>
  <style type="text/css">
   <![CDATA[
    .fil0 {fill:#2C2F47;fill-rule:nonzero}
   ]]>
  </style>
 </defs>
 <g id="Слой_x0020_1">
  <metadata id="CorelCorpID_0Corel-Layer"/>
  <g id="_1769651520256">
   <path class="fil0" d="M39.32 128.86l0 -1.45c-1.54,-0.22 -2.49,-0.97 -3.41,-3.29 -0.95,-2.55 -1.69,-5.01 -2.2,-6.33 -1.1,-2.9 -2.46,-4 -4.29,-4.57l0 -0.13c0.51,-0.4 2.05,-1.67 3.19,-4.75 1.51,-4.04 2.13,-4.74 3.45,-4.74l0.66 0c0.63,0 1.39,-0.53 1.39,-1.49 0,-1.19 -0.77,-2.02 -2.05,-2.02 -1.65,0 -2.72,1.28 -3.74,4.31 -1.17,3.51 -1.84,5.14 -2.83,6.46 -1.1,1.36 -2.31,1.84 -3.89,1.84l0 -6.15c0,-3.87 0.26,-4.17 2.68,-4.44l0 -1.45 -10.02 0 0 1.45c2.46,0.26 2.72,0.57 2.72,4.44l0 16.39c0,3.91 -0.26,4.22 -2.72,4.48l0 1.45 10.02 0 0 -1.45c-2.42,-0.26 -2.68,-0.57 -2.68,-4.52l0 -8.61c1.8,-0.04 2.64,1.05 3.56,4.44 0.7,2.55 1.32,4.92 1.76,6.15 0.92,2.68 1.91,4 4.44,4l3.96 0zm11.74 -28.77c-7.38,0 -10.86,7.6 -10.86,14.76 0,8.35 4.15,14.58 10.53,14.58 6.06,0 10.68,-5.62 10.68,-14.89 0,-8.7 -4.44,-14.45 -10.35,-14.45zm-0.48 1.71c3.49,0 5.47,5.36 5.47,13.88 0,7.91 -1.95,12.04 -4.73,12.04 -3.89,0 -5.8,-6.33 -5.8,-13.79 0,-6.98 1.94,-12.12 5.07,-12.12zm34.79 27.06l0 -1.45c-1.54,-0.22 -2.5,-0.97 -3.41,-3.29 -0.95,-2.55 -1.69,-5.01 -2.2,-6.33 -1.1,-2.9 -2.46,-4 -4.29,-4.57l0 -0.13c0.51,-0.4 2.06,-1.67 3.19,-4.75 1.5,-4.04 2.13,-4.74 3.45,-4.74l0.66 0c0.62,0 1.39,-0.53 1.39,-1.49 0,-1.19 -0.77,-2.02 -2.05,-2.02 -1.65,0 -2.72,1.28 -3.74,4.31 -1.18,3.51 -1.84,5.14 -2.83,6.46 -1.1,1.36 -2.31,1.84 -3.89,1.84l0 -6.15c0,-3.87 0.26,-4.17 2.68,-4.44l0 -1.45 -10.02 0 0 1.45c2.46,0.26 2.72,0.57 2.72,4.44l0 16.39c0,3.91 -0.26,4.22 -2.72,4.48l0 1.45 10.02 0 0 -1.45c-2.42,-0.26 -2.68,-0.57 -2.68,-4.52l0 -8.61c1.8,-0.04 2.64,1.05 3.56,4.44 0.7,2.55 1.32,4.92 1.76,6.15 0.92,2.68 1.91,4 4.44,4l3.96 0zm40.19 0l0 -1.45c-1.54,-0.22 -2.46,-0.79 -3.38,-3.34 -0.99,-2.55 -1.73,-5.05 -2.28,-6.37 -1.14,-2.81 -2.39,-3.91 -4.22,-4.52l0 -0.13c0.51,-0.31 2.09,-1.41 3.34,-4.7 1.28,-3.47 1.94,-4.83 3.23,-4.83l0.7 0c0.66,0 1.39,-0.53 1.39,-1.49 0,-1.19 -0.77,-1.93 -2.02,-1.93 -1.61,0 -2.75,1.23 -3.74,4.31 -1.14,3.56 -1.84,5.23 -2.83,6.46 -1.1,1.36 -2.09,1.76 -3.74,1.8l0 -6.11c0,-3.82 0.26,-4.17 2.6,-4.44l0 -1.45 -9.87 0 0 1.45c2.35,0.26 2.64,0.62 2.64,4.44l0 6.11c-1.73,-0.04 -2.61,-0.44 -3.71,-1.8 -1.03,-1.23 -1.69,-2.81 -2.9,-6.55 -0.99,-3.03 -2.09,-4.22 -3.63,-4.22 -1.32,0 -2.09,0.75 -2.09,1.93 0,0.97 0.62,1.49 1.39,1.49l0.59 0c1.21,0 1.91,1.1 3.3,4.83 1.29,3.3 2.79,4.39 3.34,4.7l0.04 0.13c-1.87,0.62 -3.08,1.71 -4.22,4.52 -0.55,1.32 -1.29,3.82 -2.28,6.37 -0.92,2.55 -1.87,3.12 -3.38,3.34l0 1.45 3.85 0c2.5,0 3.45,-1.32 4.37,-4 0.4,-1.27 1.06,-3.65 1.73,-6.19 0.95,-3.56 1.94,-4.31 3.6,-4.26l0 8.44c0,3.95 -0.26,4.31 -2.64,4.57l0 1.45 9.87 0 0 -1.45c-2.39,-0.26 -2.6,-0.61 -2.6,-4.57l0 -8.44c1.65,-0.04 2.49,0.75 3.45,4.26 0.66,2.55 1.32,4.92 1.76,6.19 0.92,2.68 1.91,4 4.44,4l3.89 0zm23.6 0l0 -1.45c-2.02,-0.26 -2.46,-0.75 -3.6,-4.66 -2.24,-7.56 -4.22,-15.07 -6.39,-22.67l-1.73 0.48 -6.9 22.75c-0.99,3.34 -1.54,3.82 -3.63,4.09l0 1.45 7.6 0 0 -1.45c-2.46,-0.39 -2.61,-0.92 -2.06,-3.25 0.4,-1.71 0.81,-3.16 1.1,-4.26l6.28 0c0.44,1.45 0.88,3.21 1.21,4.52 0.59,2.15 0.4,2.68 -1.54,2.99l0 1.45 9.65 0zm-9.91 -11.2l-5.14 0c0.88,-3.16 1.62,-6.28 2.57,-9.53l0.11 0 2.46 9.53zm12.92 -17l0 1.45c2.28,0.31 2.53,0.66 2.53,4.26l0 16.96c0,3.6 -0.26,3.95 -2.72,4.26l0 1.27 10.42 0 0 -1.27c-2.86,-0.31 -3.08,-0.66 -3.08,-4.26l0 -6.19 2.13 0.7c0.4,0 0.77,0 1.28,-0.09 3.85,-0.57 7.19,-3.3 7.19,-9.01 0,-2.94 -0.99,-5.14 -2.64,-6.46 -1.43,-1.14 -3.23,-1.63 -6.06,-1.63l-9.06 0zm7.16 3.38c0,-0.7 0.07,-1.18 0.37,-1.4 0.22,-0.22 0.55,-0.4 1.17,-0.4 1.91,0 4.04,1.54 4.04,6.68 0,5.93 -2.79,6.94 -3.85,6.94 -0.7,0 -1.25,-0.18 -1.72,-0.4l0 -11.42z"/>
   <g>
    <path class="fil0" d="M42.89 144.51l0.09 -0.34 0.38 -0.41c0.02,-0.02 0.03,-0.04 0.03,-0.06l0 -0.09c0,-0.15 0.16,-0.32 0.47,-0.5 0.02,-0.25 0.2,-0.44 0.52,-0.56l0.08 -0.06 0 -0.12c0,-0.16 0.11,-0.25 0.33,-0.31 0.22,-0.05 0.38,-0.14 0.51,-0.29 0.18,-0.04 0.47,-0.25 0.86,-0.65 0.04,-0.08 0.09,-0.12 0.15,-0.12l0.35 -0.03c0.29,-0.31 0.48,-0.48 0.56,-0.49 0.08,-0.01 0.17,-0.04 0.26,-0.1 0.09,-0.06 0.22,-0.11 0.39,-0.13 0.05,-0.07 0.41,-0.28 1.08,-0.62l0.32 0c0.04,0 0.11,-0.04 0.2,-0.12 0.1,-0.08 0.24,-0.13 0.44,-0.17 0.2,-0.03 0.46,-0.1 0.79,-0.21 0.33,-0.1 0.59,-0.18 0.8,-0.22l0.28 -0.15 0.47 0 0.15 -0.13 0.96 -0.12 0.97 -0.23 0.28 0.03 0.2 -0.03 0.33 0.07c0.04,0 0.11,-0.02 0.21,-0.07 0.09,-0.05 0.18,-0.07 0.26,-0.07 0.31,0 0.58,0.04 0.83,0.1 0.25,0.07 0.44,0.12 0.57,0.13 0.13,0.02 0.24,0.05 0.32,0.08 0.08,0.04 0.13,0.06 0.16,0.06l0.39 -0.03c0.02,0 0.06,0.04 0.13,0.11 0.06,0.07 0.16,0.13 0.28,0.17l0.28 0c0.02,0.02 0.05,0.03 0.09,0.03 0.13,0.1 0.34,0.23 0.65,0.38 0.22,0.17 0.34,0.26 0.35,0.28 0.08,-0.03 0.39,0.18 0.94,0.64 0.55,0.46 0.9,0.8 1.05,1.05l0.32 0.41 0.16 0.39 0.15 0.26c0.16,0.41 0.31,0.9 0.44,1.46l0.12 0.31c0.02,0.02 0.03,0.06 0.03,0.13l-0.09 0.43 0.12 0.56c0,0.13 -0.04,0.3 -0.12,0.53 0.04,0.1 0.06,0.16 0.06,0.18 0,0.02 -0.04,0.18 -0.12,0.48 -0.08,0.3 -0.13,0.47 -0.13,0.52l0.06 0.31c0,0.04 -0.04,0.1 -0.13,0.19 -0.08,0.09 -0.13,0.15 -0.13,0.19 0,0.13 -0.04,0.26 -0.1,0.38 -0.07,0.13 -0.12,0.2 -0.14,0.24l-0.25 0.42c-0.04,0.15 -0.09,0.24 -0.16,0.26 -0.06,0.02 -0.09,0.09 -0.09,0.21 -0.02,0.02 -0.09,0.08 -0.21,0.18l-0.15 0.23 -0.62 0.65c-0.06,0.22 -0.3,0.48 -0.73,0.77l-0.18 0.18c-0.54,0.45 -0.88,0.71 -1,0.79 -0.13,0.08 -0.22,0.18 -0.31,0.28 -0.08,0.1 -0.21,0.2 -0.39,0.31 -0.03,0.05 -0.16,0.16 -0.38,0.32l-0.21 -0.03c-0.07,0.12 -0.16,0.21 -0.26,0.26 -0.1,0.05 -0.18,0.1 -0.23,0.14 -0.05,0.04 -0.09,0.06 -0.11,0.06 -0.02,0 -0.06,-0.01 -0.13,-0.03 -0.1,0.16 -0.24,0.26 -0.42,0.34 -0.18,0.07 -0.31,0.13 -0.4,0.2 -0.09,0.06 -0.15,0.09 -0.17,0.09l-0.24 -0.09c0,0.22 -0.08,0.34 -0.24,0.36 -0.17,0.02 -0.3,0.07 -0.41,0.14l-0.32 -0.03c-0.37,0.37 -0.91,0.56 -1.61,0.56 -0.13,0.16 -0.22,0.24 -0.26,0.24l-0.27 -0.06c-0.08,0.04 -0.16,0.06 -0.21,0.06 -0.05,0 -0.24,0.05 -0.56,0.15 -0.12,-0.08 -0.27,-0.12 -0.44,-0.12l0.03 0.25c0,0.1 -0.13,0.16 -0.41,0.16 -0.1,0 -0.21,-0.03 -0.34,-0.09 -0.12,0.04 -0.2,0.06 -0.23,0.06 -0.06,0 -0.1,-0.04 -0.13,-0.12 -0.03,-0.08 -0.06,-0.11 -0.08,-0.11 -0.2,0.33 -0.55,0.5 -1.06,0.5 -0.05,0 -0.34,0.06 -0.87,0.2l-0.18 0.03c-0.04,0 -0.08,-0.01 -0.12,-0.03l-0.26 -0.03c-0.04,0 -0.12,-0.03 -0.24,-0.08 -0.06,0.11 -0.12,0.17 -0.16,0.17 -0.19,0 -0.43,0.03 -0.71,0.09 -0.09,-0.05 -0.3,-0.09 -0.63,-0.11 -0.33,-0.03 -0.53,-0.08 -0.62,-0.18l-0.03 0c-0.02,0 -0.06,0.01 -0.11,0.03l-0.06 0c-0.04,0 -0.09,-0.02 -0.15,-0.05 -0.06,-0.03 -0.16,-0.05 -0.3,-0.07 -0.13,-0.02 -0.28,-0.13 -0.42,-0.33 -0.14,-0.2 -0.21,-0.36 -0.21,-0.51 0,-0.19 0.08,-0.37 0.24,-0.53 0.16,-0.16 0.33,-0.24 0.5,-0.24 0.08,0 0.19,0.03 0.33,0.09l0.17 0 0.24 0.03 0.09 -0.03c-0.04,-0.14 -0.06,-0.22 -0.06,-0.23 0,-0.3 0.11,-0.56 0.32,-0.77l0.21 -0.59c0.02,-0.04 0.08,-0.1 0.18,-0.17 0.1,-0.07 0.15,-0.17 0.15,-0.29l0.14 -0.32 0.03 -0.21 0.15 -0.21c0.08,-0.11 0.13,-0.22 0.15,-0.32 0.02,-0.1 0.09,-0.17 0.21,-0.21 0,-0.21 0.07,-0.38 0.22,-0.51 0.15,-0.13 0.22,-0.23 0.22,-0.31 0,-0.2 0.07,-0.31 0.21,-0.33 0.05,-0.04 0.08,-0.08 0.08,-0.12 0,-0.04 -0.03,-0.11 -0.08,-0.2 0.07,-0.2 0.17,-0.32 0.3,-0.34 0.13,-0.02 0.21,-0.03 0.24,-0.06 -0.08,-0.02 -0.13,-0.07 -0.13,-0.16 0,-0.09 0.03,-0.18 0.09,-0.25l0.15 -0.39c0.05,-0.13 0.18,-0.26 0.38,-0.38 -0.06,-0.06 -0.09,-0.11 -0.09,-0.16 0,-0.02 0.03,-0.06 0.09,-0.12l0.21 0.06c0,-0.02 0.01,-0.03 0.03,-0.03l0.03 -0.35 -0.03 -0.21c0,-0.02 0.11,-0.08 0.35,-0.2l0.06 -0.15c-0.14,0 -0.28,-0.02 -0.41,-0.06 -0.2,0.08 -0.34,0.16 -0.43,0.21 -0.02,0.03 -0.1,0.05 -0.25,0.05l-0.09 0c-0.02,0 -0.11,-0.03 -0.28,-0.08 -0.04,0.02 -0.08,0.07 -0.13,0.15 -0.04,0.08 -0.08,0.11 -0.1,0.11l-0.46 -0.15c-0.04,0 -0.12,0.06 -0.23,0.17 -0.12,0.11 -0.23,0.17 -0.33,0.17 -0.05,0 -0.13,-0.03 -0.26,-0.09 -0.08,0.06 -0.28,0.09 -0.58,0.09 -0.13,0 -0.27,0.03 -0.41,0.09l-0.24 -0.03 -0.2 0.03c-0.04,0 -0.19,-0.09 -0.46,-0.28 -0.15,0.04 -0.25,0.06 -0.29,0.06l-0.24 -0.12c-0.16,-0.08 -0.29,-0.13 -0.39,-0.14 -0.09,-0.01 -0.19,-0.04 -0.27,-0.07 -0.09,-0.04 -0.13,-0.07 -0.15,-0.07 -0.01,-0.01 -0.06,-0.05 -0.13,-0.14 -0.08,-0.09 -0.18,-0.16 -0.28,-0.2 -0.1,-0.03 -0.16,-0.12 -0.16,-0.25l-0.06 -0.68c0,-0.06 0.03,-0.14 0.07,-0.24 0.05,-0.1 0.08,-0.19 0.08,-0.28 0,-0.13 0.08,-0.24 0.24,-0.32zm3.62 1.51l0.06 0c0.16,0 0.24,0.07 0.24,0.2 0,0.04 -0.02,0.09 -0.06,0.15 0.04,0.02 0.07,0.03 0.09,0.03 0.04,0 0.11,-0.08 0.21,-0.23 0.1,-0.16 0.36,-0.24 0.79,-0.24 0.02,0 0.05,0.01 0.08,0.03 0.03,0.02 0.05,0.03 0.07,0.03 0.02,0 0.07,-0.03 0.14,-0.09 0.07,-0.06 0.12,-0.09 0.17,-0.09l0.68 -0.15c0.65,-0.1 0.97,-0.23 0.97,-0.38l-0.03 -0.21c0.04,-0.08 0.13,-0.21 0.29,-0.37 0.14,-0.17 0.22,-0.34 0.22,-0.52l0.09 -0.35 0 -0.15c0,-0.27 0.19,-0.44 0.56,-0.5l0 -0.03 -0.15 -0.47 0.03 -0.06c0.15,-0.07 0.21,-0.12 0.21,-0.15 0,-0.02 -0.05,-0.08 -0.15,-0.19 -0.09,-0.11 -0.14,-0.42 -0.14,-0.93 0,-0.29 0.17,-0.44 0.5,-0.44 0.43,0 0.82,0.19 1.17,0.58 0.34,0.38 0.52,0.81 0.52,1.29 0,0.36 -0.18,0.89 -0.53,1.6l-0.09 0.33 0.24 0 0.38 -0.06 0.27 0.03c0.13,0 0.28,-0.04 0.46,-0.12 0.17,-0.08 0.33,-0.13 0.48,-0.16 0.15,-0.02 0.29,-0.08 0.43,-0.18 0.29,-0.07 0.54,-0.12 0.75,-0.15 0.21,-0.03 0.4,-0.09 0.58,-0.2l0.08 0c0.02,0 0.06,0.04 0.12,0.12l0.03 0c0.02,0 0.05,-0.01 0.09,-0.03 0.06,-0.14 0.2,-0.25 0.4,-0.33 0.21,-0.08 0.34,-0.16 0.4,-0.24l0.26 -0.27c0,-0.02 0.16,-0.13 0.49,-0.33 0.33,-0.2 0.57,-0.3 0.73,-0.3 0.32,0 0.5,0.12 0.56,0.36l0.09 0.26 0 0.03c0,0.25 -0.2,0.57 -0.6,0.93 -0.4,0.37 -0.93,0.63 -1.59,0.79 -0.65,0.16 -1.05,0.24 -1.2,0.24 -0.06,0 -0.12,-0.05 -0.18,-0.16l-0.32 0.09 -0.09 0.15c0,0.02 -0.02,0.03 -0.06,0.03l-0.19 -0.12 -0.06 0c-0.1,0.09 -0.29,0.18 -0.57,0.27 -0.28,0.09 -0.49,0.17 -0.64,0.22l-0.31 0c-0.16,0 -0.38,0.05 -0.66,0.15l-0.27 0.03c-0.35,0.06 -0.55,0.1 -0.59,0.12 -0.04,0.02 -0.12,0.16 -0.23,0.41l-0.38 0.83c-0.05,0.12 -0.14,0.28 -0.26,0.47l-0.23 0.36c-0.02,0 -0.03,0.01 -0.03,0.03l0.08 0.23 0 0.03c-0.63,0.83 -1.06,1.56 -1.29,2.18 -0.23,0.62 -0.49,1.18 -0.77,1.67 -0.28,0.5 -0.45,0.84 -0.52,1.04 -0.07,0.19 -0.14,0.34 -0.2,0.45 -0.06,0.11 -0.09,0.18 -0.09,0.2 0,0.05 0.03,0.08 0.09,0.08l0.12 0c0.11,-0.09 0.22,-0.14 0.33,-0.15 0.12,-0.01 0.23,-0.03 0.35,-0.05l0.17 0.06 0.24 0c0.01,0 0.1,-0.05 0.26,-0.16l0.12 0.03 0.28 -0.03 0.26 0.03c0.02,0 0.05,-0.02 0.1,-0.05 0.05,-0.03 0.12,-0.05 0.2,-0.06 0.08,-0.01 0.14,-0.03 0.18,-0.06 0.04,-0.03 0.07,-0.05 0.09,-0.05l0.13 0.03c0.02,0.02 0.04,0.03 0.06,0.03 0.06,0 0.12,-0.08 0.18,-0.24l0.27 0.09c0,-0.16 0.05,-0.23 0.13,-0.23 0.28,0 0.45,-0.01 0.49,-0.03l0.17 0.03 0.03 0c0.02,0 0.08,-0.03 0.18,-0.09l1.66 -0.62c0.12,-0.02 0.35,-0.15 0.68,-0.39l0.3 -0.13c0.21,-0.1 0.35,-0.18 0.41,-0.24 0.06,-0.06 0.11,-0.09 0.16,-0.09 0.29,0 0.49,-0.13 0.59,-0.38 0.04,-0.02 0.12,-0.08 0.24,-0.18l0.15 -0.03c0.15,-0.04 0.32,-0.13 0.5,-0.28l0.28 -0.23c0.06,-0.06 0.18,-0.1 0.34,-0.12 0.37,-0.46 0.64,-0.72 0.8,-0.8l0.23 -0.13c0.02,-0.17 0.09,-0.3 0.21,-0.41 0.12,-0.1 0.2,-0.21 0.23,-0.34 0.04,-0.13 0.09,-0.19 0.18,-0.19l0.09 0c0.04,0 0.06,-0.02 0.06,-0.06l-0.03 -0.27c0,-0.18 0.1,-0.26 0.3,-0.26l0 -0.09 -0.03 -0.24 0 -0.03c0,-0.18 0.08,-0.28 0.24,-0.34 0.15,-0.05 0.23,-0.14 0.23,-0.28 0,-0.11 -0.02,-0.23 -0.05,-0.35 -0.03,-0.12 -0.04,-0.19 -0.04,-0.21 0,-0.19 0.13,-0.35 0.41,-0.47l0.03 -0.06c0,-0.02 -0.04,-0.06 -0.11,-0.13 -0.07,-0.06 -0.11,-0.12 -0.11,-0.18 0,-0.03 0.02,-0.09 0.06,-0.2 0.04,-0.1 0.06,-0.16 0.06,-0.18 0,-0.02 -0.03,-0.07 -0.08,-0.15 -0.05,-0.08 -0.07,-0.16 -0.07,-0.23 0,-0.08 0.03,-0.18 0.09,-0.31 0.06,-0.12 0.09,-0.2 0.09,-0.24 0,-0.09 -0.01,-0.17 -0.03,-0.22 -0.12,-0.06 -0.18,-0.13 -0.18,-0.22l0 -0.06 0.03 -0.12 -0.03 -0.2 0.06 -0.18c-0.06,-0.18 -0.11,-0.36 -0.16,-0.54 -0.04,-0.18 -0.11,-0.32 -0.2,-0.43 -0.1,-0.1 -0.15,-0.18 -0.15,-0.22l0 -0.03 0.08 -0.21c0,-0.02 -0.04,-0.04 -0.11,-0.06 -0.51,-0.68 -1.2,-1.21 -2.05,-1.56 -0.85,-0.36 -1.29,-0.53 -1.31,-0.53l-0.33 0.03c-0.17,-0.08 -0.27,-0.12 -0.29,-0.12l-0.15 0.03c-0.02,0.02 -0.04,0.03 -0.06,0.03 -0.04,0 -0.13,-0.04 -0.27,-0.12l-0.38 0.03 -0.38 -0.03c-0.47,-0.04 -0.85,-0.02 -1.13,0.06l-1.21 0.2c-0.04,0 -0.21,0.05 -0.5,0.15 -0.16,0.1 -0.49,0.2 -1,0.31l-0.36 0c-0.02,0 -0.08,0.05 -0.18,0.15 -0.1,0.1 -0.43,0.23 -0.97,0.38 -0.14,0.14 -0.26,0.22 -0.36,0.25 -0.09,0.03 -0.16,0.06 -0.2,0.11 -0.04,0.05 -0.08,0.08 -0.12,0.08l-0.21 0c-0.11,0 -0.23,0.08 -0.36,0.24 -0.13,0.16 -0.43,0.35 -0.91,0.56l-0.17 0.15 -0.31 0.17c-0.06,0.02 -0.11,0.06 -0.15,0.13l-0.06 0.06c-0.25,0.07 -0.42,0.19 -0.48,0.35 -0.07,0.16 -0.17,0.25 -0.28,0.28 -0.11,0.03 -0.19,0.11 -0.22,0.23 -0.03,0.13 -0.11,0.22 -0.23,0.31 -0.12,0.08 -0.32,0.32 -0.59,0.71 -0.28,0.39 -0.41,0.67 -0.41,0.85 0,0.13 0.06,0.32 0.18,0.56 0.12,0.24 0.29,0.37 0.53,0.37 0.19,0 0.34,0.02 0.44,0.07 0.1,0.05 0.19,0.07 0.28,0.07 0.33,0 0.61,-0.07 0.82,-0.2zm18.26 4.02l0.32 -0.26c0.24,-0.02 0.38,-0.15 0.39,-0.38 0.02,-0.23 0.19,-0.44 0.5,-0.61l0.18 -0.26c0.16,-0.15 0.57,-0.35 1.25,-0.59 0.17,-0.1 0.29,-0.19 0.35,-0.28 0.02,-0.02 0.04,-0.03 0.06,-0.03l0.24 0.06c0.13,0 0.3,-0.03 0.51,-0.11 0.21,-0.07 0.41,-0.1 0.6,-0.1l0.64 -0.03c0.04,0 0.12,0.03 0.25,0.09 0.12,0.06 0.28,0.09 0.46,0.09 0.22,0 0.43,0.1 0.62,0.31 0.19,0.2 0.28,0.39 0.28,0.56 0,0.32 -0.16,0.63 -0.49,0.96 -0.33,0.32 -0.58,0.5 -0.78,0.54 -0.17,0.17 -0.3,0.28 -0.4,0.33 -0.09,0.05 -0.18,0.12 -0.28,0.21 -0.1,0.1 -0.18,0.14 -0.24,0.14 -0.04,0 -0.07,-0.01 -0.09,-0.04 -0.02,-0.03 -0.05,-0.04 -0.09,-0.04 -0.16,0 -0.34,0.2 -0.53,0.6l-0.28 -0.03c-0.17,0.11 -0.28,0.23 -0.33,0.36 -0.05,0.13 -0.16,0.2 -0.32,0.2 -0.38,0.38 -0.63,0.56 -0.76,0.56 -0.02,0 -0.09,-0.02 -0.21,-0.06 -0.08,0.1 -0.13,0.21 -0.13,0.32 0,0.12 -0.08,0.2 -0.24,0.21l-0.2 0.19 -0.16 -0.03 -0.3 0.32c-0.16,0 -0.31,0.05 -0.48,0.16 -0.02,0.12 -0.05,0.28 -0.09,0.46 -0.04,0.19 -0.06,0.29 -0.06,0.31 0,0.3 0.27,0.44 0.8,0.44l0.73 -0.1c0.19,0 0.37,-0.05 0.54,-0.15 0.17,-0.1 0.35,-0.15 0.54,-0.15 0.06,0 0.16,-0.02 0.28,-0.06l0.15 0.06c0.07,-0.15 0.2,-0.28 0.4,-0.41 0.19,-0.12 0.34,-0.18 0.46,-0.18l0.15 -0.09c0.04,-0.12 0.1,-0.2 0.18,-0.24l0.12 -0.11c0.08,-0.08 0.16,-0.12 0.23,-0.12l0.21 0 0.06 -0.03c0.13,-0.26 0.29,-0.42 0.51,-0.46 0.22,-0.05 0.36,-0.12 0.41,-0.22 0.05,-0.1 0.15,-0.16 0.29,-0.18 0.14,-0.02 0.26,-0.09 0.36,-0.21 0.09,-0.11 0.21,-0.22 0.35,-0.33 0.14,-0.1 0.24,-0.18 0.3,-0.22 0.05,-0.05 0.1,-0.08 0.14,-0.08 0.06,0 0.09,0.05 0.09,0.13 0,0.09 0.02,0.14 0.06,0.14 0.04,0 0.06,-0.02 0.06,-0.06 0,-0.04 -0.01,-0.09 -0.03,-0.15l0 -0.11c0,-0.15 0.08,-0.25 0.24,-0.3l0.68 -0.44c0.02,-0.21 0.08,-0.34 0.18,-0.37 0.1,-0.04 0.17,-0.08 0.22,-0.12 0.05,-0.05 0.1,-0.07 0.17,-0.07 0.13,0 0.2,0.08 0.2,0.23l-0.08 0.39 0.08 0.41c0,0.06 -0.05,0.14 -0.15,0.25 -0.09,0.11 -0.17,0.27 -0.22,0.49 -0.05,0.22 -0.12,0.34 -0.2,0.35l-0.09 0c-0.18,0.2 -0.33,0.31 -0.43,0.34 -0.11,0.04 -0.19,0.1 -0.25,0.19l-0.51 0.59c-0.1,0.1 -0.19,0.19 -0.26,0.27 -0.07,0.08 -0.13,0.12 -0.17,0.12l-0.12 -0.12c0,-0.02 -0.02,-0.03 -0.06,-0.03 -0.1,0 -0.17,0.06 -0.19,0.18 -0.03,0.12 -0.08,0.23 -0.16,0.32 -0.31,0.15 -0.5,0.28 -0.59,0.39l-0.09 0.03 -0.28 0c-0.13,0 -0.22,0.1 -0.27,0.3 -0.05,0.2 -0.2,0.31 -0.43,0.34 -0.24,0.03 -0.4,0.09 -0.51,0.18 -0.02,0.02 -0.07,0.04 -0.13,0.06 -0.07,0.02 -0.21,0.1 -0.43,0.24l-1.27 0.45c-0.1,0.05 -0.17,0.08 -0.2,0.08l-0.42 0.06c-0.06,0 -0.12,-0.04 -0.18,-0.12 -0.06,-0.08 -0.1,-0.12 -0.12,-0.12l-0.28 0.09c-0.2,0.06 -0.39,0.09 -0.58,0.09 -0.1,0 -0.21,-0.03 -0.34,-0.11 -0.12,-0.07 -0.22,-0.12 -0.28,-0.15 -0.3,0 -0.5,-0.23 -0.62,-0.68l-0.18 0.03c-0.04,0 -0.18,-0.36 -0.41,-1.08 -0.06,-0.08 -0.16,-0.14 -0.29,-0.18 -0.13,-0.04 -0.2,-0.13 -0.2,-0.3 0,-0.46 0.1,-0.76 0.29,-0.92 0.2,-0.16 0.31,-0.28 0.33,-0.36l0.21 -0.79c0.04,-0.03 0.09,-0.13 0.15,-0.31l0.35 -0.64c0.04,-0.07 0.13,-0.25 0.28,-0.53zm3.19 -0.91l-0.18 0.09c-0.04,0.02 -0.16,0.11 -0.36,0.26 -0.2,0.16 -0.39,0.28 -0.58,0.38 -0.19,0.1 -0.38,0.35 -0.58,0.76 -0.2,0.4 -0.29,0.64 -0.29,0.69 0,0.06 0.03,0.09 0.09,0.09l0.51 -0.23c0.19,-0.09 0.37,-0.21 0.54,-0.35 0.17,-0.15 0.41,-0.32 0.73,-0.52l0.12 -0.12c0.02,-0.04 0.12,-0.11 0.28,-0.22 0.17,-0.11 0.29,-0.21 0.37,-0.31l0.15 -0.06c0.17,-0.27 0.35,-0.44 0.52,-0.5 0.18,-0.06 0.27,-0.12 0.27,-0.18 0,-0.12 -0.1,-0.18 -0.29,-0.18 -0.08,0 -0.2,0.05 -0.36,0.15l-0.35 0c-0.04,0 -0.15,0.06 -0.33,0.18l-0.26 0.06z"/>
    <path class="fil0" d="M83.39 154.85l0.48 -0.09 0.47 -0.23c0.34,-0.16 0.65,-0.24 0.94,-0.24 0.06,0 0.12,0.03 0.18,0.09l0.68 -0.46c0.3,-0.15 0.59,-0.23 0.9,-0.23 0.02,0 0.09,-0.09 0.2,-0.26 0.11,-0.18 0.22,-0.32 0.33,-0.42l0.33 -0.47c0.24,-0.33 0.4,-0.58 0.47,-0.78l0 -0.15c0,-0.03 0.06,-0.14 0.17,-0.33 0.12,-0.19 0.22,-0.32 0.31,-0.37 0.09,-0.05 0.15,-0.11 0.17,-0.2l0 -0.17c0,-0.04 0.04,-0.12 0.13,-0.26 0.08,-0.13 0.19,-0.25 0.33,-0.35 0.13,-0.11 0.29,-0.33 0.46,-0.66l0.18 -0.21 0.15 -0.09c0.02,-0.02 0.03,-0.06 0.03,-0.12 0,-0.08 -0.01,-0.14 -0.03,-0.2 0.11,-0.1 0.18,-0.19 0.2,-0.27l0.12 -0.41 0.15 -0.09 0 -0.28c0,-0.06 0.08,-0.19 0.24,-0.39 0.16,-0.2 0.33,-0.54 0.51,-1.04l0.47 -0.91 0 -0.06c-0.18,0.08 -0.32,0.15 -0.41,0.21l-0.42 0.23c-0.02,0 -0.11,0.08 -0.28,0.23 -0.17,0.15 -0.32,0.23 -0.46,0.24 -0.25,0.27 -0.52,0.43 -0.8,0.48 -0.27,0.05 -0.47,0.11 -0.59,0.21l-0.18 0.09c-0.04,0 -0.1,0.03 -0.18,0.09 -0.08,0.06 -0.14,0.09 -0.18,0.09 -0.09,0 -0.22,-0.06 -0.38,-0.19l-0.06 0 0 0.12c0,0.16 -0.04,0.25 -0.13,0.28 -0.08,0.02 -0.18,0.05 -0.26,0.08 -0.09,0.04 -0.16,0.05 -0.2,0.05 -0.29,0 -0.46,-0.07 -0.5,-0.22 -0.04,-0.15 -0.09,-0.25 -0.15,-0.3 -0.06,-0.05 -0.09,-0.11 -0.09,-0.18 0,-0.26 0.13,-0.53 0.38,-0.81 0.25,-0.28 0.47,-0.43 0.64,-0.45 0.02,0 0.1,-0.04 0.25,-0.1l0.06 0 0.29 0.07c0.22,0.05 0.35,0.1 0.39,0.16 0.04,0.06 0.09,0.08 0.15,0.08l0.26 -0.03 0.21 0.03c0.04,0 0.13,-0.08 0.25,-0.23 0.13,-0.16 0.29,-0.25 0.49,-0.26 0.48,-0.16 0.97,-0.39 1.49,-0.72 0.04,-0.1 0.13,-0.17 0.26,-0.21l0.18 -0.23c0,-0.04 0.11,-0.09 0.34,-0.16 0.23,-0.06 0.43,-0.25 0.61,-0.54 0.18,-0.3 0.27,-0.47 0.27,-0.51 0,-0.02 -0.01,-0.06 -0.03,-0.12 0.02,-0.04 0.06,-0.07 0.12,-0.09 0.12,-0.42 0.23,-0.65 0.32,-0.7 0.09,-0.06 0.29,-0.25 0.61,-0.57l0 -0.06 -0.06 -0.15 0 -0.06c0,-0.46 0.21,-0.8 0.62,-1.03 0.09,-0.54 0.25,-0.84 0.47,-0.93l0.19 -0.09 -0.06 -0.47c0,-0.08 0.1,-0.14 0.32,-0.18l0.09 -0.05 0.56 -0.98c0.11,-0.21 0.25,-0.32 0.43,-0.32 0.02,0 0.05,0.02 0.08,0.05l0.06 0c0.08,0 0.12,-0.05 0.12,-0.13 0,-0.02 -0.01,-0.05 -0.03,-0.09l0 -0.09c0,-0.22 0.18,-0.47 0.54,-0.76 0.36,-0.29 0.78,-0.43 1.26,-0.43 0.1,0 0.29,0.12 0.58,0.37 0.28,0.25 0.43,0.62 0.43,1.13l-0.18 0.58c0.06,0.23 0.09,0.36 0.09,0.38 0,0.08 -0.08,0.15 -0.24,0.19 -0.02,0.02 -0.03,0.08 -0.03,0.2 0,0.1 -0.03,0.2 -0.07,0.3 -0.05,0.1 -0.09,0.26 -0.13,0.47 -0.02,0 -0.05,0.02 -0.09,0.06l-0.27 0.09c-0.03,0.26 -0.06,0.4 -0.09,0.41l-0.08 0 -0.17 0.06c-0.13,0.04 -0.2,0.1 -0.2,0.18 0,0.02 0.01,0.08 0.03,0.18 0.02,0.02 0.03,0.05 0.03,0.09 0,0.24 -0.25,0.41 -0.74,0.5 0.01,0.17 -0.06,0.3 -0.23,0.42 -0.16,0.12 -0.26,0.21 -0.3,0.3l-0.73 0.73c-0.22,0.22 -0.65,0.51 -1.29,0.87 -0.04,0.07 -0.09,0.2 -0.14,0.39 -0.05,0.19 -0.11,0.33 -0.18,0.41l-0.55 1.28 0 0.12c0,0.1 -0.06,0.2 -0.2,0.29l0 0.21c0,0.04 -0.06,0.17 -0.18,0.38l-0.5 1.23c-0.12,0.25 -0.23,0.46 -0.33,0.62 -0.1,0.16 -0.17,0.32 -0.22,0.49 -0.05,0.17 -0.13,0.32 -0.23,0.45 -0.1,0.13 -0.18,0.26 -0.22,0.39 -0.04,0.13 -0.22,0.22 -0.53,0.28 0.02,0.04 0.06,0.08 0.13,0.12 0.07,0.04 0.11,0.08 0.11,0.12 -0.04,0.07 -0.07,0.13 -0.09,0.17 -0.02,0.04 -0.04,0.12 -0.07,0.23 -0.03,0.12 -0.06,0.21 -0.1,0.28 -0.04,0.07 -0.09,0.13 -0.14,0.19 -0.05,0.06 -0.09,0.12 -0.13,0.19 -0.04,0.07 -0.09,0.12 -0.15,0.16l-0.12 0.32 -0.15 0.13c-0.02,0 -0.03,0.03 -0.03,0.09 0,0.02 0.01,0.05 0.03,0.09 -0.13,0.29 -0.25,0.49 -0.35,0.59 -0.02,0.02 -0.03,0.15 -0.03,0.38 0.18,0 0.3,0.02 0.38,0.06 0.24,-0.11 0.37,-0.17 0.39,-0.17 0.06,0 0.13,0.02 0.22,0.05 0.08,0.04 0.13,0.05 0.15,0.05l0.24 -0.1 0.35 0.1 0.18 -0.03 0.41 0.03 0.24 -0.07 0.25 0.05 0.24 -0.08 0.12 0c0.06,0 0.28,0.04 0.68,0.1l0.03 0c0.04,0 0.14,-0.04 0.29,-0.13l0.03 0c0.04,0 0.11,0.02 0.23,0.05 0.11,0.04 0.2,0.06 0.26,0.06l0.38 -0.05 0.71 0.13 0.18 -0.06c0.02,0 0.05,0.01 0.07,0.03 0.54,0.07 1.13,0.2 1.79,0.4l0.47 0.09c0.02,0.02 0.07,0.03 0.15,0.03 0.1,0 0.23,-0.04 0.38,-0.12 0.51,0.11 0.85,0.23 1.02,0.38 0.02,0.02 0.08,0.06 0.19,0.1 0.11,0.05 0.19,0.11 0.25,0.17 0.06,0.06 0.19,0.15 0.39,0.29 0.2,0.13 0.3,0.3 0.3,0.48 0,0.56 -0.08,0.96 -0.23,1.22 -0.16,0.25 -0.31,0.38 -0.46,0.38 -0.37,0 -0.85,-0.19 -1.43,-0.56 -0.08,-0.12 -0.18,-0.22 -0.29,-0.3 -0.11,-0.08 -0.18,-0.19 -0.2,-0.33l-0.06 -0.06 -0.44 0c-0.04,0 -0.1,-0.03 -0.18,-0.09l-0.31 -0.06c-0.21,-0.11 -0.34,-0.19 -0.38,-0.23 -0.04,-0.04 -0.11,-0.07 -0.21,-0.08 -0.09,-0.01 -0.18,-0.05 -0.26,-0.1 -0.16,-0.01 -0.32,-0.06 -0.49,-0.15l-0.32 0 -0.09 -0.06c-0.03,-0.13 -0.11,-0.2 -0.21,-0.2l-0.13 0 -0.12 -0.03 -0.28 0 -0.23 -0.16 -0.06 0 -0.21 0.09 -0.32 -0.13 -0.21 0.09c-0.36,0 -0.6,-0.03 -0.71,-0.09l-0.24 0.03c-0.11,-0.08 -0.18,-0.12 -0.2,-0.12l-0.8 0.12 -0.34 -0.03 -0.32 0.03 -0.13 -0.09c-0.01,0.03 -0.08,0.08 -0.2,0.15 -0.13,0.06 -0.38,0.13 -0.76,0.2l-0.5 0.09 -0.29 -0.03 -0.19 0.06c-0.17,0.34 -0.36,0.56 -0.56,0.65 -0.04,0 -0.07,0.06 -0.09,0.18 -0.02,0.12 -0.09,0.22 -0.2,0.31 -0.12,0.08 -0.21,0.16 -0.27,0.23 -0.06,0.07 -0.13,0.13 -0.2,0.15 -0.07,0.03 -0.17,0.18 -0.28,0.43 -0.11,0.26 -0.31,0.39 -0.57,0.39l-0.23 -0.06c0.02,0.04 0.05,0.08 0.09,0.13 0.04,0.05 0.06,0.09 0.06,0.13 0,0.18 -0.13,0.27 -0.39,0.27 -0.02,0 -0.09,0.05 -0.22,0.15 -0.12,0.1 -0.29,0.18 -0.49,0.24l-0.12 0.12c-0.05,0.04 -0.14,0.06 -0.28,0.06l-0.89 0.35 -0.03 0 -0.23 -0.05c-0.02,0 -0.06,0.02 -0.12,0.05l-0.3 0c-0.07,0 -0.18,-0.05 -0.32,-0.13l-0.21 0.13c-0.02,-0.03 -0.13,-0.08 -0.35,-0.13 -0.26,0 -0.43,-0.04 -0.52,-0.13 -0.09,-0.08 -0.15,-0.12 -0.19,-0.12l-0.15 -0.06c-0.1,-0.04 -0.22,-0.07 -0.35,-0.08 -0.13,-0.01 -0.33,-0.18 -0.57,-0.5 -0.25,-0.33 -0.37,-0.57 -0.37,-0.73 0,-0.1 0.04,-0.2 0.12,-0.28 0.08,-0.09 0.21,-0.18 0.39,-0.26 0.18,-0.08 0.38,-0.17 0.59,-0.28l0.67 -0.36zm14.29 -15.72l0.44 -0.29c0.08,-0.05 0.27,-0.35 0.57,-0.88 0.3,-0.54 0.45,-0.96 0.45,-1.26 0,-0.08 -0.01,-0.16 -0.03,-0.24 -0.29,0.12 -0.47,0.23 -0.52,0.32 -0.05,0.09 -0.25,0.36 -0.62,0.82 -0.36,0.46 -0.55,0.74 -0.56,0.86 -0.01,0.11 -0.09,0.32 -0.24,0.61 -0.15,0.29 -0.23,0.46 -0.24,0.52 -0.01,0.06 -0.06,0.16 -0.14,0.29 -0.09,0.15 -0.13,0.23 -0.13,0.28 0,0.04 0.02,0.06 0.06,0.06 0.48,-0.43 0.74,-0.71 0.82,-0.84 0.07,-0.13 0.12,-0.22 0.15,-0.23zm-14.52 16.58l-0.56 0.26c-0.12,0.04 -0.18,0.09 -0.18,0.15 0.02,0.02 0.04,0.05 0.06,0.09 0.17,0.04 0.32,0.1 0.43,0.17 0.11,0.08 0.23,0.11 0.36,0.11l0.43 0.09 0.41 -0.03 0.12 0.06c0.04,-0.02 0.17,-0.11 0.38,-0.26 0,-0.02 0.01,-0.03 0.03,-0.03l0.36 0.03c0.06,-0.04 0.13,-0.1 0.23,-0.18 0.09,-0.08 0.21,-0.14 0.36,-0.19 0.1,-0.18 0.26,-0.34 0.47,-0.5 0.04,-0.13 0.08,-0.21 0.12,-0.28l0.09 -0.32c-0.47,0.04 -0.75,0.07 -0.83,0.09l-1.12 0.35c-0.69,0.21 -1.07,0.33 -1.15,0.36zm21.75 -5.63l0.21 0.09c0.02,-0.18 0.11,-0.32 0.28,-0.44l0.13 0c0.1,0 0.23,-0.14 0.39,-0.41l0.26 -0.15c0.04,0.02 0.1,0.03 0.18,0.03 0.06,0 0.12,-0.04 0.18,-0.12 0.05,-0.08 0.19,-0.24 0.42,-0.47l0.06 0c0.06,0 0.13,-0.05 0.22,-0.14 0.09,-0.09 0.2,-0.13 0.34,-0.13l0.52 -0.13c0.16,-0.04 0.25,-0.06 0.28,-0.06 0.09,-0.03 0.31,0.16 0.67,0.55 0.35,0.4 0.53,0.78 0.53,1.15 0,0.21 -0.11,0.34 -0.33,0.38l-0.08 0.06 0 0.31 -0.26 0.56c-0.07,0.15 -0.16,0.24 -0.26,0.28 -0.09,0.16 -0.16,0.27 -0.2,0.34l-0.21 0.03 -0.09 0.09 0 0.38c-0.09,0.12 -0.22,0.39 -0.39,0.8 -0.18,0.4 -0.26,0.67 -0.26,0.78 0,0.19 0.04,0.29 0.12,0.29 0.06,0 0.12,-0.03 0.18,-0.08 0.06,-0.05 0.14,-0.11 0.25,-0.18 0.1,-0.06 0.18,-0.13 0.23,-0.2 0.05,-0.07 0.15,-0.13 0.32,-0.19 0.16,-0.06 0.31,-0.16 0.46,-0.31 0.14,-0.15 0.24,-0.25 0.3,-0.31 0.06,-0.05 0.13,-0.11 0.2,-0.2 0.07,-0.09 0.11,-0.13 0.13,-0.13 0.06,0 0.15,-0.02 0.29,-0.06 0.02,-0.11 0.04,-0.19 0.06,-0.24l0.37 -0.18 0.88 -0.79 0.12 -0.15c0.16,-0.04 0.26,-0.07 0.3,-0.09 0.08,-0.27 0.22,-0.47 0.41,-0.59 0,-0.04 0.05,-0.07 0.15,-0.09 0.08,-0.16 0.19,-0.29 0.31,-0.38 0.12,-0.1 0.23,-0.22 0.31,-0.36l0.35 -0.29c0.1,-0.04 0.17,-0.1 0.21,-0.18 0.52,-0.47 0.85,-0.73 0.98,-0.8 0.13,-0.07 0.33,-0.1 0.62,-0.1 0.28,0 0.51,0.11 0.69,0.33 0.18,0.22 0.37,0.38 0.58,0.49 0.21,0.11 0.31,0.33 0.31,0.64 0,0.29 -0.23,0.85 -0.68,1.68 -0.3,0.87 -0.45,1.4 -0.46,1.6 -0.01,0.2 -0.06,0.31 -0.13,0.34 -0.08,0.03 -0.13,0.07 -0.13,0.1l0 0.06c0,0.24 0.04,0.36 0.13,0.36 0.06,0 0.14,-0.05 0.25,-0.15 0.11,-0.1 0.32,-0.21 0.64,-0.33l0.13 0.03c0.3,-0.45 0.49,-0.68 0.59,-0.72 0.1,-0.04 0.2,-0.13 0.3,-0.27 0.1,-0.15 0.22,-0.23 0.37,-0.24 0.14,-0.01 0.24,-0.04 0.28,-0.07 0.01,-0.24 0.21,-0.52 0.6,-0.82 0.39,-0.3 0.61,-0.46 0.67,-0.46 0.1,0 0.18,0.08 0.24,0.23 0.06,0.16 0.12,0.26 0.19,0.31 0.07,0.06 0.1,0.1 0.1,0.14l0 0.28c0,0.13 -0.07,0.22 -0.2,0.26 -0.1,0.22 -0.19,0.35 -0.28,0.39l-0.27 -0.03c-0.05,0.06 -0.09,0.12 -0.13,0.17 -0.04,0.05 -0.06,0.07 -0.07,0.06 -0.08,0.02 -0.23,0.16 -0.43,0.4 -0.21,0.25 -0.39,0.45 -0.55,0.61l-0.06 0.09c-0.08,0.06 -0.16,0.1 -0.23,0.12l-0.27 0.23c-0.1,-0.06 -0.16,-0.09 -0.18,-0.09 -0.02,0 -0.06,0.04 -0.13,0.12 -0.07,0.08 -0.2,0.19 -0.39,0.31 -0.2,0.13 -0.35,0.28 -0.44,0.44l-0.24 0.24 -0.32 0.04c-0.03,0 -0.08,0.05 -0.16,0.14l-0.27 0.35c-0.13,0.17 -0.34,0.26 -0.62,0.26 -0.06,0 -0.14,-0.05 -0.23,-0.16 -0.1,-0.1 -0.19,-0.2 -0.28,-0.27 -0.08,-0.08 -0.28,-0.31 -0.57,-0.68 -0.3,-0.38 -0.45,-0.58 -0.45,-0.6l0.09 -0.53 -0.03 -0.37c0,-0.07 0.05,-0.18 0.14,-0.33 0.1,-0.14 0.14,-0.22 0.14,-0.23l-0.03 -0.59c0.02,-0.02 0.04,-0.05 0.06,-0.09l0.21 -0.35c-0.02,-0.1 -0.03,-0.21 -0.03,-0.33l0.06 -0.5c-0.18,0.08 -0.34,0.24 -0.48,0.49 -0.13,0.25 -0.32,0.37 -0.54,0.37 -0.19,0.34 -0.34,0.51 -0.44,0.5 -0.04,0.04 -0.07,0.08 -0.09,0.12l-0.21 0.12 -0.26 -0.03 -0.09 0.38c-0.22,0.12 -0.36,0.23 -0.43,0.33 -0.07,0.09 -0.17,0.19 -0.31,0.29l-0.26 0.24 -0.24 0c-0.04,0.27 -0.2,0.5 -0.47,0.68l-0.12 0.15 -0.27 -0.03c-0.1,0.33 -0.23,0.52 -0.38,0.59 -0.17,0 -0.41,0.16 -0.7,0.47 -0.3,0.32 -0.51,0.47 -0.63,0.47 -0.88,0 -1.59,-0.55 -2.14,-1.65 -0.02,-0.04 -0.07,-0.12 -0.14,-0.22 -0.07,-0.11 -0.11,-0.28 -0.11,-0.52 0,-0.39 0.06,-0.66 0.16,-0.8 0.11,-0.14 0.24,-0.4 0.41,-0.79 0.17,-0.39 0.29,-0.56 0.37,-0.51 0.02,-0.04 0.03,-0.1 0.03,-0.18 0.16,-0.19 0.24,-0.34 0.24,-0.44 0,-0.04 -0.02,-0.06 -0.06,-0.06 -0.02,0 -0.08,0.03 -0.18,0.09l-0.21 0.09c-0.09,0.02 -0.16,0.06 -0.2,0.12 -0.04,0.06 -0.11,0.12 -0.22,0.18 -0.1,0.06 -0.18,0.1 -0.24,0.14l-0.04 0c-0.06,-0.06 -0.1,-0.09 -0.13,-0.09 -0.06,0.16 -0.11,0.27 -0.15,0.31l-0.19 0.03c-0.22,0.23 -0.36,0.35 -0.42,0.35 -0.04,0 -0.13,-0.03 -0.28,-0.11 -0.14,-0.07 -0.21,-0.14 -0.21,-0.21l0.11 -0.59 0 -0.27c0,-0.02 0.04,-0.06 0.12,-0.12 0.02,0 0.1,-0.11 0.24,-0.33 0.14,-0.22 0.31,-0.33 0.5,-0.33zm19.47 1.98l0.06 -0.06 0.03 -0.13 0.73 -0.58c0.24,-0.19 0.37,-0.34 0.38,-0.44 0.01,-0.1 0.03,-0.19 0.05,-0.26 0.02,-0.08 0.03,-0.19 0.03,-0.33 0,-0.06 0.03,-0.2 0.07,-0.4 0.05,-0.21 0.08,-0.34 0.08,-0.38 0,-0.05 0.02,-0.17 0.06,-0.34l0 -0.15c0,-0.12 -0.02,-0.18 -0.06,-0.18 -0.04,0 -0.11,0.06 -0.2,0.2 -0.1,0.13 -0.17,0.2 -0.21,0.2 -0.07,0 -0.21,0.03 -0.43,0.09 -0.14,0.23 -0.23,0.35 -0.25,0.35l-0.09 0.03 -0.3 0c-0.14,0 -0.29,0.13 -0.44,0.38l0 0.06c-0.16,-0.06 -0.25,-0.09 -0.28,-0.09 -0.07,0 -0.14,0.06 -0.21,0.18 -0.07,0.12 -0.13,0.2 -0.2,0.24 -0.2,0.06 -0.39,0.2 -0.58,0.41 -0.19,0.21 -0.39,0.32 -0.6,0.33 -0.6,0.54 -0.94,0.82 -1.03,0.82l-0.18 0c-0.1,-0.07 -0.15,-0.26 -0.15,-0.56 0,-0.13 0.07,-0.29 0.2,-0.51 0.13,-0.22 0.31,-0.38 0.52,-0.5l0.09 -0.06c0.07,-0.3 0.22,-0.47 0.44,-0.53l0.31 -0.12 0.28 -0.41c0.21,0 0.39,-0.11 0.53,-0.34 0.16,-0.04 0.31,-0.15 0.43,-0.33 0.12,-0.18 0.48,-0.36 1.06,-0.53 0.07,-0.07 0.16,-0.18 0.27,-0.32l0.32 -0.09c0.16,-0.24 0.36,-0.38 0.6,-0.4 0.24,-0.03 0.45,-0.08 0.64,-0.18 0.19,-0.09 0.34,-0.13 0.47,-0.13 0.85,0 1.27,0.33 1.27,0.98l-0.09 0.38 0.03 0.21 -0.06 0.88c0,0.06 0.02,0.09 0.06,0.09 0.06,0 0.28,-0.12 0.65,-0.38 0.21,-0.07 0.36,-0.16 0.46,-0.25 0.09,-0.1 0.17,-0.16 0.24,-0.17 0.07,-0.02 0.37,-0.19 0.89,-0.54l0.13 -0.03c0.08,-0.06 0.16,-0.16 0.24,-0.28l0.79 -0.57c0.37,-0.26 0.64,-0.39 0.8,-0.39 0.32,0 0.47,0.25 0.47,0.75 0,0.18 -0.06,0.29 -0.19,0.33 -0.13,0.03 -0.28,0.1 -0.47,0.19 -0.18,0.09 -0.39,0.17 -0.62,0.23l-0.32 0.13c-0.06,0.12 -0.24,0.25 -0.53,0.41l-0.21 0.15c-0.08,0.1 -0.21,0.18 -0.37,0.23 -0.17,0.06 -0.27,0.11 -0.31,0.16 -0.04,0.05 -0.12,0.1 -0.23,0.14 -0.12,0.04 -0.2,0.09 -0.24,0.15 -0.05,0.06 -0.19,0.17 -0.42,0.32 -0.23,0.16 -0.37,0.24 -0.43,0.25 -0.05,0.02 -0.11,0.06 -0.19,0.14 -0.08,0.08 -0.13,0.12 -0.18,0.12 -0.16,0 -0.24,0.04 -0.24,0.1 0,0.18 -0.11,0.7 -0.35,1.55l0 0.15c-0.13,0.21 -0.18,0.33 -0.18,0.35l0.06 0.24 -0.21 0.91 0 0.06c0,0.04 0.02,0.12 0.05,0.24 0.03,0.13 0.05,0.22 0.06,0.3 0.01,0.08 0.03,0.11 0.05,0.11l0.21 0.03c0.06,0 0.13,-0.03 0.19,-0.08 0.07,-0.06 0.17,-0.11 0.29,-0.16 0.13,-0.05 0.32,-0.18 0.55,-0.38 0.59,-0.39 1.01,-0.61 1.28,-0.65l0.12 -0.16c0,-0.07 0.09,-0.16 0.29,-0.25 0.14,0.12 0.23,0.18 0.24,0.18 0.12,-0.42 0.3,-0.7 0.53,-0.85 0.23,-0.15 0.39,-0.28 0.51,-0.36 0.61,-0.55 1.04,-0.83 1.31,-0.83 0.16,0 0.24,0.14 0.24,0.44l0 0.06c0,0.49 -0.13,0.83 -0.41,1.03 -0.16,0 -0.31,0.11 -0.46,0.34 -0.3,0.28 -0.55,0.48 -0.78,0.61 -0.23,0.13 -0.41,0.26 -0.53,0.39 -0.13,0.12 -0.23,0.19 -0.33,0.2 -0.09,0.01 -0.21,0.09 -0.35,0.23l-0.41 0.09c-0.24,0.52 -0.8,0.96 -1.68,1.32 -0.17,0.36 -0.33,0.56 -0.48,0.58 -0.16,0.03 -0.3,0.09 -0.42,0.19l-0.06 0c-0.02,0 -0.06,-0.01 -0.13,-0.03 -0.19,0.06 -0.33,0.09 -0.41,0.09 -0.18,0 -0.48,-0.13 -0.88,-0.41 -0.42,-0.27 -0.62,-0.56 -0.63,-0.86 -0.04,-0.04 -0.07,-0.15 -0.09,-0.35 -0.03,-0.02 -0.05,-0.06 -0.05,-0.12 0,-0.34 0.14,-0.94 0.42,-1.8 0.02,-0.02 0.03,-0.05 0.03,-0.09 0,-0.02 -0.01,-0.05 -0.03,-0.09l-0.03 -0.12c0,-0.06 -0.02,-0.12 -0.06,-0.18 -0.1,0 -0.22,0.08 -0.35,0.24l-0.21 0.21c-0.04,0 -0.09,0.02 -0.16,0.06l-0.5 0.29c-0.04,0.04 -0.13,0.17 -0.28,0.37 -0.14,0.21 -0.23,0.31 -0.26,0.31l-0.28 -0.09c-0.06,0 -0.09,0.11 -0.09,0.34 0,0.1 -0.05,0.2 -0.16,0.3 -0.11,0.09 -0.2,0.2 -0.28,0.33 -0.48,0.85 -0.97,1.28 -1.49,1.28 -0.11,0 -0.24,-0.1 -0.38,-0.3 -0.14,-0.2 -0.21,-0.37 -0.21,-0.51 0,-0.17 0.08,-0.36 0.24,-0.6 0.02,0 0.13,-0.18 0.33,-0.53 0.2,-0.36 0.64,-0.65 1.33,-0.9 0.05,-0.03 0.25,-0.2 0.61,-0.5 0.36,-0.31 0.55,-0.46 0.57,-0.47l0.21 0c0.2,-0.27 0.38,-0.39 0.53,-0.39zm12.02 -2.03l0.32 -0.26c0.24,-0.02 0.38,-0.15 0.39,-0.38 0.02,-0.23 0.19,-0.44 0.5,-0.61l0.18 -0.26c0.16,-0.15 0.57,-0.35 1.25,-0.59 0.17,-0.1 0.29,-0.19 0.35,-0.28 0.02,-0.02 0.04,-0.03 0.06,-0.03l0.24 0.06c0.13,0 0.3,-0.03 0.51,-0.11 0.21,-0.07 0.41,-0.1 0.6,-0.1l0.64 -0.03c0.04,0 0.13,0.03 0.25,0.09 0.12,0.06 0.28,0.09 0.46,0.09 0.22,0 0.43,0.1 0.62,0.31 0.19,0.2 0.28,0.39 0.28,0.56 0,0.32 -0.16,0.63 -0.49,0.96 -0.33,0.32 -0.59,0.5 -0.78,0.54 -0.17,0.17 -0.31,0.28 -0.4,0.33 -0.09,0.05 -0.18,0.12 -0.28,0.21 -0.1,0.1 -0.18,0.14 -0.24,0.14 -0.04,0 -0.07,-0.01 -0.09,-0.04 -0.02,-0.03 -0.05,-0.04 -0.09,-0.04 -0.16,0 -0.34,0.2 -0.53,0.6l-0.27 -0.03c-0.17,0.11 -0.28,0.23 -0.33,0.36 -0.05,0.13 -0.16,0.2 -0.32,0.2 -0.38,0.38 -0.63,0.56 -0.76,0.56 -0.02,0 -0.09,-0.02 -0.21,-0.06 -0.08,0.1 -0.13,0.21 -0.13,0.32 0,0.12 -0.08,0.2 -0.24,0.21l-0.2 0.19 -0.15 -0.03 -0.3 0.32c-0.16,0 -0.31,0.05 -0.48,0.16 -0.02,0.12 -0.05,0.28 -0.09,0.46 -0.04,0.19 -0.06,0.29 -0.06,0.31 0,0.3 0.27,0.44 0.8,0.44l0.73 -0.1c0.19,0 0.37,-0.05 0.54,-0.15 0.17,-0.1 0.35,-0.15 0.54,-0.15 0.06,0 0.15,-0.02 0.27,-0.06l0.15 0.06c0.07,-0.15 0.2,-0.28 0.4,-0.41 0.19,-0.12 0.34,-0.18 0.46,-0.18l0.15 -0.09c0.04,-0.12 0.1,-0.2 0.18,-0.24l0.12 -0.11c0.08,-0.08 0.16,-0.12 0.23,-0.12l0.21 0 0.06 -0.03c0.13,-0.26 0.29,-0.42 0.51,-0.46 0.22,-0.05 0.36,-0.12 0.41,-0.22 0.05,-0.1 0.15,-0.16 0.3,-0.18 0.14,-0.02 0.26,-0.09 0.36,-0.21 0.09,-0.11 0.21,-0.22 0.35,-0.33 0.14,-0.1 0.24,-0.18 0.3,-0.22 0.05,-0.05 0.1,-0.08 0.14,-0.08 0.06,0 0.09,0.05 0.09,0.13 0,0.09 0.02,0.14 0.06,0.14 0.04,0 0.06,-0.02 0.06,-0.06 0,-0.04 -0.01,-0.09 -0.03,-0.15l0 -0.11c0,-0.15 0.08,-0.25 0.24,-0.3l0.68 -0.44c0.02,-0.21 0.08,-0.34 0.18,-0.37 0.1,-0.04 0.17,-0.08 0.22,-0.12 0.05,-0.05 0.1,-0.07 0.17,-0.07 0.13,0 0.2,0.08 0.2,0.23l-0.08 0.39 0.08 0.41c0,0.06 -0.05,0.14 -0.14,0.25 -0.09,0.11 -0.17,0.27 -0.22,0.49 -0.05,0.22 -0.12,0.34 -0.2,0.35l-0.09 0c-0.18,0.2 -0.33,0.31 -0.43,0.34 -0.11,0.04 -0.19,0.1 -0.25,0.19l-0.51 0.59c-0.1,0.1 -0.19,0.19 -0.26,0.27 -0.07,0.08 -0.13,0.12 -0.17,0.12l-0.12 -0.12c0,-0.02 -0.02,-0.03 -0.06,-0.03 -0.1,0 -0.17,0.06 -0.19,0.18 -0.03,0.12 -0.08,0.23 -0.16,0.32 -0.31,0.15 -0.5,0.28 -0.59,0.39l-0.09 0.03 -0.27 0c-0.13,0 -0.22,0.1 -0.27,0.3 -0.05,0.2 -0.2,0.31 -0.43,0.34 -0.24,0.03 -0.41,0.09 -0.51,0.18 -0.02,0.02 -0.07,0.04 -0.13,0.06 -0.07,0.02 -0.21,0.1 -0.43,0.24l-1.27 0.45c-0.1,0.05 -0.17,0.08 -0.2,0.08l-0.43 0.06c-0.06,0 -0.12,-0.04 -0.18,-0.12 -0.06,-0.08 -0.1,-0.12 -0.12,-0.12l-0.27 0.09c-0.2,0.06 -0.39,0.09 -0.58,0.09 -0.1,0 -0.21,-0.03 -0.34,-0.11 -0.12,-0.07 -0.22,-0.12 -0.29,-0.15 -0.3,0 -0.5,-0.23 -0.62,-0.68l-0.18 0.03c-0.04,0 -0.18,-0.36 -0.41,-1.08 -0.06,-0.08 -0.16,-0.14 -0.29,-0.18 -0.13,-0.04 -0.2,-0.13 -0.2,-0.3 0,-0.46 0.1,-0.76 0.3,-0.92 0.2,-0.16 0.31,-0.28 0.33,-0.36l0.21 -0.79c0.04,-0.03 0.09,-0.13 0.15,-0.31l0.35 -0.64c0.04,-0.07 0.13,-0.25 0.28,-0.53zm3.19 -0.91l-0.18 0.09c-0.04,0.02 -0.16,0.11 -0.36,0.26 -0.2,0.16 -0.39,0.28 -0.58,0.38 -0.19,0.1 -0.38,0.35 -0.58,0.76 -0.2,0.4 -0.3,0.64 -0.3,0.69 0,0.06 0.03,0.09 0.09,0.09l0.51 -0.23c0.19,-0.09 0.37,-0.21 0.54,-0.35 0.17,-0.15 0.41,-0.32 0.73,-0.52l0.12 -0.12c0.02,-0.04 0.11,-0.11 0.28,-0.22 0.17,-0.11 0.29,-0.21 0.37,-0.31l0.15 -0.06c0.17,-0.27 0.35,-0.44 0.52,-0.5 0.18,-0.06 0.27,-0.12 0.27,-0.18 0,-0.12 -0.1,-0.18 -0.29,-0.18 -0.08,0 -0.2,0.05 -0.36,0.15l-0.35 0c-0.04,0 -0.15,0.06 -0.33,0.18l-0.26 0.06z"/>
   </g>
   <path class="fil0" d="M47.55 180.32l0 2.37c0.19,-0.02 0.33,-0.09 0.42,-0.21 0.1,-0.13 0.23,-0.41 0.4,-0.85 0.22,-0.58 0.45,-0.95 0.68,-1.11 0.23,-0.16 0.61,-0.24 1.15,-0.24 0.03,0 0.08,-0 0.16,-0l0 0.83 -0.16 -0c-0.23,0 -0.39,0.03 -0.5,0.08 -0.11,0.06 -0.19,0.14 -0.26,0.26 -0.06,0.12 -0.16,0.36 -0.29,0.72 -0.07,0.19 -0.14,0.35 -0.22,0.48 -0.08,0.13 -0.22,0.25 -0.42,0.36 0.25,0.07 0.46,0.22 0.62,0.43 0.16,0.21 0.34,0.52 0.54,0.91l0.76 1.52 -1.32 0 -0.67 -1.43c-0.01,-0.02 -0.03,-0.06 -0.06,-0.12 -0.02,-0.04 -0.07,-0.13 -0.14,-0.26 -0.14,-0.27 -0.26,-0.43 -0.35,-0.51 -0.09,-0.07 -0.2,-0.11 -0.33,-0.11l0 2.43 -1.09 0 0 -2.43c-0.13,0 -0.24,0.03 -0.33,0.11 -0.09,0.07 -0.21,0.24 -0.35,0.51 -0.08,0.15 -0.13,0.24 -0.14,0.26 -0.02,0.04 -0.04,0.08 -0.06,0.12l-0.67 1.43 -1.32 0 0.76 -1.52c0.19,-0.38 0.36,-0.68 0.53,-0.9 0.17,-0.22 0.38,-0.37 0.63,-0.44 -0.2,-0.11 -0.34,-0.23 -0.42,-0.36 -0.08,-0.13 -0.16,-0.29 -0.23,-0.48 -0.13,-0.35 -0.22,-0.59 -0.29,-0.71 -0.07,-0.12 -0.15,-0.21 -0.26,-0.27 -0.11,-0.06 -0.28,-0.09 -0.53,-0.09 -0.03,0 -0.08,0 -0.14,0l0 -0.83c0.08,0 0.14,0 0.16,0 0.54,0 0.93,0.08 1.16,0.24 0.23,0.16 0.45,0.53 0.67,1.1 0.17,0.45 0.31,0.73 0.4,0.85 0.09,0.12 0.24,0.19 0.42,0.21l0 -2.37 1.09 0zm10.95 0l1.05 0 0 3.7 2.25 -3.7 1.12 0 0 5.56 -1.05 0 0 -3.64 -2.25 3.64 -1.12 0 0 -5.56zm13.37 0l3.89 0 0 5.56 -1.13 0 0 -4.62 -1.67 0 0 2.37c0,0.68 -0.02,1.15 -0.07,1.42 -0.05,0.27 -0.16,0.48 -0.33,0.63 -0.18,0.15 -0.45,0.23 -0.82,0.23 -0.13,0 -0.37,-0.01 -0.72,-0.04l0 -0.87 0.25 0c0.23,0 0.39,-0.03 0.47,-0.09 0.08,-0.06 0.12,-0.22 0.12,-0.47l-0 -0.96 0 -3.17zm12.22 2.81c0,-0.57 0.08,-1.04 0.25,-1.43 0.13,-0.28 0.3,-0.54 0.52,-0.76 0.22,-0.23 0.46,-0.39 0.72,-0.5 0.35,-0.15 0.75,-0.22 1.2,-0.22 0.82,0 1.48,0.26 1.97,0.76 0.49,0.51 0.74,1.22 0.74,2.12 0,0.9 -0.24,1.6 -0.73,2.11 -0.49,0.51 -1.14,0.76 -1.96,0.76 -0.83,0 -1.49,-0.25 -1.97,-0.76 -0.49,-0.5 -0.73,-1.2 -0.73,-2.09zm1.16 -0.04c0,0.63 0.15,1.11 0.44,1.43 0.29,0.33 0.66,0.49 1.11,0.49 0.45,0 0.82,-0.16 1.11,-0.48 0.29,-0.32 0.43,-0.81 0.43,-1.45 0,-0.64 -0.14,-1.11 -0.42,-1.43 -0.28,-0.32 -0.65,-0.47 -1.12,-0.47 -0.46,0 -0.84,0.16 -1.12,0.48 -0.28,0.32 -0.43,0.8 -0.43,1.44zm12.53 -2.78l1.05 0 0 3.7 2.25 -3.7 1.12 0 0 5.56 -1.05 0 0 -3.64 -2.25 3.64 -1.12 0 0 -5.56zm2.87 -1.61l0.52 0c-0.03,0.34 -0.15,0.61 -0.36,0.81 -0.21,0.19 -0.48,0.29 -0.82,0.29 -0.33,0 -0.61,-0.1 -0.82,-0.29 -0.21,-0.2 -0.33,-0.47 -0.36,-0.81l0.52 0c0.02,0.18 0.08,0.31 0.19,0.41 0.11,0.09 0.27,0.14 0.47,0.14 0.21,0 0.36,-0.05 0.47,-0.14 0.11,-0.09 0.17,-0.23 0.19,-0.41zm12.7 1.61l3.84 0 0 4.62 0.49 0 0 2.15 -0.94 0 0 -1.21 -3.49 0 0 1.21 -0.94 0 0 -2.15 0.47 0c0.23,-0.47 0.38,-1.03 0.46,-1.65 0.07,-0.63 0.11,-1.42 0.11,-2.38l0 -0.59zm1.07 0.94c0,1.68 -0.15,2.91 -0.47,3.68l2.1 0 0 -3.68 -1.64 0zm11.18 1.87c0,-0.57 0.08,-1.04 0.25,-1.43 0.13,-0.28 0.3,-0.54 0.52,-0.76 0.22,-0.23 0.46,-0.39 0.72,-0.5 0.35,-0.15 0.75,-0.22 1.2,-0.22 0.82,0 1.48,0.26 1.97,0.76 0.49,0.51 0.74,1.22 0.74,2.12 0,0.9 -0.24,1.6 -0.73,2.11 -0.49,0.51 -1.14,0.76 -1.96,0.76 -0.83,0 -1.49,-0.25 -1.97,-0.76 -0.49,-0.5 -0.73,-1.2 -0.73,-2.09zm1.16 -0.04c0,0.63 0.15,1.11 0.44,1.43 0.29,0.33 0.66,0.49 1.11,0.49 0.45,0 0.82,-0.16 1.1,-0.48 0.29,-0.32 0.43,-0.81 0.43,-1.45 0,-0.64 -0.14,-1.11 -0.42,-1.43 -0.28,-0.32 -0.65,-0.47 -1.12,-0.47 -0.46,0 -0.84,0.16 -1.12,0.48 -0.28,0.32 -0.43,0.8 -0.43,1.44zm12.5 2.78l0 -5.56 1.69 0 1 3.79 0.98 -3.79 1.69 0 0 5.56 -1.04 0 -0 -4.38 -1.1 4.38 -1.08 0 -1.09 -4.38 -0 4.38 -1.04 0z"/>
   <path class="fil0" d="M18.25 149.76l15.2 0 0 1.18 -15.2 0 0 -1.18zm136.49 0l15.2 0 0 1.18 -15.2 0 0 -1.18z"/>
   <g>
    <path class="fil0" d="M82.17 16.44c-0.46,0.21 -1.01,0.01 -1.22,-0.46 -0.21,-0.46 -0.01,-1.01 0.46,-1.22 1.98,-0.9 4.06,-1.59 6.17,-2.05 2.12,-0.46 4.29,-0.69 6.47,-0.69 8.42,0 16.05,3.41 21.57,8.93 5.52,5.52 8.94,13.15 8.94,21.57 0,2.71 -0.37,5.41 -1.08,8.02 -0.71,2.6 -1.77,5.11 -3.15,7.46 -0.26,0.43 -0.82,0.58 -1.25,0.33 -0.43,-0.26 -0.58,-0.82 -0.33,-1.25 1.3,-2.2 2.29,-4.57 2.96,-7.01 0.67,-2.44 1.01,-4.98 1.01,-7.54 0,-7.92 -3.21,-15.08 -8.4,-20.27 -5.19,-5.19 -12.35,-8.4 -20.27,-8.4 -2.05,0 -4.09,0.22 -6.08,0.65 -1.99,0.43 -3.94,1.08 -5.8,1.93zm14.37 5.45c0.13,0.57 0.07,1.1 -0.19,1.58 -0.25,0.49 -0.76,0.73 -1.51,0.73 -0.73,0 -1.35,-0.2 -1.86,-0.6 -0.52,-0.4 -1.12,-1.12 -1.82,-2.17 -0.28,0.17 -0.65,0.6 -1.11,1.27 -0.46,0.67 -1.02,2.05 -1.7,4.13 -0.55,1.65 -1.09,2.93 -1.61,3.86 -0.37,0.64 -0.69,1.25 -0.97,1.83 -0.28,0.57 -0.76,1.06 -1.44,1.44 0.36,0.23 0.71,0.52 1.03,0.84 0.74,0.74 1.35,1.64 1.82,2.68 0.48,1.05 0.88,2.06 1.23,3.03 0.4,1.1 0.79,2.09 1.15,2.96 0.37,0.87 0.87,1.61 1.52,2.23 0.47,0.44 0.9,0.76 1.27,0.96 0.38,0.2 0.95,0.31 1.68,0.31l1.54 0 -0.03 -9.61c-0.01,-0.1 -0.01,-0.2 -0.02,-0.32 -0.01,-0.12 -0.03,-0.24 -0.05,-0.36 -0.07,-0.3 -0.18,-0.55 -0.35,-0.77 -0.17,-0.21 -0.41,-0.4 -0.74,-0.57 -0.37,-0.17 -0.83,-0.32 -1.4,-0.46 -0.57,-0.13 -0.99,-0.21 -1.27,-0.24l-0 -1.32 12 0 0 1.32c-0.37,0.02 -0.85,0.08 -1.42,0.18 -0.58,0.11 -1,0.21 -1.28,0.3 -0.48,0.18 -0.8,0.45 -0.94,0.82 -0.14,0.37 -0.21,0.78 -0.22,1.23l-0 9.76 1.52 0c0.63,0 1.13,-0.1 1.51,-0.3 0.37,-0.2 0.79,-0.54 1.24,-1.01 0.6,-0.61 1.07,-1.35 1.41,-2.22 0.35,-0.88 0.69,-1.83 1.03,-2.86 0.32,-1.01 0.7,-2.02 1.13,-3.03 0.44,-1.02 1.02,-1.9 1.72,-2.68 0.44,-0.49 0.98,-0.9 1.61,-1.24 0.63,-0.34 1.37,-0.52 2.2,-0.52 1.03,0 1.88,0.23 2.58,0.69 0.69,0.46 1.13,1.11 1.33,1.96 0.13,0.55 0.04,1.08 -0.24,1.59 -0.3,0.51 -0.82,0.77 -1.59,0.77 -0.71,0 -1.33,-0.2 -1.86,-0.6 -0.52,-0.4 -1.1,-1.08 -1.72,-2.05 -0.62,0.47 -1.13,1.25 -1.55,2.33 -0.42,1.08 -0.77,2.08 -1.08,3 -0.43,1.32 -0.94,2.51 -1.52,3.58 -0.58,1.08 -1.33,1.99 -2.27,2.76l0.07 0.28c1.3,0.43 2.41,1.13 3.33,2.1 0.92,0.97 1.73,2.11 2.42,3.43 0.43,0.8 0.89,1.67 1.39,2.61 0.5,0.94 0.94,1.75 1.29,2.43 0.54,1 1,1.63 1.38,1.91 0.38,0.28 0.79,0.46 1.26,0.54 0.37,0.07 0.74,0.12 1.12,0.17 0.38,0.05 0.73,0.08 1.06,0.11l-0.04 1.32 -7.42 0c-0.63,-1.57 -1.24,-2.96 -1.81,-4.16 -0.57,-1.2 -1.2,-2.48 -1.88,-3.86 -0.99,-2.02 -2.04,-3.44 -3.15,-4.24 -1.1,-0.8 -2.43,-1.2 -3.98,-1.2l-0.49 0 0.03 9.53c-0,0.1 0,0.21 0.02,0.34 0.01,0.12 0.03,0.23 0.06,0.34 0.06,0.27 0.18,0.53 0.37,0.77 0.18,0.24 0.42,0.43 0.71,0.59 0.22,0.12 0.64,0.24 1.26,0.37 0.62,0.12 1.1,0.19 1.44,0.2l0 1.32 -11.98 0 -0 -1.32c0.33,-0.03 0.8,-0.07 1.41,-0.12 0.61,-0.05 1.03,-0.13 1.26,-0.24 0.43,-0.17 0.74,-0.43 0.91,-0.77 0.18,-0.34 0.26,-0.76 0.25,-1.26l0.01 -9.62 -1.12 0c-1.56,0 -2.8,0.35 -3.74,1.05 -0.93,0.7 -1.88,2.12 -2.83,4.26 -0.63,1.41 -1.16,2.69 -1.6,3.82 -0.43,1.14 -0.94,2.54 -1.53,4.19l-7.93 0 -0 -1.32c0.32,-0.04 0.66,-0.08 1.04,-0.11 0.38,-0.03 0.75,-0.09 1.12,-0.17 0.5,-0.11 0.94,-0.32 1.3,-0.63 0.37,-0.31 0.74,-0.88 1.13,-1.72 0.3,-0.68 0.64,-1.46 1.01,-2.32 0.38,-0.86 0.79,-1.81 1.25,-2.84 0.66,-1.46 1.53,-2.65 2.6,-3.6 1.08,-0.95 2.3,-1.62 3.68,-2.02l0.02 -0.28c-0.83,-0.73 -1.57,-1.63 -2.21,-2.71 -0.65,-1.09 -1.21,-2.35 -1.68,-3.79 -0.44,-1.36 -0.88,-2.48 -1.31,-3.35 -0.44,-0.87 -1.76,-2.38 -4.19,-2.38l-0.01 0c-0.57,-0.01 -1.18,-0.05 -1.83,-0.14l0.03 9.6c-0,0.11 0.01,0.23 0.02,0.35 0.01,0.12 0.03,0.23 0.06,0.34 0.06,0.27 0.18,0.52 0.37,0.77 0.18,0.24 0.42,0.44 0.71,0.59 0.24,0.12 0.63,0.24 1.19,0.36 0.56,0.12 1.03,0.19 1.41,0.2l0 1.33 -11.91 0 -0 -1.33c0.33,-0.03 0.8,-0.07 1.41,-0.12 0.61,-0.05 1.03,-0.13 1.26,-0.24 0.43,-0.17 0.73,-0.43 0.91,-0.77 0.18,-0.34 0.26,-0.76 0.26,-1.26l-0.02 -20.92c0,-0.11 -0,-0.22 -0.02,-0.34 -0.01,-0.11 -0.03,-0.23 -0.06,-0.35 -0.07,-0.3 -0.18,-0.55 -0.35,-0.76 -0.17,-0.22 -0.41,-0.41 -0.74,-0.57 -0.37,-0.18 -0.81,-0.33 -1.32,-0.47 -0.52,-0.13 -0.97,-0.22 -1.35,-0.24l-0 -1.33 11.92 0 0 1.33c-0.38,0.01 -0.83,0.08 -1.37,0.18 -0.54,0.11 -0.95,0.21 -1.23,0.3 -0.48,0.18 -0.79,0.45 -0.94,0.83 -0.14,0.38 -0.21,0.78 -0.22,1.21l0.01 9.68 1.88 0c0.63,0 1.14,-0.1 1.52,-0.3 0.38,-0.2 0.8,-0.54 1.26,-1.01 0.6,-0.61 1.08,-1.34 1.45,-2.21 0.36,-0.87 0.71,-1.82 1.05,-2.86 0.33,-0.99 0.71,-1.99 1.14,-2.98 0.43,-0.99 0.99,-1.88 1.7,-2.66 0.44,-0.48 0.97,-0.9 1.59,-1.24 0.62,-0.35 1.35,-0.52 2.18,-0.52 1.02,0 1.89,0.24 2.61,0.72 0.72,0.48 1.17,1.14 1.37,1.98zm40.07 18.85c0.62,0 1.12,0.5 1.12,1.12 0,0.62 -0.5,1.12 -1.12,1.12 -0.62,0 -1.12,-0.5 -1.12,-1.12 0,-0.62 0.5,-1.12 1.12,-1.12zm-85.04 0c0.62,0 1.12,0.5 1.12,1.12 0,0.62 -0.5,1.12 -1.12,1.12 -0.62,0 -1.12,-0.5 -1.12,-1.12 0,-0.62 0.5,-1.12 1.12,-1.12zm59.22 25.06c0.41,-0.29 0.98,-0.2 1.28,0.21 0.29,0.41 0.2,0.98 -0.21,1.28 -2.6,1.87 -5.45,3.31 -8.46,4.27 -3.01,0.97 -6.17,1.47 -9.36,1.47 -8.42,0 -16.05,-3.42 -21.57,-8.93 -5.52,-5.52 -8.93,-13.15 -8.93,-21.57 0,-3.25 0.52,-6.47 1.53,-9.52 1,-3.05 2.49,-5.95 4.42,-8.57 0.3,-0.41 0.87,-0.49 1.28,-0.2 0.41,0.3 0.49,0.87 0.2,1.28 -1.82,2.46 -3.21,5.19 -4.16,8.05 -0.94,2.87 -1.43,5.89 -1.43,8.95 0,7.92 3.21,15.09 8.4,20.27 5.19,5.19 12.36,8.4 20.27,8.4 3.01,0 5.98,-0.47 8.8,-1.38 2.83,-0.91 5.51,-2.26 7.95,-4.02zm-16.75 -65.8c1.1,0 2.1,0.45 2.83,1.17l0 0 0.01 0.01c0.55,0.56 0.95,1.29 1.09,2.1 9.87,0.98 18.68,5.6 25.05,12.51 6.49,7.03 10.45,16.42 10.45,26.74 0,0.96 -0.03,1.91 -0.1,2.85l6.13 1.3c0.5,0.1 0.81,0.59 0.71,1.08 -0.1,0.49 -0.59,0.81 -1.08,0.71l-5.93 -1.26c-0.31,2.59 -0.87,5.11 -1.65,7.52 1.54,-1.08 3.58,-2.16 5.58,-2.16 3.93,0 6.48,1.75 6.48,1.75 0.41,0.29 0.51,0.87 0.22,1.28 -0.29,0.41 -0.86,0.51 -1.28,0.22 -0.01,-0 -2.06,-1.41 -5.42,-1.41 -3.26,0 -6.84,3.75 -6.85,3.76l-0.06 0.06c-0.65,1.5 -1.39,2.95 -2.22,4.34 2.35,-0.6 6.05,-1.23 8.51,-0.21 0.71,0.3 1.37,0.63 1.97,0.97 1.16,-4.86 5.69,-4.69 5.7,-4.69l0 0.01c0.38,0 0.74,0.24 0.87,0.63 0,0 0.92,2.27 -0.23,4.63 -0.59,1.21 -1.86,1.7 -3.07,1.87 0.45,0.43 0.69,0.71 0.69,0.71 0.33,0.38 0.29,0.96 -0.09,1.29 -0.38,0.33 -0.96,0.29 -1.29,-0.08 -0,-0 -0.83,-0.98 -2.34,-2.04 -0.05,-0.03 -0.1,-0.06 -0.15,-0.1 -0.76,-0.52 -1.69,-1.06 -2.76,-1.5 -2.88,-1.19 -8.26,0.51 -9.31,0.86 -1.06,1.53 -2.22,2.98 -3.48,4.34 -1.48,1.6 -3.09,3.08 -4.81,4.42 0.64,2.25 3.63,11.01 10.66,6.61 5.88,-3.68 -2.95,-2.93 -2.97,-2.93 -0.51,0.04 -0.95,-0.34 -0.98,-0.85 -0.01,-0.18 0.03,-0.34 0.1,-0.49 0.43,-0.99 5.88,-13.03 12.99,-6.19 0.73,0.7 1.3,1.4 1.74,2.07 0.97,-1.03 2.96,-2.84 4.95,-2.63 2.67,0.29 4.31,2.63 4.31,2.63 0.32,0.38 0.27,0.94 -0.1,1.27l0 0c-0.01,0.01 -2.92,2.5 -8.1,1.22 0.68,3.23 -1.42,5.84 -2.84,7.17 2.4,1.03 7.37,2.7 8.09,-0.7 0.03,-0.17 0.12,-0.32 0.22,-0.43 0.38,-0.47 2.65,-3 6.02,-2.08 3.68,1.01 4.19,4.79 4.19,4.8 0.04,0.42 -0.21,0.81 -0.59,0.95 -0.55,0.24 -5.37,2.18 -8.68,-1.22 -2.6,4.12 -10.64,0.09 -11.31,-0.25 -0.15,-0.07 -0.29,-0.17 -0.39,-0.32 -0.29,-0.41 -0.19,-0.99 0.23,-1.28 0.02,-0.01 6.6,-4.47 0.98,-9.88 -4.25,-4.09 -7.95,1.54 -9.4,4.29 3.79,-0.12 12.43,0.17 2.51,6.39 -8.35,5.24 -12.1,-3.61 -13.19,-7 -0.72,0.51 -1.46,0.99 -2.22,1.44 1.44,1.55 3.95,4.78 0.71,5.66 -1.69,0.46 -3.05,0.67 -3.8,-0.4 -0.46,-0.65 -0.5,-1.75 0.03,-3.58 -4.12,2.02 -8.64,3.34 -13.4,3.81 -0.15,0.8 -0.55,1.53 -1.1,2.08l-0.06 0.05c-0.72,0.69 -1.7,1.12 -2.78,1.12 -1.11,0 -2.11,-0.45 -2.83,-1.18 -0.56,-0.55 -0.95,-1.28 -1.1,-2.08 -4.73,-0.47 -9.21,-1.77 -13.3,-3.76 0.52,1.81 0.47,2.9 0.02,3.53 -0.76,1.08 -2.11,0.87 -3.8,0.4 -3.21,-0.88 -0.76,-4.07 0.68,-5.63 -0.75,-0.45 -1.48,-0.93 -2.2,-1.43 -1.11,3.43 -4.86,12.16 -13.18,6.95 -9.92,-6.22 -1.28,-6.51 2.51,-6.39 -1.46,-2.75 -5.16,-8.38 -9.4,-4.29 -5.62,5.41 0.96,9.87 0.98,9.88 0.42,0.29 0.52,0.86 0.23,1.28 -0.1,0.15 -0.24,0.25 -0.39,0.32 -0.67,0.34 -8.71,4.37 -11.31,0.25 -3.31,3.41 -8.13,1.46 -8.68,1.22 -0.38,-0.14 -0.64,-0.53 -0.59,-0.95 0,-0.01 0.51,-3.79 4.19,-4.8 3.36,-0.92 5.63,1.61 6.02,2.08 0.11,0.12 0.19,0.26 0.22,0.43 0.72,3.4 5.69,1.73 8.09,0.7 -1.42,-1.33 -3.52,-3.94 -2.84,-7.17 -5.18,1.28 -8.09,-1.21 -8.1,-1.22l0 -0c-0.37,-0.33 -0.41,-0.89 -0.1,-1.27 0,-0.01 1.64,-2.34 4.31,-2.63 1.98,-0.21 3.98,1.59 4.95,2.63 0.44,-0.68 1.01,-1.37 1.74,-2.07 7.11,-6.84 12.56,5.21 12.99,6.19 0.08,0.14 0.11,0.31 0.1,0.49 -0.04,0.5 -0.48,0.88 -0.98,0.85 -0.02,-0 -8.85,-0.76 -2.97,2.93 6.97,4.37 9.97,-4.22 10.64,-6.55 -1.75,-1.35 -3.38,-2.85 -4.88,-4.48 -1.27,-1.38 -2.44,-2.84 -3.5,-4.38 -1.28,-0.42 -6.41,-1.97 -9.19,-0.82 -1.07,0.44 -1.99,0.98 -2.76,1.5 -0.04,0.04 -0.09,0.07 -0.15,0.1 -1.51,1.06 -2.34,2.04 -2.34,2.04 -0.33,0.38 -0.91,0.42 -1.29,0.08 -0.38,-0.33 -0.42,-0.91 -0.09,-1.29 0,-0 0.24,-0.28 0.69,-0.71 -1.21,-0.17 -2.49,-0.66 -3.07,-1.87 -1.15,-2.37 -0.23,-4.63 -0.23,-4.63 0.13,-0.38 0.48,-0.63 0.87,-0.63l0 -0.01c0.01,0 4.54,-0.18 5.7,4.69 0.6,-0.35 1.25,-0.68 1.97,-0.97 2.42,-1 6.04,-0.4 8.4,0.19 -0.85,-1.44 -1.61,-2.93 -2.27,-4.48 -0.6,-0.6 -3.81,-3.66 -6.75,-3.66 -3.36,0 -5.42,1.4 -5.42,1.41 -0.41,0.29 -0.98,0.2 -1.28,-0.22 -0.29,-0.41 -0.2,-0.98 0.22,-1.28 0.01,-0 2.56,-1.75 6.48,-1.75 1.95,0 3.94,1.02 5.47,2.08 -0.77,-2.38 -1.32,-4.87 -1.63,-7.42l-5.85 1.24c-0.49,0.1 -0.98,-0.22 -1.08,-0.71 -0.1,-0.5 0.22,-0.98 0.71,-1.08l6.04 -1.28c-0.07,-0.95 -0.1,-1.91 -0.1,-2.87 0,-10.31 3.96,-19.71 10.45,-26.74 6.37,-6.9 15.18,-11.52 25.05,-12.51 0.15,-0.81 0.55,-1.54 1.11,-2.11l0 -0 -0 -0c0.72,-0.73 1.73,-1.17 2.83,-1.17zm1.54 2.47l-0 -0c-0.39,-0.39 -0.94,-0.63 -1.54,-0.63 -0.6,0 -1.14,0.24 -1.54,0.64l-0 -0c-0.39,0.39 -0.63,0.94 -0.63,1.54 0,0.6 0.24,1.14 0.64,1.54 0.29,0.29 0.68,0.5 1.1,0.59l0.03 0.01 0.07 0.01 0.05 0.01 0.02 0c0.08,0.01 0.16,0.02 0.24,0.02l0.03 0 0.03 0c0.11,-0 0.21,-0.01 0.31,-0.03l0.06 -0.01 0.09 -0.02 0.1 -0.03 0.03 -0.01 0.02 -0.01 0.01 -0 0.11 -0.04 0.01 -0 0.04 -0.02 0.13 -0.06 0.06 -0.03 0.05 -0.02 0.04 -0.03 0.01 -0.01 0.1 -0.07 0.03 -0.02 0.02 -0.02 0.05 -0.03 0.03 -0.02 0.03 -0.03 0.02 -0.01 0.12 -0.11 0.03 -0.03c0.39,-0.39 0.63,-0.94 0.63,-1.54 0,-0.59 -0.23,-1.13 -0.62,-1.52l-0.02 -0.02zm2.31 2.65c-0.19,0.66 -0.54,1.25 -1.02,1.72l-0.06 0.05 -0.06 0.06 -0.05 0.04c-0.1,0.09 -0.2,0.17 -0.31,0.25l-0.03 0.02c-0.08,0.06 -0.17,0.12 -0.25,0.17l-0.05 0.03c-0.13,0.08 -0.27,0.15 -0.41,0.21l-0.08 0.04c-0.08,0.03 -0.15,0.06 -0.23,0.09l-0.01 0 -0.11 0.03 -0.08 0.03 -0.02 0 -0.13 0.03 -0.12 0.03 -0.03 0.01 -0.17 0.03 -0.09 0.02c-0.13,0.02 -0.26,0.03 -0.39,0.03l-0.11 0 -0.05 0 -0.05 0 -0.12 -0 -0.19 -0.01 -0 0 -0.16 -0.02c-0.11,-0.01 -0.21,-0.03 -0.31,-0.05l-0 0c-0.77,-0.17 -1.46,-0.55 -2,-1.09 -0.47,-0.47 -0.83,-1.06 -1.02,-1.72 -9.38,0.95 -17.74,5.36 -23.79,11.92 -6.18,6.7 -9.96,15.66 -9.96,25.5 0,9.84 3.78,18.8 9.96,25.5 1.55,1.68 3.26,3.22 5.09,4.6l0.07 0.05c5.3,3.96 11.69,6.56 18.63,7.26 0.17,-0.59 0.47,-1.13 0.86,-1.58l0.05 -0.06 0.05 -0.05 0.02 -0.02 0.02 -0.02 0.02 -0.02 0 -0 -0 -0c0.46,-0.46 1.03,-0.81 1.67,-1 0.1,-0.03 0.21,-0.06 0.32,-0.08l0.03 -0.01c0.11,-0.02 0.22,-0.04 0.34,-0.06l0.09 -0.01 0.08 -0.01 0.05 -0 0.04 -0 0.08 -0.01 0.11 -0 0.05 0 0.05 0 0.11 0 0.08 0.01 0.03 0 0.06 0 0.07 0.01 0.1 0.01 0.23 0.03 0.03 0.01 0.05 0.01 0.11 0.02c0.14,0.03 0.28,0.08 0.42,0.12l0.07 0.02c0.09,0.03 0.19,0.07 0.28,0.11l0.05 0.02 0.07 0.03 0.17 0.09 0.05 0.03 0.15 0.09 0.02 0.01c0.07,0.05 0.14,0.1 0.21,0.15l0.05 0.04 0.13 0.1 0.08 0.07 0.07 0.06 0.04 0.04 0.02 0.02 0.02 0.02 0.03 0.03 0.01 0.01 0 0 0.01 0.01 0.01 0.01 0.02 0.02 0.02 0.02 0.05 0.05 0.05 0.06c0.4,0.45 0.7,0.98 0.86,1.58 9.38,-0.96 17.73,-5.36 23.79,-11.91 6.18,-6.7 9.96,-15.66 9.96,-25.5 0,-9.84 -3.78,-18.8 -9.96,-25.5 -6.05,-6.56 -14.41,-10.96 -23.79,-11.92zm-2.22 74.47l-0.08 -0.09 -0.04 -0.04 -0.12 -0.1 -0.05 -0.04 -0.01 -0 -0.15 -0.11c-0.07,-0.05 -0.15,-0.09 -0.22,-0.13l-0.03 -0.01 -0.03 -0.01 -0.03 -0.02 -0.04 -0.02 -0.02 -0.01 -0.11 -0.04c-0.08,-0.03 -0.17,-0.05 -0.26,-0.07l-0.02 -0 -0.02 -0 -0.1 -0.02 -0.06 -0.01c-0.08,-0.01 -0.16,-0.02 -0.24,-0.02l-0.03 0 -0.03 0c-0.08,0 -0.16,0.01 -0.24,0.02l-0.07 0.01 -0.09 0.02c-0.43,0.08 -0.82,0.3 -1.12,0.6l-0 -0 -0.01 0.01 -0.08 0.09c-0.33,0.38 -0.54,0.88 -0.54,1.43 0,0.6 0.24,1.14 0.64,1.54 0.39,0.39 0.93,0.64 1.54,0.64 0.58,0 1.11,-0.23 1.5,-0.6l0.04 -0.04c0.39,-0.39 0.63,-0.94 0.63,-1.54 0,-0.55 -0.2,-1.05 -0.54,-1.43zm-49.04 -6.89c-0.8,-0.78 -1.97,-1.69 -2.98,-1.59 -1,0.11 -1.83,0.69 -2.38,1.2 0.96,0.45 2.75,0.98 5.36,0.39zm68.03 7.49c0.67,-0.18 -0.42,-1.48 -1.32,-2.42 -0.58,1.64 -0.7,2.44 -0.5,2.72 0.1,0.14 0.84,-0.04 1.82,-0.31zm25.53 -16.13c0.99,0.05 2.53,-0.02 2.97,-0.93 0.47,-0.97 0.43,-1.94 0.32,-2.57 -0.99,0.18 -2.76,0.88 -3.29,3.5zm11.63 16.08c-1.73,-0.48 -3.05,0.42 -3.69,1.02 1.98,2.51 5,1.96 6.37,1.54 -0.28,-0.8 -0.99,-2.09 -2.68,-2.55zm4.08 3.98c-0.07,0.03 -0.15,0.04 -0.23,0.05l0.23 -0.05zm-11.4 -13c-1.01,-0.11 -2.18,0.81 -2.98,1.59 2.61,0.59 4.41,0.07 5.36,-0.39 -0.55,-0.5 -1.38,-1.09 -2.38,-1.2zm-69.69 6.66c-0.9,0.94 -1.99,2.24 -1.32,2.42 0.98,0.27 1.72,0.45 1.82,0.31 0.2,-0.28 0.08,-1.09 -0.5,-2.72zm-29.82 -14.65c0.44,0.91 1.97,0.98 2.97,0.93 -0.53,-2.62 -2.3,-3.31 -3.29,-3.5 -0.11,0.62 -0.15,1.59 0.32,2.57zm-4.97 18.03c-0.64,-0.6 -1.96,-1.49 -3.69,-1.02 -1.69,0.46 -2.39,1.76 -2.68,2.55 1.37,0.42 4.39,0.98 6.37,-1.54z"/>
   </g>
   <path class="fil0" d="M5.73 109.03c1.58,0 3.02,0.64 4.05,1.68 1.04,1.03 1.68,2.47 1.68,4.05 0,1.58 -0.64,3.02 -1.68,4.05 -1.03,1.04 -2.47,1.68 -4.05,1.68 -1.58,0 -3.02,-0.64 -4.05,-1.68 -1.04,-1.04 -1.68,-2.47 -1.68,-4.05 0,-1.58 0.64,-3.02 1.68,-4.05 1.04,-1.04 2.47,-1.68 4.05,-1.68zm2.46 3.27c-0.63,-0.63 -1.5,-1.02 -2.46,-1.02 -0.96,0 -1.84,0.39 -2.46,1.02 -0.63,0.63 -1.02,1.5 -1.02,2.46 0,0.96 0.39,1.83 1.02,2.46 0.63,0.63 1.5,1.02 2.46,1.02 0.96,0 1.84,-0.39 2.46,-1.02 0.63,-0.63 1.02,-1.5 1.02,-2.46 0,-0.96 -0.39,-1.84 -1.02,-2.46zm174.26 -3.27c1.58,0 3.02,0.64 4.05,1.68 1.04,1.03 1.68,2.47 1.68,4.05 0,1.58 -0.64,3.02 -1.68,4.05 -1.03,1.04 -2.47,1.68 -4.05,1.68 -1.58,0 -3.02,-0.64 -4.05,-1.68 -1.04,-1.04 -1.68,-2.47 -1.68,-4.05 0,-1.58 0.64,-3.02 1.68,-4.05 1.03,-1.04 2.47,-1.68 4.05,-1.68zm2.46 3.27c-0.63,-0.63 -1.5,-1.02 -2.46,-1.02 -0.96,0 -1.84,0.39 -2.46,1.02 -0.63,0.63 -1.02,1.5 -1.02,2.46 0,0.96 0.39,1.83 1.02,2.46 0.63,0.63 1.5,1.02 2.46,1.02 0.96,0 1.84,-0.39 2.46,-1.02 0.63,-0.63 1.02,-1.5 1.02,-2.46 0,-0.96 -0.39,-1.84 -1.02,-2.46z"/>
   <path class="fil0" d="M18.25 92.31c-0.62,0 -1.12,-0.5 -1.12,-1.12 0,-0.62 0.5,-1.12 1.12,-1.12l151.69 0c0.62,0 1.12,0.5 1.12,1.12 0,0.62 -0.5,1.12 -1.12,1.12l-151.69 0z"/>
  </g>
 </g>
</svg>
