<?xml version="1.0" encoding="UTF-8"?>
<!DOCTYPE svg PUBLIC "-//W3C//DTD SVG 1.1//EN" "http://www.w3.org/Graphics/SVG/1.1/DTD/svg11.dtd">
<!-- Creator: CorelDRAW 2019 (64-Bit) -->
<svg xmlns="http://www.w3.org/2000/svg" xml:space="preserve" width="21.3194mm" height="4.923mm" version="1.1" style="shape-rendering:geometricPrecision; text-rendering:geometricPrecision; image-rendering:optimizeQuality; fill-rule:evenodd; clip-rule:evenodd"
viewBox="0 0 362.88 83.8"
 xmlns:xlink="http://www.w3.org/1999/xlink">
 <defs>
  <style type="text/css">
   <![CDATA[
    .fil0 {fill:#FEFEFE;fill-rule:nonzero}
    .fil1 {fill:#CDAA3B;fill-rule:nonzero}
   ]]>
  </style>
 </defs>
 <g id="Слой_x0020_1">
  <metadata id="CorelCorpID_0Corel-Layer"/>
  <g id="_1769785075136">
   <path class="fil0" d="M132.57 75.01c0,-2.32 -1.61,-3.76 -3.91,-3.87l0 7.86c2.3,-0.14 3.91,-1.63 3.91,-3.98zm-5.19 3.98l0 -7.86c-2.3,0.12 -3.91,1.55 -3.91,3.87 0,2.36 1.61,3.85 3.91,3.98zm0 -9.02l0 -3.6 1.28 0 0 3.6c3.04,0.13 5.24,2.07 5.24,5.03 0,3.02 -2.2,4.99 -5.24,5.13l0 3.66 -1.28 0 0 -3.66c-3.04,-0.14 -5.24,-2.11 -5.24,-5.13 0,-2.96 2.2,-4.9 5.24,-5.03z"/>
   <path class="fil0" d="M141.26 78.96c2.09,0 3.79,-1.66 3.79,-3.95 0,-2.21 -1.7,-3.87 -3.79,-3.87 -2.09,0 -3.77,1.66 -3.77,3.87 0,2.28 1.68,3.95 3.77,3.95zm0 -9c2.85,0 5.15,2.17 5.15,5.05 0,2.94 -2.3,5.14 -5.15,5.14 -2.84,0 -5.13,-2.21 -5.13,-5.14 0,-2.88 2.28,-5.05 5.13,-5.05z"/>
   <polygon class="fil0" points="149.25,70.19 150.56,70.19 150.56,74.35 156.25,74.35 156.25,70.19 157.57,70.19 157.57,79.93 156.25,79.93 156.25,75.52 150.56,75.52 150.56,79.93 149.25,79.93 "/>
   <path class="fil0" d="M167.34 78.8l0 -7.49 -3.41 0 0 0.58c0,1.45 -0.14,4.72 -1.59,6.91l4.99 0zm-6.41 0c1.64,-2.15 1.7,-5.71 1.7,-7.02l0 -1.59 6.02 0 0 8.61 1.37 0 0 3.44 -1.26 0 0 -2.32 -7.78 0 0 2.32 -1.26 0 0 -3.44 1.2 0z"/>
   <polygon class="fil0" points="177.76,70.19 185.91,70.19 185.91,79.93 184.59,79.93 184.59,71.35 179.08,71.35 179.08,79.93 177.76,79.93 "/>
   <path class="fil0" d="M193.8 78.98c1.72,0 3.15,-1.43 3.15,-3.91 0,-2.38 -1.28,-3.9 -3.1,-3.9 -1.62,0 -3.15,1.16 -3.15,3.93 0,1.95 1.1,3.89 3.1,3.89zm-4.37 -8.79l1.26 0 0 1.03c0,0.43 -0.06,0.76 -0.06,0.76l0.04 0c0.6,-1.26 1.88,-2.01 3.39,-2.01 2.63,0 4.24,2.09 4.24,5.09 0,3.1 -1.82,5.11 -4.36,5.11 -1.37,0 -2.57,-0.72 -3.21,-1.94l-0.04 0c0,0 0.06,0.35 0.06,0.85l0 4.72 -1.32 0 0 -13.6z"/>
   <path class="fil0" d="M206.32 75.17l0 -3.97 -1.86 0c-1.45,0 -2.34,0.56 -2.34,1.95 0,1.32 0.99,2.01 2.25,2.01l1.95 0zm-3.75 1.41c0.19,-0.31 0.44,-0.58 0.44,-0.58l0 -0.04c-1.14,-0.23 -2.24,-1.22 -2.24,-2.81 0,-1.95 1.43,-2.96 3.44,-2.96l3.42 0 0 9.73 -1.32 0 0 -3.73 -2.01 0 -2.55 3.73 -1.53 0 2.34 -3.35z"/>
   <path class="fil0" d="M211.6 70.19l1.39 0 2.92 6c0.27,0.6 0.6,1.38 0.6,1.38l0.04 0c0,0 0.31,-0.76 0.6,-1.38l2.94 -6 1.37 0 0.81 9.73 -1.3 0 -0.48 -6.29c-0.02,-0.52 0,-1.68 0,-1.68l-0.04 0c0,0 -0.21,0.62 -0.62,1.41l-2.71 5.44 -1.2 0 -2.69 -5.4c-0.37,-0.75 -0.64,-1.45 -0.64,-1.45l-0.04 0c0,0 0.04,1.16 0,1.68l-0.48 6.29 -1.28 0 0.79 -9.73z"/>
   <path class="fil0" d="M233.88 70.19l1.32 0 0 9.73 -1.32 0 0 -9.73zm-5.2 8.69c1.57,0 2.2,-0.79 2.2,-1.95 0,-1.18 -0.66,-1.97 -2.19,-1.97l-1.95 0 0 3.93 1.94 0zm-3.25 -8.69l1.32 0 0 3.71 2.09 0c1.74,0 3.41,0.74 3.41,3.04 0,1.76 -1.1,2.98 -3.45,2.98l-3.37 0 0 -9.73z"/>
   <path class="fil0" d="M240.95 74.85l-3.14 -4.66 1.55 0 2.09 3.27c0.16,0.25 0.33,0.56 0.33,0.56l0.04 0c0,0 0.18,-0.31 0.33,-0.56l2.09 -3.27 1.53 0 -3.13 4.66 3.42 5.07 -1.55 0 -2.36 -3.66c-0.18,-0.25 -0.33,-0.54 -0.33,-0.54l-0.04 0c0,0 -0.15,0.27 -0.33,0.54l-2.38 3.66 -1.53 0 3.4 -5.07z"/>
   <path class="fil0" d="M253.6 70.19l1.28 0 0 6.38c0,0.6 -0.04,1.41 -0.06,1.45l0.04 0c0.04,-0.08 0.62,-0.91 1.01,-1.45l4.78 -6.38 1.26 0 0 9.73 -1.3 0 0 -6.41c0,-0.56 0.06,-1.33 0.06,-1.41l-0.04 0c-0.02,0.09 -0.62,0.87 -0.99,1.41l-4.78 6.41 -1.26 0 0 -9.73z"/>
   <polygon class="fil0" points="265.42,70.19 266.73,70.19 266.73,74.35 272.42,74.35 272.42,70.19 273.74,70.19 273.74,79.93 272.42,79.93 272.42,75.52 266.73,75.52 266.73,79.93 265.42,79.93 "/>
   <path class="fil0" d="M280.8 78.9c1.61,0 2.34,-0.68 2.34,-1.72 0,-1.14 -0.85,-1.76 -2.36,-1.76l-2.21 0 0 3.48 2.22 0zm-0.15 -4.49c1.31,0 1.99,-0.62 1.99,-1.66 0,-1.04 -0.7,-1.55 -2.07,-1.55l-1.99 0 0 3.21 2.07 0zm-3.39 -4.22l3.52 0c1.97,0 3.21,0.87 3.21,2.48 0,1.01 -0.52,1.8 -1.47,2.15l0 0.04c1.26,0.25 1.97,1.2 1.97,2.34 0,1.68 -1.34,2.73 -3.52,2.73l-3.71 0 0 -9.73z"/>
   <path class="fil0" d="M294.26 74.06c-0.08,-2.03 -1.32,-3.02 -2.77,-3.02 -1.62,0 -3.04,1.07 -3.35,3.02l6.12 0zm-2.73 -4.1c2.69,0 4.06,2.07 4.06,4.49 0,0.21 -0.02,0.45 -0.04,0.66l-7.47 0c0.06,2.48 1.76,3.85 3.77,3.85 1.07,0 2.17,-0.45 2.96,-1.16l0.6 1.01c-0.91,0.83 -2.32,1.35 -3.6,1.35 -2.9,0 -5.11,-2.09 -5.11,-5.09 0,-3.19 2.18,-5.11 4.82,-5.11z"/>
   <path class="fil0" d="M302.91 69.96c1.28,0 2.69,0.45 3.56,1.39l-0.68 0.99c-0.68,-0.7 -1.76,-1.2 -2.84,-1.2 -2.13,0 -3.79,1.61 -3.79,3.93 0,2.29 1.66,3.89 3.83,3.89 1.12,0 2.34,-0.48 3.11,-1.34l0.6 0.99c-0.85,0.95 -2.3,1.55 -3.79,1.55 -2.88,0 -5.11,-2.07 -5.11,-5.09 0,-3 2.25,-5.11 5.11,-5.11z"/>
   <polygon class="fil0" points="311.75,71.35 308.21,71.35 308.21,70.19 316.63,70.19 316.63,71.35 313.07,71.35 313.07,79.93 311.75,79.93 "/>
   <path class="fil0" d="M319.03 70.19l1.28 0 0 6.38c0,0.6 -0.04,1.41 -0.06,1.45l0.04 0c0.04,-0.08 0.62,-0.91 1.01,-1.45l4.78 -6.38 1.26 0 0 9.73 -1.3 0 0 -6.41c0,-0.56 0.06,-1.33 0.06,-1.41l-0.04 0c-0.02,0.09 -0.62,0.87 -0.99,1.41l-4.78 6.41 -1.26 0 0 -9.73z"/>
   <polygon class="fil0" points="330.84,70.19 332.16,70.19 332.16,78.76 337.54,78.76 337.54,70.19 338.88,70.19 338.88,78.76 340.23,78.76 340.23,82.25 338.99,82.25 338.99,79.93 330.84,79.93 "/>
   <path class="fil0" d="M342.76 70.19l1.28 0 0 6.38c0,0.6 -0.04,1.41 -0.06,1.45l0.04 0c0.04,-0.08 0.62,-0.91 1.01,-1.45l4.78 -6.38 1.26 0 0 9.73 -1.3 0 0 -6.41c0,-0.56 0.06,-1.33 0.06,-1.41l-0.04 0c-0.02,0.09 -0.62,0.87 -0.99,1.41l-4.78 6.41 -1.26 0 0 -9.73z"/>
   <path class="fil0" d="M356.17 66.63l0 -0.33 1.14 0 0 0.29c0,0.87 0.68,1.33 1.41,1.33 0.71,0 1.43,-0.46 1.43,-1.35l0 -0.27 1.13 0 0 0.33c0,1.45 -1.24,2.28 -2.55,2.28 -1.32,0 -2.55,-0.83 -2.55,-2.28zm-1.59 3.56l1.27 0 0 6.39c0,0.6 -0.04,1.41 -0.05,1.45l0.04 0c0.04,-0.08 0.62,-0.91 1.01,-1.45l4.78 -6.39 1.26 0 0 9.73 -1.3 0 0 -6.41c0,-0.56 0.06,-1.33 0.06,-1.41l-0.04 0c-0.02,0.09 -0.62,0.87 -0.99,1.41l-4.78 6.41 -1.26 0 0 -9.73z"/>
   <path class="fil0" d="M34.66 48.24c3.18,-0.45 5.41,-3.14 5.41,-12.29l0 -8.09 18.81 0 0 25.79 -6.42 0 0 -20.58 -6.27 0 0 2.88c0,11.22 -2.98,17.7 -11.53,17.95l0 -5.66z"/>
   <path class="fil0" d="M75.9 49.25c2.93,0 4.3,-1.72 4.3,-4.05 0,-2.37 -1.37,-4.14 -4.4,-4.14l-3.64 0 0 8.19 3.74 0zm-10.16 -21.39l6.42 0 0 8.85 4.81 0c6.06,0 9.71,2.93 9.71,8.54 0,5.01 -2.98,8.39 -9.76,8.39l-11.17 0 0 -25.79z"/>
   <path class="fil0" d="M117.66 40.75c0,-4.95 -3.29,-7.99 -7.74,-8.29l0 16.63c4.45,-0.36 7.74,-3.44 7.74,-8.34zm-13.8 8.34l0 -16.63c-4.45,0.3 -7.74,3.34 -7.74,8.29 0,4.91 3.29,7.99 7.74,8.34zm0 -21.79l0 -9.05 6.07 0 0 9.05c7.94,0.25 13.95,5.56 13.95,13.45 0,7.94 -6.02,13.2 -13.95,13.5l0 9.5 -6.07 0 0 -9.5c-7.94,-0.3 -14.01,-5.56 -14.01,-13.5 0,-7.89 6.07,-13.19 14.01,-13.45z"/>
   <path class="fil0" d="M137.52 49.35c3.59,0 5.92,-3.64 5.92,-6.78l0 -0.7 -1.11 0c-3.24,0 -8.7,0.45 -8.7,4.09 0,1.72 1.32,3.39 3.89,3.39zm4.75 -11.88l1.11 0 0 -0.35c0,-3.39 -2.18,-4.55 -4.85,-4.55 -2.53,0 -5.11,1.06 -7.18,2.48l-2.37 -4.6c2.12,-1.72 6.27,-3.18 10.11,-3.18 6.73,0 10.72,3.74 10.72,10.26l0 16.13 -5.97 0 0 -2.17c0,-1.06 0.15,-1.87 0.15,-1.87l-0.1 0c-1.57,2.73 -4.65,4.65 -8.14,4.65 -4.65,0 -8.49,-3.03 -8.49,-7.74 0,-7.74 9.3,-9.05 15.02,-9.05z"/>
   <path class="fil0" d="M209.2 49.35c3.59,0 5.92,-3.64 5.92,-6.78l0 -0.7 -1.11 0c-3.24,0 -8.69,0.45 -8.69,4.09 0,1.72 1.31,3.39 3.89,3.39zm4.75 -11.88l1.11 0 0 -0.35c0,-3.39 -2.18,-4.55 -4.85,-4.55 -2.53,0 -5.11,1.06 -7.18,2.48l-2.38 -4.6c2.12,-1.72 6.27,-3.18 10.11,-3.18 6.72,0 10.72,3.74 10.72,10.26l0 16.13 -5.96 0 0 -2.17c0,-1.06 0.15,-1.87 0.15,-1.87l-0.1 0c-1.57,2.73 -4.65,4.65 -8.14,4.65 -4.65,0 -8.49,-3.03 -8.49,-7.74 0,-7.74 9.3,-9.05 15.02,-9.05z"/>
   <polygon class="fil0" points="228,27.86 251.51,27.86 251.51,53.65 245.09,53.65 245.09,33.32 234.42,33.32 234.42,53.65 228,53.65 "/>
   <path class="fil0" d="M258.39 27.86l6.12 0 0 13.8c0,1.16 -0.1,2.68 -0.15,3.09l0.1 0c0.3,-0.66 1.26,-2.07 1.92,-3.09l9.56 -13.8 6.22 0 0 25.79 -6.12 0 0 -13.75c0,-0.96 0.1,-2.43 0.15,-3.08l-0.1 0c-0.3,0.71 -1.26,2.07 -1.92,3.08l-9.55 13.75 -6.22 0 0 -25.79z"/>
   <polygon class="fil0" points="295.04,33.32 286.54,33.32 286.54,27.86 309.95,27.86 309.95,33.32 301.41,33.32 301.41,53.65 295.04,53.65 "/>
   <path class="fil0" d="M322.28 49.35c3.59,0 5.91,-3.64 5.91,-6.78l0 -0.7 -1.11 0c-3.23,0 -8.69,0.45 -8.69,4.09 0,1.72 1.31,3.39 3.89,3.39zm4.75 -11.88l1.11 0 0 -0.35c0,-3.39 -2.18,-4.55 -4.85,-4.55 -2.53,0 -5.1,1.06 -7.18,2.48l-2.38 -4.6c2.12,-1.72 6.27,-3.18 10.11,-3.18 6.72,0 10.72,3.74 10.72,10.26l0 16.13 -5.97 0 0 -2.17c0,-1.06 0.15,-1.87 0.15,-1.87l-0.1 0c-1.57,2.73 -4.65,4.65 -8.14,4.65 -4.65,0 -8.49,-3.03 -8.49,-7.74 0,-7.74 9.3,-9.05 15.02,-9.05z"/>
   <path class="fil0" d="M338.66 48.24c3.18,-0.45 5.41,-3.14 5.41,-12.29l0 -8.09 18.81 0 0 25.79 -6.42 0 0 -20.58 -6.27 0 0 2.88c0,11.22 -2.98,17.7 -11.53,17.95l0 -5.66z"/>
   <path class="fil0" d="M20.68 39.36l-3.18 -9.61c-0.61,-2.02 -1.41,-5.56 -1.41,-5.56l-0.1 0c0,0 -0.81,3.54 -1.41,5.56l-3.24 9.61 9.35 0zm-4.65 -21.39l0 0c2.06,0 3.89,1.3 4.58,3.24l11.45 32.65 -3.58 0c-1.85,0 -3.49,-1.18 -4.08,-2.93l-2.1 -6.27 -12.59 0 -2.06 6.25c-0.58,1.77 -2.23,2.95 -4.09,2.95l-3.56 0 11.45 -32.65c0.68,-1.94 2.52,-3.24 4.58,-3.24z"/>
   <path class="fil1" d="M31.63 6.47l-3.17 -3.17 -4.32 4.32c-1.84,-1.03 -3.83,-1.68 -5.86,-1.96l0 -5.66 -4.49 0 0 5.66c-2.03,0.28 -4.02,0.93 -5.86,1.96l-4.33 -4.33 -3.17 3.17 7.05 7.05 0 -0c0,0 0,0 0,0 4.72,-4.72 12.38,-4.72 17.1,0l7.05 -7.05z"/>
   <path class="fil0" d="M169.89 17.75l2.22 0c2.37,0 4.3,1.93 4.3,4.3l0 10.31 4.65 0 7.2 -12.46c0.77,-1.33 2.19,-2.15 3.72,-2.15l4.6 0 -10.16 17.09 0 0.1 10.77 18.71 -4.86 0c-1.56,0 -2.99,-0.84 -3.75,-2.2l-7.52 -13.47 -4.65 0 0 11.38c0,2.38 -1.93,4.3 -4.3,4.3l-2.22 0 0 -35.9z"/>
  </g>
 </g>
</svg>
