<?xml version="1.0" encoding="UTF-8"?>
<!DOCTYPE svg PUBLIC "-//W3C//DTD SVG 1.1//EN" "http://www.w3.org/Graphics/SVG/1.1/DTD/svg11.dtd">
<!-- Creator: CorelDRAW 2019 (64-Bit) -->
<svg xmlns="http://www.w3.org/2000/svg" xml:space="preserve" width="3.7791mm" height="6.35mm" version="1.1" style="shape-rendering:geometricPrecision; text-rendering:geometricPrecision; image-rendering:optimizeQuality; fill-rule:evenodd; clip-rule:evenodd"
viewBox="0 0 11.42 19.19"
 xmlns:xlink="http://www.w3.org/1999/xlink">
 <defs>
  <style type="text/css">
   <![CDATA[
    .fil0 {fill:#2C2F47;fill-rule:nonzero}
    .fil1 {fill:#CDAA3B;fill-rule:nonzero}
   ]]>
  </style>
 </defs>
 <g id="Слой_x0020_1">
  <metadata id="CorelCorpID_0Corel-Layer"/>
  <g id="_1783178907792">
   <path class="fil0" d="M7.37 14.02l-1.13 -3.42c-0.22,-0.72 -0.5,-1.98 -0.5,-1.98l-0.04 0c0,0 -0.29,1.26 -0.5,1.98l-1.15 3.42 3.33 0zm-1.66 -7.62l0 0c0.73,0 1.39,0.46 1.63,1.16l4.08 11.63 -1.27 0c-0.66,0 -1.24,-0.42 -1.45,-1.05l-0.75 -2.23 -4.48 0 -0.73 2.22c-0.21,0.63 -0.79,1.05 -1.46,1.05l-1.27 0 4.08 -11.63c0.24,-0.69 0.9,-1.16 1.63,-1.16z"/>
   <path class="fil1" d="M11.27 2.31l-1.13 -1.13 -1.54 1.54c-0.66,-0.37 -1.36,-0.6 -2.09,-0.7l0 -2.02 -1.6 0 0 2.02c-0.72,0.1 -1.43,0.33 -2.09,0.7l-1.54 -1.54 -1.13 1.13 2.51 2.51 0 -0c0,0 0,0 0,0 1.68,-1.68 4.41,-1.68 6.09,0l2.51 -2.51z"/>
  </g>
 </g>
</svg>
