<?xml version="1.0" encoding="UTF-8"?>
<!DOCTYPE svg PUBLIC "-//W3C//DTD SVG 1.1//EN" "http://www.w3.org/Graphics/SVG/1.1/DTD/svg11.dtd">
<!-- Creator: CorelDRAW 2019 (64-Bit) -->
<svg xmlns="http://www.w3.org/2000/svg" xml:space="preserve" width="10.1598mm" height="10.1598mm" version="1.1" style="shape-rendering:geometricPrecision; text-rendering:geometricPrecision; image-rendering:optimizeQuality; fill-rule:evenodd; clip-rule:evenodd"
viewBox="0 0 329.51 329.51"
 xmlns:xlink="http://www.w3.org/1999/xlink">
 <defs>
  <style type="text/css">
   <![CDATA[
    .fil1 {fill:#FEFEFE}
    .fil0 {fill:#CDAA3B}
   ]]>
  </style>
 </defs>
 <g id="Слой_x0020_1">
  <metadata id="CorelCorpID_0Corel-Layer"/>
  <rect class="fil0" width="329.51" height="329.51"/>
  <path class="fil1" d="M174.37 97.73l-9.72 0c-1.73,0 -3.13,1.4 -3.13,3.13l0 11.66c0,1.73 1.4,3.13 3.13,3.13l9.72 0c1.73,0 3.13,-1.4 3.13,-3.13l0 -11.66c0,-1.73 -1.4,-3.13 -3.13,-3.13zm70.98 97.87c-3.17,-4.66 -9.54,-5.89 -14.21,-2.75l-6.79 4.55 0 -106.31 0.49 0c1.79,0 3.25,-1.46 3.25,-3.25l0 -6.34c0,-1.79 -1.46,-3.24 -3.25,-3.24l-15.78 0c-1.37,0 -2.47,1.11 -2.47,2.47 0,1.37 1.11,2.47 2.47,2.47l14.08 0 0 2.94 -69.39 0 0 -2.94 39.83 0c1.37,0 2.47,-1.11 2.47,-2.47 0,-1.36 -1.11,-2.47 -2.47,-2.47l-41.53 0c-1.79,0 -3.25,1.45 -3.25,3.24l0 6.34c0,1.79 1.46,3.25 3.25,3.25l1.26 0 0 31.74 -5.08 0 0 -6.1c0,-2.12 -1.73,-3.85 -3.85,-3.85l-18.66 0c-2.12,0 -3.85,1.73 -3.85,3.85l0 6.1 -3.55 0c-2.21,0 -4,1.8 -4,4.01l0 56.68c-1.04,-0.06 -2.1,-0.1 -3.15,-0.1l-3.9 0 0 -1.28c0,-4.8 -3.9,-8.7 -8.7,-8.7l-7.51 0c-4.79,0 -8.7,3.9 -8.7,8.7l0 35.29c0,1.36 1.11,2.47 2.47,2.47 1.37,0 2.47,-1.11 2.47,-2.47l0 -35.29c0,-2.07 1.68,-3.75 3.75,-3.75l7.51 0c2.07,0 3.75,1.68 3.75,3.75l0 55.61c0,2.07 -1.68,3.75 -3.75,3.75l-7.51 0c-2.07,0 -3.75,-1.68 -3.75,-3.75l0 -4.85c0,-1.37 -1.11,-2.47 -2.47,-2.47 -1.37,0 -2.47,1.11 -2.47,2.47l0 4.85c0,4.79 3.9,8.7 8.7,8.7l7.51 0c4.8,0 8.7,-3.9 8.7,-8.7l0 -0.14 34.22 12.96c0.06,0.03 0.13,0.05 0.2,0.07 1.5,0.42 3,0.64 4.5,0.64 0.81,0 1.62,-0.06 2.41,-0.19 0,0 0,0 0.01,0l50.51 -7.28c0.01,-0 0.03,-0 0.04,-0.01 4.32,-0.69 8.39,-2.51 11.78,-5.28 0.03,-0.03 0.06,-0.05 0.09,-0.08l32.65 -29.36c3.85,-3.42 4.57,-9.2 1.67,-13.46zm-87.1 -104.52l61.15 0 0 109.62 -20.56 13.76 -6.9 -0.39 -0.18 -1.76c-0.13,-1.3 -0.42,-2.54 -0.85,-3.72 -0.14,-0.39 -0.3,-0.78 -0.48,-1.15 -0.26,-0.56 -0.56,-1.11 -0.89,-1.63 -0.77,-1.24 -1.72,-2.35 -2.81,-3.31l6.94 0c1.73,0 3.13,-1.4 3.13,-3.13l0 -11.66c0,-1.73 -1.4,-3.13 -3.13,-3.13l-9.72 0c-1.73,0 -3.13,1.4 -3.13,3.13l0 11.6c-0.63,-0.17 -1.27,-0.3 -1.92,-0.4 -0.02,-0 -0.04,-0.01 -0.06,-0.01l-1.36 -0.16 0 -11.04c0,-1.73 -1.4,-3.13 -3.13,-3.13l-9.72 0c-1.73,0 -3.13,1.4 -3.13,3.13l0 9.2 -3.27 -0.38 0 -105.45zm27.53 106.48l0 -8.03 6.09 0 0 8.03 -6.09 0zm-13.23 -8.03l0 8.03 -5.43 0 -0.66 -0.07 0 -7.96 6.09 0zm-45.74 -71.71l16.48 0 0 5.01 -16.48 0 0 -5.01zm-7.55 9.95l0 0 34.05 0 0 7.73 -27.91 0c-1.6,0 -2.9,1.3 -2.9,2.9l0 7.46c0,1.6 1.3,2.9 2.9,2.9l27.91 0 0 6.95 -27.91 0c-1.6,0 -2.9,1.3 -2.9,2.9l0 7.46c0,1.6 1.3,2.9 2.9,2.9l27.91 0 0 6.95 -27.91 0c-1.6,0 -2.9,1.3 -2.9,2.9l0 5.9c-0.42,-0.1 -0.84,-0.19 -1.26,-0.28 -0.2,-0.04 -0.4,-0.08 -0.6,-0.12 -0.23,-0.05 -0.47,-0.09 -0.7,-0.13 -0.22,-0.04 -0.45,-0.08 -0.67,-0.12l0 -56.3zm34.05 12.67l0 3.37 -25.86 0 0 -3.37 25.86 0zm0 20.21l0 3.37 -25.86 0 0 -3.37 25.86 0zm-25.86 23.58l0 -3.37 25.86 0 0 3.37 -25.86 0zm25.86 4.94l0 6.79 -0.76 -0.09c-1.6,-0.23 -3.17,-0.54 -4.72,-0.93 -3,-0.76 -5.91,-1.83 -8.7,-3.2 -0.37,-0.18 -0.74,-0.37 -1.1,-0.56 -0.6,-0.31 -1.19,-0.64 -1.77,-0.99 -0.43,-0.25 -0.87,-0.49 -1.3,-0.73 -0.09,-0.05 -0.19,-0.1 -0.29,-0.15 -0.08,-0.05 -0.17,-0.09 -0.26,-0.14l18.9 -0zm87.08 16.19l-32.61 29.33c-2.7,2.19 -5.94,3.64 -9.37,4.19l-50.51 7.28c-0.01,0 -0.06,0.01 -0.07,0.01 -1.51,0.24 -3.08,0.14 -4.68,-0.3l-35.87 -13.58 0 -43.96 3.9 0c1.79,0 3.58,0.11 5.35,0.33 0.36,0.04 0.72,0.09 1.07,0.14 0.05,0.01 0.1,0.02 0.16,0.02 0.9,0.13 1.8,0.3 2.69,0.48 0.28,0.06 0.55,0.12 0.83,0.18 0.14,0.03 0.28,0.06 0.41,0.1 0.36,0.09 0.72,0.18 1.07,0.27 0.06,0.02 0.13,0.03 0.19,0.05 2.79,0.76 5.51,1.79 8.11,3.08 0.08,0.04 0.16,0.08 0.23,0.12 0.33,0.17 0.66,0.34 0.99,0.51 0.1,0.05 0.2,0.11 0.3,0.16 0.4,0.21 0.79,0.43 1.17,0.66 0.01,0 0.01,0.01 0.02,0.01 1.05,0.61 2.12,1.19 3.2,1.72 4.7,2.31 9.7,3.85 14.92,4.59 0.02,0 0.04,0.01 0.06,0.01l3.55 0.41 2.89 0.33 6.66 0.77 1.65 0.19c0,0 0,0 0,0l11.55 1.33c4.6,0.67 8.13,4.36 8.59,8.99l0.09 0.86 -46.32 -4.51c-1.36,-0.13 -2.57,0.86 -2.7,2.22 -0.13,1.36 0.86,2.57 2.22,2.7l49.11 4.79c0.1,0.02 0.21,0.04 0.32,0.04l9.83 0.55c0.05,0 0.09,0 0.14,0 0.05,0 0.09,-0.01 0.15,-0.01 0.06,-0 0.11,-0 0.17,-0.01 0.07,-0.01 0.14,-0.02 0.21,-0.04 0.06,-0.01 0.11,-0.02 0.16,-0.04 0.07,-0.02 0.15,-0.05 0.22,-0.08 0.05,-0.02 0.09,-0.03 0.14,-0.05 0.11,-0.05 0.22,-0.11 0.33,-0.18l22.35 -14.96 0 0 10.64 -7.12c2.42,-1.63 5.73,-0.99 7.37,1.42 1.5,2.21 1.13,5.21 -0.88,6.99zm-27.39 -20.78l-9.72 0c-1.73,0 -3.13,1.4 -3.13,3.13l0 11.66c0,1.73 1.4,3.13 3.13,3.13l9.72 0c1.73,0 3.13,-1.4 3.13,-3.13l0 -11.66c0,-1.73 -1.4,-3.13 -3.13,-3.13zm-1.81 12.97l-6.09 0 0 -8.03 6.09 0 0 8.03zm1.81 -41.93l-9.72 0c-1.73,0 -3.13,1.4 -3.13,3.13l0 11.66c0,1.73 1.4,3.13 3.13,3.13l9.72 0c1.73,0 3.13,-1.4 3.13,-3.13l0 -11.66c0,-1.73 -1.4,-3.13 -3.13,-3.13zm-1.81 12.97l-6.09 0 0 -8.03 6.09 0 0 8.03zm-17.5 -12.97l-9.72 0c-1.73,0 -3.13,1.4 -3.13,3.13l0 11.66c0,1.73 1.4,3.13 3.13,3.13l9.72 0c1.73,0 3.13,-1.4 3.13,-3.13l0 -11.66c0,-1.73 -1.4,-3.13 -3.13,-3.13zm-1.81 12.97l-6.09 0 0 -8.03 6.09 0 0 8.03zm-17.5 -12.97l-9.72 0c-1.73,0 -3.13,1.4 -3.13,3.13l0 11.66c0,1.73 1.4,3.13 3.13,3.13l9.72 0c1.73,0 3.13,-1.4 3.13,-3.13l0 -11.66c0,-1.73 -1.4,-3.13 -3.13,-3.13zm-1.81 12.97l-6.09 0 0 -8.03 6.09 0 0 8.03zm40.45 -41.93l-9.72 0c-1.73,0 -3.13,1.4 -3.13,3.13l0 11.66c0,1.73 1.4,3.13 3.13,3.13l9.72 0c1.73,0 3.13,-1.4 3.13,-3.13l0 -11.66c0,-1.73 -1.4,-3.13 -3.13,-3.13zm-1.81 12.97l-6.09 0 0 -8.03 6.09 0 0 8.03zm-17.5 -12.97l-9.72 0c-1.73,0 -3.13,1.4 -3.13,3.13l0 11.66c0,1.73 1.4,3.13 3.13,3.13l9.72 0c1.73,0 3.13,-1.4 3.13,-3.13l0 -11.66c0,-1.73 -1.4,-3.13 -3.13,-3.13zm-1.81 12.97l-6.09 0 0 -8.03 6.09 0 0 8.03zm-17.5 -12.97l-9.72 0c-1.73,0 -3.13,1.4 -3.13,3.13l0 11.66c0,1.73 1.4,3.13 3.13,3.13l9.72 0c1.73,0 3.13,-1.4 3.13,-3.13l0 -11.66c0,-1.73 -1.4,-3.13 -3.13,-3.13zm-1.81 12.97l-6.09 0 0 -8.03 6.09 0 0 8.03zm40.45 -41.93l-9.72 0c-1.73,0 -3.13,1.4 -3.13,3.13l0 11.66c0,1.73 1.4,3.13 3.13,3.13l9.72 0c1.73,0 3.13,-1.4 3.13,-3.13l0 -11.66c0,-1.73 -1.4,-3.13 -3.13,-3.13zm-1.81 12.97l-6.09 0 0 -8.03 6.09 0 0 8.03zm-17.5 -12.97l-9.72 0c-1.73,0 -3.13,1.4 -3.13,3.13l0 11.66c0,1.73 1.4,3.13 3.13,3.13l9.72 0c1.73,0 3.13,-1.4 3.13,-3.13l0 -11.66c0,-1.73 -1.4,-3.13 -3.13,-3.13zm-1.81 12.97l-6.09 0 0 -8.03 6.09 0 0 8.03zm-19.32 0l-6.09 0 0 -8.03 6.09 0 0 8.03z"/>
 </g>
</svg>
