<?xml version="1.0" encoding="UTF-8"?>
<!DOCTYPE svg PUBLIC "-//W3C//DTD SVG 1.1//EN" "http://www.w3.org/Graphics/SVG/1.1/DTD/svg11.dtd">
<!-- Creator: CorelDRAW 2019 (64-Bit) -->
<svg xmlns="http://www.w3.org/2000/svg" xml:space="preserve" width="1.8018mm" height="1.8018mm" version="1.1" style="shape-rendering:geometricPrecision; text-rendering:geometricPrecision; image-rendering:optimizeQuality; fill-rule:evenodd; clip-rule:evenodd"
viewBox="0 0 4.59 4.59"
 xmlns:xlink="http://www.w3.org/1999/xlink">
 <defs>
  <style type="text/css">
   <![CDATA[
    .fil0 {fill:#2C2F47}
   ]]>
  </style>
 </defs>
 <g id="Слой_x0020_1">
  <metadata id="CorelCorpID_0Corel-Layer"/>
  <path class="fil0" d="M3.49 3.04c-0.15,-0.15 -0.34,-0.15 -0.49,0 -0.11,0.11 -0.23,0.23 -0.34,0.34 -0.03,0.03 -0.06,0.04 -0.09,0.02 -0.07,-0.04 -0.15,-0.07 -0.22,-0.12 -0.33,-0.21 -0.61,-0.47 -0.85,-0.77 -0.12,-0.15 -0.23,-0.31 -0.3,-0.49 -0.02,-0.04 -0.01,-0.06 0.02,-0.09 0.11,-0.11 0.22,-0.22 0.34,-0.34 0.16,-0.16 0.16,-0.34 -0,-0.5 -0.09,-0.09 -0.18,-0.18 -0.27,-0.27 -0.09,-0.09 -0.18,-0.18 -0.28,-0.28 -0.15,-0.15 -0.34,-0.15 -0.49,0 -0.11,0.11 -0.22,0.23 -0.34,0.34 -0.11,0.1 -0.16,0.23 -0.17,0.37 -0.02,0.24 0.04,0.46 0.12,0.68 0.17,0.45 0.42,0.86 0.74,1.22 0.42,0.5 0.92,0.89 1.51,1.18 0.26,0.13 0.54,0.23 0.83,0.24 0.2,0.01 0.38,-0.04 0.52,-0.2 0.1,-0.11 0.21,-0.21 0.31,-0.31 0.15,-0.15 0.15,-0.34 0,-0.5 -0.18,-0.18 -0.36,-0.36 -0.55,-0.55zm0.37 -2.3c-0.41,-0.41 -0.92,-0.66 -1.49,-0.74l-0.05 0.35c0.49,0.07 0.94,0.29 1.29,0.64 0.33,0.33 0.55,0.76 0.63,1.22l0.35 -0.06c-0.09,-0.54 -0.35,-1.02 -0.73,-1.41zm-0.55 1.53l0.35 -0.06c-0.06,-0.32 -0.21,-0.62 -0.44,-0.85 -0.25,-0.25 -0.56,-0.4 -0.9,-0.45l-0.05 0.35c0.26,0.04 0.51,0.16 0.7,0.35 0.18,0.18 0.3,0.41 0.34,0.66z"/>
 </g>
</svg>
