<?xml version="1.0" encoding="UTF-8"?>
<!DOCTYPE svg PUBLIC "-//W3C//DTD SVG 1.1//EN" "http://www.w3.org/Graphics/SVG/1.1/DTD/svg11.dtd">
<!-- Creator: CorelDRAW 2019 (64-Bit) -->
<svg xmlns="http://www.w3.org/2000/svg" xml:space="preserve" width="1.9474mm" height="1.9472mm" version="1.1" style="shape-rendering:geometricPrecision; text-rendering:geometricPrecision; image-rendering:optimizeQuality; fill-rule:evenodd; clip-rule:evenodd"
viewBox="0 0 3.96 3.96"
 xmlns:xlink="http://www.w3.org/1999/xlink">
 <defs>
  <style type="text/css">
   <![CDATA[
    .fil0 {fill:#FEFEFE}
   ]]>
  </style>
 </defs>
 <g id="Слой_x0020_1">
  <metadata id="CorelCorpID_0Corel-Layer"/>
  <path class="fil0" d="M1.15 0l1.66 0c0.63,0 1.15,0.52 1.15,1.15l0 1.66c0,0.63 -0.52,1.15 -1.15,1.15l-1.66 0c-0.63,0 -1.15,-0.52 -1.15,-1.15l0 -1.66c0,-0.63 0.52,-1.15 1.15,-1.15zm0.34 3.31c0.01,-0 0.03,-0.01 0.05,-0.01 0.05,-0.02 0.07,-0.04 0.1,-0.07l0.35 -0.35c0.01,0 0.21,0.21 0.23,0.23 0.03,0.03 0.14,0.15 0.18,0.17 0.05,0.03 0.06,0.02 0.08,0.03l0.02 0c0.02,0 0.03,-0 0.05,-0.01 0.12,-0.04 0.18,-0.16 0.13,-0.27 -0.02,-0.04 -0.05,-0.07 -0.08,-0.1l-0.35 -0.35c0.02,-0 0.08,-0.02 0.1,-0.03 0.1,-0.03 0.16,-0.06 0.25,-0.11 0.02,-0.01 0.05,-0.03 0.07,-0.05 0.04,-0.03 0.06,-0.08 0.07,-0.14l0 -0.02c-0,-0.09 -0.07,-0.18 -0.19,-0.19 -0.03,-0 -0.07,0.01 -0.1,0.02 -0.03,0.01 -0.04,0.03 -0.08,0.04 -0.03,0.01 -0.05,0.03 -0.08,0.04 -0.1,0.04 -0.19,0.06 -0.31,0.06 -0.16,0 -0.29,-0.04 -0.4,-0.09 -0.01,-0.01 -0.02,-0.01 -0.04,-0.02 -0.04,-0.02 -0.07,-0.05 -0.14,-0.05 -0.05,0 -0.09,0.02 -0.13,0.05 -0.04,0.03 -0.06,0.09 -0.07,0.14l0 0.02c0,0.02 0.01,0.04 0.01,0.07 0.02,0.04 0.04,0.06 0.07,0.09 0.07,0.05 0.23,0.12 0.31,0.15 0.02,0.01 0.08,0.02 0.1,0.03 -0.01,0.01 -0.34,0.34 -0.35,0.35 -0.03,0.03 -0.06,0.06 -0.08,0.1 -0.02,0.05 -0.02,0.09 -0.01,0.15 0.02,0.04 0.04,0.07 0.07,0.1 0.05,0.03 0.08,0.04 0.14,0.04zm0.51 -1.69c-0.07,0 -0.12,-0.01 -0.18,-0.05l-0.03 -0.02c-0,-0 -0.01,-0 -0.01,-0.01 -0.04,-0.04 -0.08,-0.12 -0.08,-0.18 0,-0.06 0,-0.1 0.03,-0.15 0.02,-0.03 0.03,-0.05 0.06,-0.08 0.13,-0.13 0.37,-0.09 0.45,0.09 0.04,0.09 0.03,0.19 -0.02,0.27 -0.01,0.02 -0.03,0.04 -0.05,0.06 -0.01,0.01 -0.01,0.01 -0.02,0.02 -0.04,0.03 -0.1,0.06 -0.15,0.06zm-0.06 -0.97l0.06 0c0.03,0 0.05,0 0.08,0.01 0.06,0.01 0.13,0.03 0.19,0.06 0.07,0.04 0.14,0.08 0.19,0.14l0.04 0.04c0.04,0.04 0.07,0.1 0.1,0.15 0.06,0.14 0.08,0.29 0.04,0.44 -0.01,0.02 -0.01,0.04 -0.02,0.07 -0.03,0.1 -0.09,0.19 -0.17,0.26 -0.1,0.1 -0.26,0.18 -0.4,0.19 -0.09,0.01 -0.14,0.01 -0.23,-0.01 -0.12,-0.02 -0.22,-0.09 -0.31,-0.16 -0.14,-0.12 -0.22,-0.32 -0.22,-0.51 0,-0.1 0.03,-0.2 0.06,-0.28l0.03 -0.06c0.01,-0.02 0.02,-0.03 0.03,-0.05 0.07,-0.1 0.16,-0.18 0.27,-0.23 0.02,-0.01 0.04,-0.02 0.06,-0.03 0.07,-0.03 0.14,-0.04 0.2,-0.04zm-0.79 -0.29l1.66 0c0.43,0 0.78,0.35 0.78,0.78l0 1.66c0,0.43 -0.35,0.78 -0.78,0.78l-1.66 0c-0.43,0 -0.78,-0.35 -0.78,-0.78l0 -1.66c0,-0.43 0.35,-0.78 0.78,-0.78z"/>
 </g>
</svg>
