<?xml version="1.0" encoding="UTF-8"?>
<!DOCTYPE svg PUBLIC "-//W3C//DTD SVG 1.1//EN" "http://www.w3.org/Graphics/SVG/1.1/DTD/svg11.dtd">
<!-- Creator: CorelDRAW 2019 (64-Bit) -->
<svg xmlns="http://www.w3.org/2000/svg" xml:space="preserve" width="10.1599mm" height="10.1599mm" version="1.1" style="shape-rendering:geometricPrecision; text-rendering:geometricPrecision; image-rendering:optimizeQuality; fill-rule:evenodd; clip-rule:evenodd"
viewBox="0 0 393.29 393.29"
 xmlns:xlink="http://www.w3.org/1999/xlink">
 <defs>
  <style type="text/css">
   <![CDATA[
    .fil1 {fill:#FEFEFE}
    .fil0 {fill:#CDAA3B}
   ]]>
  </style>
 </defs>
 <g id="Слой_x0020_1">
  <metadata id="CorelCorpID_0Corel-Layer"/>
  <g id="_1769781983072">
   <rect class="fil0" width="393.29" height="393.29"/>
   <path class="fil1" d="M199.82 219.17l0 -6.66 -6.34 0 0 6.66c-7.23,1.47 -12.69,7.88 -12.69,15.54 0,8.74 7.11,15.86 15.86,15.86 5.25,0 9.51,4.27 9.51,9.51 0,5.25 -4.27,9.51 -9.51,9.51 -5.25,0 -9.51,-4.27 -9.51,-9.51l0 -3.17 -6.34 0 0 3.17c0,7.66 5.46,14.06 12.69,15.54l0 6.67 6.34 0 0 -6.67c7.23,-1.47 12.69,-7.88 12.69,-15.54 0,-8.74 -7.11,-15.86 -15.86,-15.86 -5.25,0 -9.51,-4.27 -9.51,-9.51 0,-5.25 4.27,-9.51 9.51,-9.51 5.25,0 9.51,4.27 9.51,9.51l0 3.17 6.34 0 0 -3.17c0,-7.66 -5.46,-14.06 -12.69,-15.54zm95.15 -73.27c0,-26.23 -21.34,-47.57 -47.57,-47.57 -26.23,0 -47.58,21.34 -47.58,47.57 0,26.23 21.34,47.58 47.58,47.58 4.4,0 8.64,-0.65 12.69,-1.77l0 52.52 -16.02 0c-1.65,-24.75 -22.25,-44.4 -47.42,-44.4 -25.17,0 -45.77,19.65 -47.42,44.4l-16.02 0 0 -52.52c4.05,1.12 8.29,1.77 12.69,1.77 26.23,0 47.58,-21.34 47.58,-47.58 0,-26.23 -21.34,-47.57 -47.58,-47.57 -26.23,0 -47.57,21.34 -47.57,47.57 0,19.47 11.76,36.22 28.54,43.58l0 57.92c0,1.75 1.42,3.17 3.17,3.17l19.19 0c1.65,24.75 22.25,44.4 47.42,44.4 25.17,0 45.77,-19.65 47.42,-44.4l19.19 0c1.76,0 3.17,-1.42 3.17,-3.17l0 -57.92c16.78,-7.36 28.54,-24.1 28.54,-43.58zm-155.41 40.7l0 -8.98 -6.34 0 0 7.5c-2.2,-0.71 -4.32,-1.61 -6.34,-2.67l0 -11.17c0,-5.52 3.57,-10.18 8.5,-11.92l7.99 10.66c0.6,0.8 1.54,1.27 2.54,1.27 1,0 1.94,-0.47 2.54,-1.27l7.99 -10.66c4.94,1.74 8.5,6.4 8.5,11.92l0 11.17c-2.02,1.06 -4.14,1.96 -6.34,2.67l0 -7.5 -6.34 0 0 8.98c-2.07,0.32 -4.18,0.54 -6.34,0.54 -2.16,0 -4.27,-0.22 -6.34,-0.54l0 0zm-9.51 -58.95c0,-5.67 4.61,-10.29 10.28,-10.29l11.15 0c5.67,0 10.28,4.61 10.28,10.29 0,1.28 -0.26,2.52 -0.7,3.67 -0.58,-0.75 -1.45,-1.27 -2.47,-1.27l-3.17 0c-3.5,0 -6.34,-2.85 -6.34,-6.34 0,-1.75 -1.42,-3.17 -3.17,-3.17 -1.75,0 -3.17,1.42 -3.17,3.17 0,3.5 -2.85,6.34 -6.34,6.34l-3.17 0c-1.03,0 -1.89,0.51 -2.47,1.27 -0.45,-1.16 -0.7,-2.39 -0.7,-3.67zm19.03 30.95l-3.17 4.23 -3.17 -4.23 6.34 0zm-3.17 -6.34c-5.25,0 -9.51,-4.27 -9.51,-9.51l0 -6.34c3.79,0 7.19,-1.66 9.51,-4.3 2.33,2.64 5.73,4.3 9.51,4.3l0 6.34c0,5.25 -4.27,9.51 -9.51,9.51zm-41.23 -6.34c0,-22.73 18.5,-41.23 41.23,-41.23 22.73,0 41.23,18.5 41.23,41.23 0,13.17 -6.22,24.88 -15.86,32.43l0 -7.06c0,-8.55 -5.67,-15.81 -13.46,-18.19 2.43,-2.79 3.94,-6.38 3.94,-10.35l0 -1.85 1.48 -1.48c3.14,-3.14 4.87,-7.32 4.87,-11.76 0,-9.17 -7.46,-16.63 -16.63,-16.63l-11.15 0c-9.17,0 -16.63,7.46 -16.63,16.63 0,4.44 1.73,8.62 4.87,11.76l1.47 1.47 0 1.85c0,3.98 1.52,7.56 3.94,10.35 -7.78,2.39 -13.46,9.64 -13.46,18.19l0 7.06c-9.63,-7.55 -15.86,-19.27 -15.86,-32.43l0 0zm91.98 142.73c-22.73,0 -41.23,-18.5 -41.23,-41.23 0,-22.73 18.5,-41.23 41.23,-41.23 22.73,0 41.23,18.5 41.23,41.23 0,22.73 -18.5,41.23 -41.23,41.23zm44.4 -102.03l0 -8.98 -6.34 0 0 7.5c-2.2,-0.71 -4.32,-1.61 -6.34,-2.67l0 -11.17c0,-5.52 3.57,-10.18 8.5,-11.92l7.99 10.66c0.6,0.8 1.54,1.27 2.54,1.27 1,0 1.94,-0.47 2.54,-1.27l7.99 -10.66c4.94,1.74 8.5,6.4 8.5,11.92l0 11.17c-2.02,1.06 -4.14,1.96 -6.34,2.67l0 -7.5 -6.34 0 0 8.98c-2.07,0.32 -4.18,0.54 -6.34,0.54 -2.16,0 -4.27,-0.22 -6.34,-0.54l0 0zm-9.51 -58.95c0,-5.67 4.61,-10.29 10.28,-10.29l11.15 0c5.67,0 10.28,4.61 10.28,10.29 0,1.28 -0.25,2.52 -0.7,3.67 -0.58,-0.75 -1.45,-1.27 -2.47,-1.27l-3.17 0c-3.5,0 -6.34,-2.85 -6.34,-6.34 0,-1.75 -1.42,-3.17 -3.17,-3.17 -1.76,0 -3.17,1.42 -3.17,3.17 0,3.5 -2.85,6.34 -6.34,6.34l-3.17 0c-1.03,0 -1.89,0.51 -2.47,1.27 -0.44,-1.16 -0.7,-2.39 -0.7,-3.67l0 0zm19.03 30.95l-3.17 4.23 -3.17 -4.23 6.34 0zm-3.17 -6.34c-5.25,0 -9.51,-4.27 -9.51,-9.51l0 -6.34c3.78,0 7.19,-1.66 9.51,-4.3 2.32,2.64 5.73,4.3 9.51,4.3l0 6.34c0,5.25 -4.27,9.51 -9.51,9.51zm25.37 26.09l0 -7.06c0,-8.55 -5.67,-15.81 -13.46,-18.19 2.42,-2.79 3.94,-6.38 3.94,-10.35l0 -1.85 1.48 -1.48c3.14,-3.14 4.87,-7.32 4.87,-11.76 0,-9.17 -7.46,-16.63 -16.63,-16.63l-11.15 0c-9.17,0 -16.63,7.46 -16.63,16.63 0,4.44 1.73,8.62 4.87,11.76l1.47 1.47 0 1.85c0,3.98 1.52,7.56 3.94,10.35 -7.78,2.39 -13.46,9.64 -13.46,18.19l0 7.06c-9.63,-7.55 -15.86,-19.27 -15.86,-32.43 0,-22.73 18.5,-41.23 41.23,-41.23 22.73,0 41.23,18.5 41.23,41.23 0,13.17 -6.22,24.88 -15.86,32.43l0 0z"/>
  </g>
 </g>
</svg>
