<?xml version="1.0" encoding="UTF-8"?>
<!DOCTYPE svg PUBLIC "-//W3C//DTD SVG 1.1//EN" "http://www.w3.org/Graphics/SVG/1.1/DTD/svg11.dtd">
<!-- Creator: CorelDRAW 2019 (64-Bit) -->
<svg xmlns="http://www.w3.org/2000/svg" xml:space="preserve" width="10.1599mm" height="10.1599mm" version="1.1" style="shape-rendering:geometricPrecision; text-rendering:geometricPrecision; image-rendering:optimizeQuality; fill-rule:evenodd; clip-rule:evenodd"
viewBox="0 0 116.06 116.06"
 xmlns:xlink="http://www.w3.org/1999/xlink">
 <defs>
  <style type="text/css">
   <![CDATA[
    .fil1 {fill:#FEFEFE}
    .fil0 {fill:#CDAA3B}
   ]]>
  </style>
 </defs>
 <g id="Слой_x0020_1">
  <metadata id="CorelCorpID_0Corel-Layer"/>
  <rect class="fil0" width="116.06" height="116.06"/>
  <path class="fil1" d="M46.8 66.45c0.52,0 0.94,0.42 0.94,0.94l1.87 0c0,-1.22 -0.79,-2.25 -1.87,-2.64l0 -2.04 -1.87 0 0 1.87 -1.87 0 0 2.81c0,1.55 1.26,2.81 2.81,2.81 0.52,0 0.94,0.42 0.94,0.94l0 0.94 -0.94 0c-0.52,0 -0.94,-0.42 -0.94,-0.94l-1.87 0c0,1.22 0.78,2.25 1.87,2.64l0 2.04 1.87 0 0 -1.87 1.87 0 0 -2.81c0,-1.55 -1.26,-2.81 -2.81,-2.81 -0.52,0 -0.94,-0.42 -0.94,-0.94l0 -0.94 0.94 0zm-7.49 -7.49c1.55,0 2.81,-1.26 2.81,-2.81 0,-0.68 -0.25,-1.29 -0.65,-1.78l2.9 -4.83c0.18,0.04 0.37,0.06 0.56,0.06 0.5,0 0.96,-0.14 1.37,-0.37l3.52 3.08c-0.13,0.32 -0.2,0.67 -0.2,1.03 0,1.55 1.26,2.81 2.81,2.81 1.55,0 2.81,-1.26 2.81,-2.81 0,-1.55 -1.26,-2.81 -2.81,-2.81 -0.5,0 -0.96,0.14 -1.37,0.37l-3.52 -3.08c0.13,-0.32 0.2,-0.67 0.2,-1.03 0,-1.55 -1.26,-2.81 -2.81,-2.81 -1.55,0 -2.81,1.26 -2.81,2.81 0,0.68 0.25,1.29 0.65,1.78l-2.9 4.83c-0.18,-0.04 -0.37,-0.06 -0.56,-0.06 -1.55,0 -2.81,1.26 -2.81,2.81 0,1.55 1.26,2.81 2.81,2.81zm13.1 -6.55c0.52,0 0.94,0.42 0.94,0.94 0,0.52 -0.42,0.94 -0.94,0.94 -0.52,0 -0.94,-0.42 -0.94,-0.94 0,-0.52 0.42,-0.94 0.94,-0.94zm-7.49 -6.55c0.52,0 0.94,0.42 0.94,0.94 0,0.52 -0.42,0.94 -0.94,0.94 -0.52,0 -0.94,-0.42 -0.94,-0.94 0,-0.52 0.42,-0.94 0.94,-0.94zm-5.62 9.36c0.52,0 0.94,0.42 0.94,0.94 0,0.52 -0.42,0.94 -0.94,0.94 -0.52,0 -0.94,-0.42 -0.94,-0.94 0,-0.52 0.42,-0.94 0.94,-0.94zm43.99 -7.49l-1.87 0 0 13.1 -1.87 0 0 -11.23 -1.87 0 0 11.23 -1.87 0 0 -7.49 -1.87 0 0 7.49 -1.87 0 0 -9.36 -1.87 0 0 9.36 -1.87 0 0 -3.74 -1.87 0 0 3.74 -1.87 0 0 -6.55 -1.87 0 0 6.55 -1.87 0 0 1.87 22.46 0 0 -14.98zm-9.36 -3.74l0 -4.68c0,-2.58 -2.1,-4.68 -4.68,-4.68l-7.23 0 -0.47 -1.87 -4.57 0c-0.44,-2.13 -2.33,-3.74 -4.59,-3.74l-1.87 0c-2.26,0 -4.15,1.61 -4.59,3.74l-4.57 0 -0.47 1.87 -7.23 0c-2.58,0 -4.68,2.1 -4.68,4.68l0 43.05c0,2.58 2.1,4.68 4.68,4.68l35.57 0c2.58,0 4.68,-2.1 4.68,-4.68l0 -15.91 8.42 0c2.58,0 4.68,-2.1 4.68,-4.68l0 -17.78 -13.1 0zm-4.68 -7.49c1.55,0 2.81,1.26 2.81,2.81l0 4.68 -1.87 0 0 -3.74c0,-1.03 -0.84,-1.87 -1.87,-1.87l-5.35 0 -0.47 -1.87 6.76 0zm-7.49 29.95l6.55 0 0 7.49 -7.49 0 0 7.49 -26.21 0 0 -41.18 4.89 0 -0.47 1.87 24.86 0 -0.47 -1.87 4.89 0 0 3.74 -11.23 0 0 17.78c0,2.58 2.1,4.68 4.68,4.68zm5.23 9.36l-4.29 4.29 0 -4.29 4.29 0zm-19.27 -41.18l0 -0.94c0,-1.55 1.26,-2.81 2.81,-2.81l1.87 0c1.55,0 2.81,1.26 2.81,2.81l0 0.94 4.88 0 1.4 5.62 -20.06 0 1.4 -5.62 4.88 0zm24.33 47.73c0,1.55 -1.26,2.81 -2.81,2.81l-35.57 0c-1.55,0 -2.81,-1.26 -2.81,-2.81l0 -43.05c0,-1.55 1.26,-2.81 2.81,-2.81l6.76 0 -0.47 1.87 -5.35 0c-1.03,0 -1.87,0.84 -1.87,1.87l0 41.18c0,1.03 0.84,1.87 1.87,1.87l27.53 0 8.04 -8.04 0 -8.81 1.87 0 0 15.91zm13.1 -20.59c0,1.55 -1.26,2.81 -2.81,2.81l-20.59 0c-1.55,0 -2.81,-1.26 -2.81,-2.81l0 -15.91 26.21 0 0 15.91zm-28.08 -25.27l1.87 0 0 1.87 -1.87 0 0 -1.87zm-13.1 0l1.87 0 0 1.87 -1.87 0 0 -1.87zm8.42 -2.81c0,0.52 -0.42,0.94 -0.94,0.94 -0.52,0 -0.94,-0.42 -0.94,-0.94 0,-0.52 0.42,-0.94 0.94,-0.94 0.52,0 0.94,0.42 0.94,0.94zm-5.62 25.27c-5.68,0 -10.3,4.62 -10.3,10.3 0,5.68 4.62,10.3 10.3,10.3 5.68,0 10.3,-4.62 10.3,-10.3 0,-5.68 -4.62,-10.3 -10.3,-10.3zm0 18.72c-4.64,0 -8.42,-3.78 -8.42,-8.42 0,-4.64 3.78,-8.42 8.42,-8.42 4.64,0 8.42,3.78 8.42,8.42 0,4.65 -3.78,8.42 -8.42,8.42zm-6.55 -9.36l1.87 0 0 1.87 -1.87 0 0 -1.87zm11.23 0l1.87 0 0 1.87 -1.87 0 0 -1.87z"/>
 </g>
</svg>
