<?xml version="1.0" encoding="UTF-8"?>
<!DOCTYPE svg PUBLIC "-//W3C//DTD SVG 1.1//EN" "http://www.w3.org/Graphics/SVG/1.1/DTD/svg11.dtd">
<!-- Creator: CorelDRAW 2019 (64-Bit) -->
<svg xmlns="http://www.w3.org/2000/svg" xml:space="preserve" width="10.1598mm" height="10.1598mm" version="1.1" style="shape-rendering:geometricPrecision; text-rendering:geometricPrecision; image-rendering:optimizeQuality; fill-rule:evenodd; clip-rule:evenodd"
viewBox="0 0 329.51 329.51"
 xmlns:xlink="http://www.w3.org/1999/xlink">
 <defs>
  <style type="text/css">
   <![CDATA[
    .fil1 {fill:#FEFEFE}
    .fil0 {fill:#CDAA3B}
   ]]>
  </style>
 </defs>
 <g id="Слой_x0020_1">
  <metadata id="CorelCorpID_0Corel-Layer"/>
  <rect class="fil0" width="329.51" height="329.51"/>
  <path class="fil1" d="M247.13 151.47l-5.97 0 -8.9 4.68c-1,-0.55 -2.04,-1.02 -3.17,-1.3l-11.2 -2.8 0 -1.27c4.95,-3.46 7.98,-9.17 7.98,-15.25l0 -4.64c0,-10.32 -8.09,-18.96 -18.03,-19.26 -0.51,-0.01 -1,0.01 -1.5,0.03l2.9 -6.8 -14.07 -14.07 -8.3 5.4c-3.15,-1.77 -6.48,-3.16 -9.95,-4.13l-2.05 -9.68 -20.25 0 -2.05 9.68c-3.46,0.97 -6.79,2.35 -9.94,4.13l-8.3 -5.4 -14.06 14.06 2.85 6.8c-0.11,-0.01 -0.21,-0.03 -0.32,-0.03 -5.09,-0.15 -9.88,1.71 -13.52,5.24 -3.65,3.53 -5.65,8.27 -5.65,13.35l0 5.32c0,6.08 3.02,11.79 7.97,15.25l0 1.28 -7.3 1.83 -13.24 -7.72 -8.69 0 0 55.06 26.14 8.71 5.09 0 0.64 -2.22 8.01 4.81c0.13,4.36 3.62,7.86 7.98,8.01 0.15,4.34 3.64,7.82 7.97,7.97 0.15,4.34 3.64,7.82 7.97,7.97 0.16,4.44 3.79,8 8.26,8 1.66,0 3.29,-0.52 4.66,-1.44l2.35 2.08c1.48,1.3 3.37,2.02 5.35,2.02l0.49 0c4.42,0 8.02,-3.57 8.08,-7.98 4.38,-0.06 7.92,-3.6 7.97,-7.97 4.38,-0.06 7.92,-3.6 7.97,-7.98 4.42,-0.1 7.98,-3.71 7.98,-8.15 0,-0.27 -0.01,-0.53 -0.04,-0.8l47.87 -23.93 0 -38.85zm-26.58 -20.59l0 4.64c0,4.72 -2.55,9.12 -6.65,11.5l-1.33 0.77 0.01 8.41 13.28 3.32 -29.22 15.38 0 -7.16c0,-3.57 -1.44,-6.84 -3.8,-9.26l9.12 -2.28 0 -8.41 -1.33 -0.77c-4.1,-2.37 -6.65,-6.78 -6.65,-11.49l0 -5.31c0,-3.63 1.43,-7.02 4.04,-9.54 2.6,-2.52 6.05,-3.88 9.66,-3.74 7.1,0.21 12.88,6.47 12.88,13.95l0 0zm-51.8 41.93l-12.03 -3.84c-5.48,-1.76 -11.42,-2.02 -17.03,-0.78l-1.52 0.34 0 -0.79c0,-3.66 2.49,-6.85 6.04,-7.74l15.22 -3.8 0 -8.42 -1.33 -0.77c-4.1,-2.37 -6.65,-6.78 -6.65,-11.49l0 -5.32c0,-3.62 1.43,-7.01 4.04,-9.54 2.6,-2.52 6.07,-3.88 9.66,-3.74 7.1,0.21 12.88,6.47 12.88,13.95l0 4.64c0,4.72 -2.55,9.12 -6.65,11.5l-1.33 0.77 0.01 8.41 15.22 3.8c3.55,0.89 6.04,4.07 6.04,7.74l0 9.96 -0.66 0.35 -1.63 0 -16.34 -4.67c-1.29,-0.36 -2.61,-0.51 -3.95,-0.56zm-29.98 -50.66c4.99,-9.67 15.04,-15.86 25.98,-15.86 10.84,0 20.84,6.1 25.87,15.64 -1.26,2.54 -1.95,5.34 -1.95,8.27l0 5.32c0,6.08 3.02,11.79 7.97,15.25l0 1.28 -10.63 2.66 -10.63 -2.66 0 -1.27c4.95,-3.46 7.98,-9.17 7.98,-15.25l0 -4.64c0,-10.32 -8.09,-18.96 -18.03,-19.26 -5.09,-0.15 -9.88,1.71 -13.52,5.24 -3.64,3.54 -5.65,8.27 -5.65,13.35l0 5.32c0,6.08 3.02,11.79 7.97,15.25l0 1.28 -10.63 2.66 -10.63 -2.66 0 -1.27c4.95,-3.46 7.98,-9.17 7.98,-15.25l0 -4.64c0,-3.13 -0.75,-6.1 -2.06,-8.73l0 0zm-12.22 -16.07l8.49 -8.49 7.47 4.86 1.43 -0.88c3.58,-2.2 7.46,-3.8 11.51,-4.77l1.63 -0.39 1.85 -8.72 11.64 0 1.85 8.71 1.63 0.39c4.05,0.97 7.92,2.58 11.51,4.77l1.43 0.88 7.47 -4.86 8.48 8.48 -3.01 7.06c-2.05,0.88 -3.95,2.12 -5.61,3.73 -0.11,0.11 -0.2,0.22 -0.31,0.33 -6.26,-9.95 -17.33,-16.2 -29.25,-16.2 -12.01,0 -23.11,6.31 -29.35,16.36 -1.67,-1.75 -3.66,-3.17 -5.86,-4.15l-2.98 -7.11zm-9.63 50.12l0 -8.42 -1.33 -0.77c-4.1,-2.37 -6.65,-6.78 -6.65,-11.49l0 -5.32c0,-3.62 1.43,-7.01 4.03,-9.54 2.6,-2.52 6.06,-3.88 9.66,-3.74 7.1,0.21 12.88,6.47 12.88,13.95l0 4.64c0,4.72 -2.55,9.12 -6.65,11.5l-1.33 0.77 0.01 8.41 9.12 2.28c-2.36,2.42 -3.8,5.69 -3.8,9.26l0 1.97 -8.29 1.84 0.22 -0.75 0.1 -4.91 -14.02 -8.18 6.05 -1.51zm-29.23 -4.73l1.94 0 19.11 11.15 -9.65 38.57 -11.4 -3.8 0 -45.92zm21.69 53.15l-5.23 -1.74 9.37 -37.47 6.06 3.54 0 0.76 -9.98 34.92 -0.22 0zm18.17 7.65c0,-0.78 0.32,-1.55 0.87,-2.11l4.67 -4.67c0.55,-0.55 1.32,-0.87 2.11,-0.87 1.64,0 2.98,1.34 2.98,2.98 0,0.78 -0.31,1.55 -0.87,2.11l-4.67 4.67c-0.55,0.55 -1.32,0.87 -2.1,0.87 -1.64,0 -2.98,-1.34 -2.98,-2.98zm7.97 7.97c0,-0.78 0.32,-1.55 0.87,-2.1l4.67 -4.67c0.55,-0.55 1.32,-0.87 2.11,-0.87 1.64,0 2.98,1.34 2.98,2.98 0,0.78 -0.31,1.55 -0.87,2.11l-4.67 4.67c-0.55,0.55 -1.32,0.87 -2.1,0.87 -1.64,0 -2.98,-1.34 -2.98,-2.98zm7.97 7.97c0,-0.78 0.32,-1.55 0.87,-2.1l4.67 -4.67c0.55,-0.55 1.32,-0.87 2.11,-0.87 1.64,0 2.98,1.34 2.98,2.98 0,0.78 -0.32,1.55 -0.87,2.11l-4.67 4.67c-0.55,0.55 -1.32,0.87 -2.1,0.87 -1.64,0 -2.98,-1.34 -2.98,-2.98zm10.95 10.95c-1.64,0 -2.98,-1.34 -2.98,-2.98 0,-0.78 0.32,-1.55 0.87,-2.1l4.67 -4.67c0.56,-0.55 1.32,-0.87 2.11,-0.87 1.64,0 2.98,1.34 2.98,2.98 0,0.78 -0.32,1.55 -0.87,2.11l-4.67 4.67c-0.56,0.55 -1.33,0.87 -2.11,0.87zm12.85 2.66l-0.49 0c-0.68,0 -1.33,-0.25 -1.83,-0.69l-1.99 -1.75 1.99 -2c0.71,-0.71 1.26,-1.56 1.67,-2.47l2.42 2.01c0.63,0.53 1,1.3 1,2.13 0,1.53 -1.25,2.77 -2.77,2.77l0 0zm23.83 -23.92l-0.46 0c-0.66,0 -1.32,-0.24 -1.83,-0.66l-14.41 -12.01 -3.4 4.08 13.99 11.66c0.63,0.53 1,1.3 1,2.13 0,1.53 -1.24,2.77 -2.77,2.77l-0.58 0c-0.64,0 -1.27,-0.23 -1.77,-0.64l-14.44 -12.03 -3.4 4.09 13.99 11.66c0.63,0.53 1,1.3 1,2.13 0,1.53 -1.25,2.77 -2.77,2.77 -1.02,0 -2.01,-0.36 -2.8,-1.01l-5.93 -4.94c-1.31,-2.67 -3.99,-4.53 -7.14,-4.64 -0.15,-4.34 -3.64,-7.82 -7.97,-7.97 -0.15,-4.34 -3.64,-7.82 -7.97,-7.97 -0.16,-4.44 -3.79,-8 -8.26,-8 -2.19,0 -4.32,0.88 -5.87,2.43l-4.67 4.67c-0.28,0.28 -0.51,0.59 -0.74,0.91l-8.16 -4.9 7.15 -25.04 17.94 -3.99c4.71,-1.05 9.67,-0.82 14.26,0.65l3.91 1.25 -13.27 6.64c-3.03,1.52 -4.92,4.57 -4.92,7.96l0 0.53c0,4.91 3.99,8.9 8.9,8.9 1.61,0 3.2,-0.44 4.58,-1.27l9.9 -5.94c1.98,-1.19 4.65,-0.93 6.37,0.62l22.45 20.21c0.6,0.54 0.95,1.32 0.95,2.13 0,1.58 -1.28,2.86 -2.86,2.86l0 0zm50.69 -30.87l-44.77 22.38c-0.14,-0.15 -0.3,-0.3 -0.45,-0.44l-22.45 -20.21c-1.97,-1.77 -4.51,-2.75 -7.16,-2.75 -1.94,0 -3.84,0.53 -5.5,1.52l-9.9 5.94c-0.56,0.33 -1.19,0.51 -1.84,0.51 -1.98,0 -3.59,-1.61 -3.59,-3.59l0 -0.53c0,-1.37 0.76,-2.6 1.98,-3.21l14.82 -7.41c2.54,-1.27 5.55,-1.55 8.28,-0.77l16.7 4.77 4.04 0.1 49.83 -26.23 0 29.9zm0 0z"/>
 </g>
</svg>
