<?xml version="1.0" encoding="UTF-8"?>
<!DOCTYPE svg PUBLIC "-//W3C//DTD SVG 1.1//EN" "http://www.w3.org/Graphics/SVG/1.1/DTD/svg11.dtd">
<!-- Creator: CorelDRAW 2019 (64-Bit) -->
<svg xmlns="http://www.w3.org/2000/svg" xml:space="preserve" width="10.1598mm" height="10.1598mm" version="1.1" style="shape-rendering:geometricPrecision; text-rendering:geometricPrecision; image-rendering:optimizeQuality; fill-rule:evenodd; clip-rule:evenodd"
viewBox="0 0 123.09 123.09"
 xmlns:xlink="http://www.w3.org/1999/xlink">
 <defs>
  <style type="text/css">
   <![CDATA[
    .fil1 {fill:#FEFEFE}
    .fil0 {fill:#CDAA3B}
   ]]>
  </style>
 </defs>
 <g id="Слой_x0020_1">
  <metadata id="CorelCorpID_0Corel-Layer"/>
  <rect class="fil0" width="123.09" height="123.09"/>
  <path class="fil1" d="M78.21 30.77l-43.59 0c-2.12,0 -3.85,1.72 -3.85,3.85l0 30.77c0,2.12 1.72,3.85 3.85,3.85l11.54 0 0 5.13 -2.56 0 0 2.56 10.26 0 0 -2.56 -5.13 0 0 -5.13 2.56 0 0 -2.56 -16.67 0c-0.71,0 -1.28,-0.57 -1.28,-1.28l0 -30.77c0,-0.71 0.57,-1.28 1.28,-1.28l43.59 0c0.71,0 1.28,0.57 1.28,1.28l0 23.08 2.56 0 0 -23.08c0,-2.12 -1.72,-3.85 -3.85,-3.85zm-15.76 16.29l3.85 -3.85c0.5,0.24 1.06,0.37 1.66,0.37 2.12,0 3.85,-1.72 3.85,-3.85 0,-2.12 -1.72,-3.85 -3.85,-3.85 -2.12,0 -3.85,1.72 -3.85,3.85 0,0.59 0.13,1.16 0.38,1.66l-3.84 3.84c-0.5,-0.24 -1.07,-0.38 -1.66,-0.38 -0.6,0 -1.16,0.14 -1.66,0.38l-3.84 -3.84c0.24,-0.5 0.38,-1.07 0.38,-1.66 0,-2.12 -1.72,-3.85 -3.85,-3.85 -2.12,0 -3.85,1.72 -3.85,3.85 0,0.59 0.14,1.16 0.38,1.66l-5.13 5.13 1.81 1.81 5.13 -5.13c0.5,0.24 1.06,0.38 1.66,0.38 0.59,0 1.15,-0.13 1.65,-0.37l3.85 3.85c-0.24,0.5 -0.37,1.06 -0.37,1.65 0,2.12 1.72,3.85 3.85,3.85 2.12,0 3.85,-1.72 3.85,-3.85 0,-0.59 -0.13,-1.15 -0.37,-1.66zm5.5 -6.04c-0.71,0 -1.28,-0.57 -1.28,-1.28 0,-0.71 0.57,-1.28 1.28,-1.28 0.71,0 1.28,0.57 1.28,1.28 0,0.71 -0.57,1.28 -1.28,1.28zm-8.98 8.97c-0.71,0 -1.28,-0.57 -1.28,-1.28 0,-0.71 0.57,-1.28 1.28,-1.28 0.71,0 1.28,0.57 1.28,1.28 0,0.71 -0.57,1.28 -1.28,1.28zm-8.97 -8.97c-0.71,0 -1.28,-0.57 -1.28,-1.28 0,-0.71 0.57,-1.28 1.28,-1.28 0.71,0 1.28,0.57 1.28,1.28 0,0.71 -0.57,1.28 -1.28,1.28zm17.95 17.95l0 2.56c3.54,0 6.41,2.87 6.41,6.41l2.56 0c-0.01,-4.96 -4.02,-8.97 -8.97,-8.98zm13.24 20.4l-2.7 -2.7c4.56,-5.47 4.27,-13.62 -0.86,-18.75 -2.61,-2.61 -6.16,-4.08 -9.85,-4.08 -7.69,0 -13.93,6.24 -13.93,13.93 0,7.69 6.24,13.93 13.93,13.93 3.26,0 6.41,-1.15 8.9,-3.22l2.7 2.7 -0.88 0.88c-0.5,0.5 -0.5,1.31 0,1.81l8.05 8.05c0.24,0.24 0.57,0.38 0.91,0.38l0 0c0.34,-0 0.67,-0.14 0.91,-0.38l3.58 -3.58c0.5,-0.5 0.5,-1.31 0,-1.81l-8.05 -8.05c-0.24,-0.24 -0.57,-0.38 -0.91,-0.38 -0.34,0 -0.67,0.14 -0.91,0.38l-0.88 0.88zm6.26 9.84l-6.24 -6.24 1.76 -1.76 6.24 6.24 -1.76 1.76zm-19.68 -10.07c-6.28,-0 -11.36,-5.09 -11.36,-11.37 0,-6.28 5.09,-11.36 11.37,-11.36 3.02,-0.01 5.91,1.19 8.04,3.33 2.13,2.13 3.33,5.02 3.32,8.04 -0,6.28 -5.09,11.36 -11.37,11.36zm-31.87 -24.02l2.56 0 0 -2.56 -2.56 0 0 2.56zm3.85 6.41c-0.71,0 -1.28,-0.57 -1.28,-1.28l0 -2.56 -2.56 0 0 2.56c0,2.12 1.72,3.85 3.85,3.85l2.56 0 0 -2.56 -2.56 0z"/>
 </g>
</svg>
