<?xml version="1.0" encoding="UTF-8"?>
<!DOCTYPE svg PUBLIC "-//W3C//DTD SVG 1.1//EN" "http://www.w3.org/Graphics/SVG/1.1/DTD/svg11.dtd">
<!-- Creator: CorelDRAW 2019 (64-Bit) -->
<svg xmlns="http://www.w3.org/2000/svg" xml:space="preserve" width="10.1598mm" height="10.1598mm" version="1.1" style="shape-rendering:geometricPrecision; text-rendering:geometricPrecision; image-rendering:optimizeQuality; fill-rule:evenodd; clip-rule:evenodd"
viewBox="0 0 123.09 123.09"
 xmlns:xlink="http://www.w3.org/1999/xlink">
 <defs>
  <style type="text/css">
   <![CDATA[
    .fil1 {fill:#FEFEFE}
    .fil0 {fill:#CDAA3B}
   ]]>
  </style>
 </defs>
 <g id="Слой_x0020_1">
  <metadata id="CorelCorpID_0Corel-Layer"/>
  <rect class="fil0" width="123.09" height="123.09"/>
  <path class="fil1" d="M71.9 31.07c-8.93,-4.51 -19.68,-2.79 -26.76,4.29 -8.23,8.23 -9.05,21.35 -1.92,30.51 0.25,0.32 0.63,0.49 1.01,0.49 0.28,0 0.55,-0.09 0.79,-0.27 0.56,-0.43 0.66,-1.24 0.22,-1.79 -6.34,-8.15 -5.61,-19.82 1.71,-27.13 6.29,-6.3 15.86,-7.83 23.8,-3.82 0.63,0.32 1.4,0.07 1.72,-0.56 0.32,-0.63 0.07,-1.4 -0.56,-1.72zm4.61 16.68c-0.28,-0.87 -1.02,-1.47 -1.93,-1.58l-7.7 -0.91 -3.25 -7.04c-0.38,-0.83 -1.19,-1.34 -2.1,-1.34 -0.91,0 -1.72,0.51 -2.1,1.34l-3.25 7.04 -7.7 0.91c-0.91,0.11 -1.64,0.71 -1.93,1.58 -0.28,0.87 -0.04,1.79 0.63,2.41l5.69 5.26 -1.51 7.6c-0.18,0.9 0.17,1.78 0.91,2.32 0.41,0.3 0.88,0.45 1.36,0.45 0.39,0 0.77,-0.1 1.13,-0.3l6.76 -3.79 6.76 3.79c0.8,0.45 1.75,0.39 2.49,-0.15 0.74,-0.54 1.09,-1.43 0.91,-2.32l-1.51 -7.6 5.69 -5.26c0.67,-0.62 0.91,-1.54 0.63,-2.41zm-8.58 6.28c-0.33,0.3 -0.47,0.75 -0.39,1.19l1.54 7.78 -6.92 -3.87c-0.19,-0.11 -0.41,-0.16 -0.62,-0.16 -0.22,0 -0.43,0.05 -0.63,0.16l-6.92 3.87 1.55 -7.78c0.09,-0.44 -0.06,-0.89 -0.39,-1.19l-5.82 -5.39 7.88 -0.93c0.44,-0.05 0.83,-0.33 1.01,-0.73l3.32 -7.2 3.32 7.2c0.19,0.4 0.57,0.68 1.01,0.73l7.88 0.93 -5.82 5.39zm23.75 -0.03c0.85,-1.4 0.85,-3.14 0,-4.54l-1.68 -2.76c-0.22,-0.36 -0.31,-0.8 -0.24,-1.22l0.5 -3.19c0.26,-1.62 -0.41,-3.23 -1.74,-4.2l-2.61 -1.9c-0.35,-0.25 -0.59,-0.62 -0.69,-1.03l-0.76 -3.14c-0.39,-1.59 -1.61,-2.82 -3.21,-3.21l-3.14 -0.76c-0.41,-0.1 -0.78,-0.35 -1.03,-0.69l-1.9 -2.61c-0.97,-1.33 -2.58,-2 -4.2,-1.74l-3.19 0.5c-0.42,0.07 -0.85,-0.02 -1.22,-0.24l-2.76 -1.68c-1.4,-0.85 -3.14,-0.85 -4.54,0l-2.76 1.68c-0.36,0.22 -0.8,0.31 -1.22,0.24l-3.19 -0.5c-1.62,-0.26 -3.23,0.41 -4.2,1.74l-1.9 2.61c-0.25,0.35 -0.62,0.59 -1.03,0.69l-3.14 0.76c-1.59,0.39 -2.82,1.62 -3.21,3.21l-0.76 3.14c-0.1,0.41 -0.35,0.78 -0.69,1.03l-2.61 1.9c-1.33,0.97 -2,2.58 -1.74,4.2l0.5 3.19c0.07,0.42 -0.02,0.85 -0.24,1.22l-1.68 2.76c-0.85,1.4 -0.85,3.14 0,4.54l1.68 2.76c0.22,0.36 0.31,0.8 0.24,1.22l-0.5 3.19c-0.26,1.62 0.41,3.23 1.74,4.2l2.61 1.9c0.35,0.25 0.59,0.62 0.69,1.03l0.76 3.14c0.39,1.59 1.61,2.82 3.21,3.21l1.31 0.32 -8.87 19.79c-0.19,0.42 -0.14,0.91 0.14,1.28 0.27,0.37 0.72,0.57 1.18,0.51l7.14 -0.85 4.11 5.9c0.24,0.35 0.63,0.55 1.05,0.55 0.04,0 0.08,-0 0.12,-0.01 0.46,-0.04 0.86,-0.33 1.05,-0.75l9.06 -20.21 1.15 0.7c0.7,0.43 1.48,0.64 2.27,0.64 0.78,0 1.57,-0.21 2.27,-0.64l1.19 -0.73 9.07 20.24c0.19,0.42 0.59,0.71 1.05,0.75 0.04,0 0.08,0.01 0.12,0.01 0.42,0 0.81,-0.2 1.05,-0.55l4.11 -5.9 7.14 0.85c0.46,0.05 0.91,-0.14 1.18,-0.51 0.27,-0.37 0.33,-0.86 0.14,-1.28l-8.88 -19.8 1.26 -0.31c1.59,-0.39 2.83,-1.61 3.21,-3.21l0.76 -3.14c0.1,-0.41 0.35,-0.78 0.69,-1.03l2.61 -1.9c1.33,-0.97 2,-2.58 1.74,-4.2l-0.5 -3.19c-0.07,-0.42 0.02,-0.85 0.24,-1.22l1.68 -2.76zm-44.02 44.27l-3.26 -4.67c-0.27,-0.39 -0.73,-0.59 -1.2,-0.54l-5.66 0.68 8.08 -18.03c0.15,0.11 0.28,0.24 0.39,0.39l1.9 2.61c0.18,0.25 0.38,0.47 0.6,0.67l-4.25 9.49c-0.29,0.65 -0,1.4 0.64,1.69 0.17,0.08 0.35,0.11 0.52,0.11 0.49,0 0.96,-0.28 1.17,-0.76l4.24 -9.46c0.42,0.06 0.85,0.06 1.28,-0.01l3.19 -0.5c0.19,-0.03 0.38,-0.03 0.57,0l-8.21 18.32zm37.94 -4.54l-5.66 -0.68c-0.47,-0.06 -0.93,0.15 -1.2,0.54l-3.26 4.67 -8.22 -18.33c0.17,-0.02 0.35,-0.02 0.52,0l3.19 0.5c0.45,0.07 0.9,0.07 1.33,0l4.24 9.46c0.21,0.47 0.68,0.76 1.17,0.76 0.17,0 0.35,-0.04 0.52,-0.11 0.64,-0.29 0.93,-1.05 0.64,-1.69l-4.27 -9.53c0.21,-0.19 0.4,-0.4 0.57,-0.64l1.9 -2.61c0.12,-0.16 0.27,-0.31 0.43,-0.42l8.1 18.06zm3.89 -41.06l-1.68 2.76c-0.54,0.88 -0.75,1.93 -0.58,2.95l0.5 3.19c0.11,0.67 -0.17,1.34 -0.72,1.73l-2.61 1.9c-0.83,0.61 -1.43,1.49 -1.67,2.5l-0.76 3.14c-0.16,0.66 -0.67,1.17 -1.33,1.33l-3.14 0.76c-1,0.24 -1.89,0.84 -2.5,1.67l-1.9 2.61c-0.4,0.55 -1.06,0.82 -1.73,0.72l-3.19 -0.5c-1.02,-0.16 -2.06,0.05 -2.95,0.58l-2.76 1.68c-0.58,0.35 -1.3,0.35 -1.87,0l-2.76 -1.68c-0.69,-0.42 -1.47,-0.64 -2.27,-0.64 -0.23,0 -0.45,0.02 -0.67,0.05l-3.19 0.5c-0.67,0.11 -1.34,-0.17 -1.73,-0.72l-1.9 -2.61c-0.61,-0.83 -1.49,-1.43 -2.5,-1.67l-3.14 -0.76c-0.66,-0.16 -1.17,-0.67 -1.33,-1.33l-0.76 -3.14c-0.24,-1 -0.84,-1.89 -1.67,-2.5l-2.61 -1.9c-0.55,-0.4 -0.82,-1.06 -0.72,-1.73l0.5 -3.19c0.16,-1.02 -0.05,-2.06 -0.58,-2.95l-1.68 -2.76c-0.35,-0.58 -0.35,-1.3 0,-1.87l1.68 -2.76c0.54,-0.88 0.75,-1.93 0.58,-2.95l-0.5 -3.19c-0.11,-0.67 0.17,-1.34 0.72,-1.73l2.61 -1.9c0.83,-0.61 1.43,-1.49 1.67,-2.5l0.76 -3.14c0.16,-0.66 0.67,-1.17 1.33,-1.33l3.14 -0.76c1,-0.24 1.89,-0.84 2.5,-1.67l1.9 -2.61c0.4,-0.55 1.06,-0.83 1.73,-0.72l3.19 0.5c1.02,0.16 2.06,-0.05 2.95,-0.58l2.76 -1.68c0.58,-0.35 1.3,-0.35 1.87,0l2.76 1.68c0.88,0.54 1.93,0.75 2.95,0.58l3.19 -0.5c0.67,-0.1 1.34,0.17 1.73,0.72l1.9 2.61c0.61,0.83 1.49,1.43 2.5,1.67l3.14 0.76c0.66,0.16 1.17,0.67 1.33,1.33l0.76 3.14c0.24,1 0.84,1.89 1.67,2.5l2.61 1.9c0.55,0.4 0.82,1.06 0.72,1.73l-0.5 3.19c-0.16,1.02 0.05,2.06 0.58,2.95l1.68 2.76c0.35,0.58 0.35,1.3 0,1.87zm-10.68 -16.25c-0.32,-0.36 -0.65,-0.71 -0.99,-1.05 -0.34,-0.34 -0.69,-0.67 -1.05,-0.99 -0.53,-0.47 -1.34,-0.42 -1.81,0.11 -0.47,0.53 -0.42,1.34 0.11,1.81 0.32,0.28 0.63,0.58 0.94,0.88 0.3,0.3 0.6,0.62 0.88,0.94 0.25,0.29 0.6,0.43 0.96,0.43 0.3,0 0.6,-0.11 0.85,-0.32 0.53,-0.47 0.58,-1.28 0.11,-1.81zm3.3 4.87c-0.32,-0.63 -1.09,-0.88 -1.72,-0.56 -0.63,0.32 -0.88,1.09 -0.56,1.72 4.01,7.94 2.47,17.5 -3.82,23.8 -7.32,7.32 -18.98,8.05 -27.13,1.71 -0.56,-0.43 -1.36,-0.33 -1.8,0.22 -0.43,0.56 -0.33,1.36 0.22,1.8 4.18,3.25 9.17,4.85 14.15,4.85 5.95,0 11.88,-2.28 16.36,-6.76 7.08,-7.08 8.8,-17.83 4.29,-26.76z"/>
 </g>
</svg>
