<?xml version="1.0" encoding="UTF-8"?>
<!DOCTYPE svg PUBLIC "-//W3C//DTD SVG 1.1//EN" "http://www.w3.org/Graphics/SVG/1.1/DTD/svg11.dtd">
<!-- Creator: CorelDRAW 2019 (64-Bit) -->
<svg xmlns="http://www.w3.org/2000/svg" xml:space="preserve" width="100%" height="auto" version="1.1" style="shape-rendering:geometricPrecision; text-rendering:geometricPrecision; image-rendering:optimizeQuality; fill-rule:evenodd; clip-rule:evenodd"
viewBox="0 0 441.82 428.29"
 xmlns:xlink="http://www.w3.org/1999/xlink">
 <defs>
  <style type="text/css">
   <![CDATA[
    .fil0 {fill:#2C2F47}
    .fil1 {fill:#2C2F47;fill-rule:nonzero}
   ]]>
  </style>
 </defs>
 <g id="Слой_x0020_1">
  <metadata id="CorelCorpID_0Corel-Layer"/>
  <g id="_1776219369488">
   <path class="fil0" d="M220.91 0c111.92,0 204.62,82.68 220.91,190.56l-50.61 0c-19.57,-87.37 -98.69,-152.74 -193.33,-152.74 -94.64,0 -173.76,65.37 -193.33,152.74l-4.54 0c16.29,-107.88 108.99,-190.56 220.91,-190.56zm-93.48 148.74c33.77,0 63.39,14.11 80.06,35.31 34.52,43.91 -20.34,50.06 -33.66,28.35 -29.86,-48.66 -71.6,-63.73 -125.15,-21.84l-5.86 0c15.41,-24.78 47.51,-41.82 84.62,-41.82zm21.5 -25.9c54.46,0 100.71,28.34 117.26,67.72l-45.05 0c-15.04,-28.62 -50.57,-48.73 -92.01,-48.73 -41.44,0 -76.97,20.11 -92.01,48.73l-5.45 0c16.56,-39.38 62.8,-67.72 117.26,-67.72zm24.45 -30.57c71.36,0 131.76,41.32 152.07,98.3l-50.03 0c-16.37,-44.27 -65.78,-76.44 -124.2,-76.44 -58.42,0 -107.83,32.17 -124.2,76.44l-5.72 0c20.32,-56.97 80.71,-98.3 152.07,-98.3zm24.49 -47.41c90.68,0 166.58,62.25 186.02,145.71l-49.4 0c-20.3,-61.26 -83.7,-105.95 -158.78,-105.95 -75.08,0 -138.48,44.69 -158.78,105.95l-5.08 0c19.44,-83.46 95.34,-145.71 186.02,-145.71z"/>
   <path class="fil1" d="M-0 277.93l27.8 0 0 9.21 5.53 0 0 -14.74 -5.69 0 0 -29.23 -6.03 0 0 29.23 -15.58 0 0 -29.23 -6.03 0 0 34.75zm65.49 -11.64c-0.76,1.67 -2.01,3.43 -3.6,4.77 -2.01,1.68 -4.27,2.51 -7.12,2.51 -6.03,0 -10.97,-4.61 -11.05,-11.81l27.05 0c0.17,-4.61 -1.09,-9.96 -3.26,-13.06 -2.09,-3.02 -6.37,-6.37 -13.15,-6.37 -10.47,0 -16.83,8.04 -16.83,18.42 0,12.9 8.79,18.17 17.17,18.17 4.44,0 8.37,-1.43 11.56,-4.27 1.76,-1.59 3.26,-3.68 4.27,-5.61l-5.02 -2.76zm-21.36 -9.55c0.92,-5.19 5.11,-9.04 10.22,-9.04 5.11,0 9.21,3.6 10.21,9.04l-20.43 0zm35.84 21.19l6.03 0 0 -14.99 16.41 0 0 14.99 6.03 0 0 -34.75 -6.03 0 0 14.24 -16.41 0 0 -14.24 -6.03 0 0 34.75zm62.64 -29.23l0 -5.53 -27.8 0 0 5.53 10.89 0 0 29.23 6.03 0 0 -29.23 10.89 0zm12.39 24.37c2.6,3.35 6.53,5.86 12.14,5.86 10.55,0 16.67,-8.63 16.67,-18.17 0,-9.38 -6.03,-18.42 -16.92,-18.42 -2.51,0 -7.79,0.59 -11.89,5.69l0 -4.86 -6.03 0 0 54.35 6.03 0 0 -24.45zm11.31 0.5c-7.12,0 -11.64,-5.78 -11.64,-12.9 0,-8.37 5.95,-12.98 11.56,-12.98 5.61,0 11.39,4.52 11.39,13.06 0,6.95 -4.27,12.81 -11.3,12.81zm62.47 5.36c10.55,0 18.42,-7.71 18.42,-18.26 0,-10.55 -7.79,-18.34 -18.42,-18.34 -10.64,0 -18.42,7.79 -18.42,18.34 0,10.55 7.87,18.26 18.42,18.26zm0 -31.23c6.36,0 12.22,4.44 12.22,12.98 0,8.46 -5.94,12.9 -12.22,12.9 -6.2,0 -12.23,-4.35 -12.23,-12.9 0,-8.46 5.86,-12.98 12.23,-12.98zm50.41 1l0 -5.53 -27.8 0 0 5.53 10.89 0 0 29.23 6.03 0 0 -29.23 10.89 0zm8.88 -5.53l0 15.49c0,3.52 -0.25,6.78 -1.43,9.21 -1.17,2.43 -3.43,4.44 -6.45,4.52l0 14.74 5.53 0 0 -9.21 26.46 0 0 9.21 5.53 0 0 -14.74 -5.19 0 0 -29.23 -24.45 0zm18.42 29.23l-16.58 0c3.27,-2.85 4.19,-6.61 4.19,-10.64l0 -13.06 12.39 0 0 23.7zm17.59 5.53l12.14 0c3.43,0 7.2,-0.08 10.22,-2.93 1.51,-1.43 3.1,-4.02 3.1,-7.79 0,-3.52 -1.34,-5.95 -2.68,-7.29 -3.1,-3.18 -7.45,-3.43 -10.55,-3.43l-6.2 0 0 -13.32 -6.03 0 0 34.75zm6.03 -5.36l0 -10.72 5.69 0c1.92,0 3.85,0 5.36,1 1.76,1.09 2.18,2.85 2.18,4.35 0,2.68 -1.51,3.94 -2.26,4.44 -1.42,0.84 -3.35,0.92 -5.36,0.92l-5.61 0zm23.61 5.36l6.03 0 0 -34.75 -6.03 0 0 34.75zm12.39 0l7.37 0 10.97 -14.15 10.97 14.15 7.37 0 -14.41 -18.51 12.73 -16.25 -7.37 0 -9.13 11.81 -8.96 -11.81 -7.37 0 12.64 16.16 -14.82 18.59zm69.67 -29.81c-1.59,-2.09 -5.19,-5.78 -11.89,-5.78 -8.88,0 -16.92,6.2 -16.92,18.17 0,12.23 8.12,18.42 16.92,18.42 6.11,0 9.88,-3.27 11.89,-5.86l0 4.86 6.03 0 0 -34.75 -6.03 0 0 4.94zm-11.22 -0.42c5.36,0 11.56,3.93 11.56,12.9 0,6.87 -4.19,12.98 -11.56,12.98 -7.2,0 -11.39,-5.61 -11.39,-13.06 0,-8.46 5.44,-12.81 11.39,-12.81z"/>
   <path class="fil0" d="M10.24 318.13l-10.24 0 0 110.16 10.24 0 0 -52.01 1.51 2.03c5.73,7.69 13.68,11.72 23.32,11.72 20.53,0 32.09,-17.57 32.09,-36.56 0,-19.23 -11.87,-37.07 -32.59,-37.07 -9.22,0 -17.2,4.09 -22.83,11.39l-1.5 1.94 0 -11.61zm23.18 62.55c-15.28,0 -23.84,-13.2 -23.84,-27.37 0,-7.5 2.23,-14.88 7.49,-20.39 4.21,-4.4 10.04,-7.15 16.18,-7.15 6.12,0 11.87,2.68 16.02,7.12 5.23,5.58 7.32,13.09 7.32,20.6 0,13.84 -8.09,27.2 -23.18,27.2zm106.25 7.29l10.24 0 0 -69.84 -10.24 0 0 11.9 -1.52 -2.07c-5.51,-7.55 -13.39,-11.55 -22.82,-11.55 -4.53,0 -9.02,0.87 -13.18,2.68 -13.72,5.97 -19.42,19.65 -19.42,33.88 0,14.99 6.18,29.43 21.02,35.01 3.7,1.39 7.62,2.06 11.57,2.06 9.41,0 17.28,-4.27 22.82,-11.72l1.51 -2.03 0 11.69zm-23.02 -62.21c5.97,0 11.75,2.42 15.98,6.6 5.58,5.51 7.69,13.11 7.69,20.78 0,14.14 -8.28,27.54 -23.67,27.54 -15.79,0 -23.34,-13.33 -23.34,-27.72 0,-14.23 8.04,-27.2 23.34,-27.2zm62.4 -7.64l0 31.04c0,6.13 -0.27,13.67 -2.89,19.3 -2.39,5.16 -6.87,9.24 -12.66,9.74l0 28.71 9.25 0 0 -18.96 53.97 0 0 18.96 9.25 0 0 -28.66 -10.26 0 0 -60.14 -46.65 0zm36.41 60.14l-35.77 0 1.6 -1.45c6.23,-5.66 8,-13.15 8,-21.27l0 -27.72 26.17 0 0 50.43zm34.74 50.02l11.38 0 50.05 -110.16 -11.39 0 -22.86 52.36 -24.89 -52.36 -11.7 0 31.2 63.95 -21.78 46.21zm76.13 -40.32l10.24 0 0 -60.14 28.8 0 0 -9.7 -39.03 0 0 69.84zm105.25 0l10.24 0 0 -69.84 -10.24 0 0 11.9 -1.52 -2.08c-5.51,-7.55 -13.39,-11.55 -22.82,-11.55 -4.53,0 -9.02,0.87 -13.18,2.68 -13.72,5.97 -19.41,19.65 -19.41,33.88 0,14.99 6.18,29.43 21.02,35.01 3.7,1.39 7.62,2.06 11.57,2.06 9.41,0 17.28,-4.27 22.83,-11.72l1.51 -2.03 0 11.69zm-23.01 -62.21c5.96,0 11.75,2.42 15.98,6.6 5.58,5.51 7.69,13.11 7.69,20.78 0,14.14 -8.28,27.54 -23.67,27.54 -15.79,0 -23.34,-13.33 -23.34,-27.72 0,-14.23 8.04,-27.2 23.34,-27.2z"/>
  </g>
 </g>
</svg>
