<?xml version="1.0" encoding="UTF-8"?>
<!DOCTYPE svg PUBLIC "-//W3C//DTD SVG 1.1//EN" "http://www.w3.org/Graphics/SVG/1.1/DTD/svg11.dtd">
<!-- Creator: CorelDRAW 2019 (64-Bit) -->
<svg xmlns="http://www.w3.org/2000/svg" xml:space="preserve" width="25.2933mm" height="25.2933mm" version="1.1" style="shape-rendering:geometricPrecision; text-rendering:geometricPrecision; image-rendering:optimizeQuality; fill-rule:evenodd; clip-rule:evenodd"
viewBox="0 0 1200.67 1200.67"
 xmlns:xlink="http://www.w3.org/1999/xlink">
 <defs>
  <style type="text/css">
   <![CDATA[
    .fil1 {fill:#2C2F47}
    .fil0 {fill:transparent}
    .fil2 {fill:#2C2F47;fill-rule:nonzero}
   ]]>
  </style>
 </defs>
 <g id="Слой_x0020_1">
  <metadata id="CorelCorpID_0Corel-Layer"/>
  <g id="_1317355196112">
   <rect class="fil0" x="-0" y="-0" width="1200.67" height="1200.67"/>
   <g>
    <path class="fil1" d="M600.34 288.65c162.9,0 297.82,120.34 321.53,277.36l-73.66 0c-28.49,-127.16 -143.64,-222.31 -281.39,-222.31 -137.75,0 -252.91,95.15 -281.39,222.31l-6.61 0c23.71,-157.02 158.63,-277.36 321.53,-277.36zm-136.06 216.49c49.15,0 92.26,20.53 116.52,51.39 50.24,63.91 -29.61,72.87 -48.99,41.27 -43.46,-70.83 -104.21,-92.75 -182.16,-31.79l-8.54 0c22.42,-36.06 69.15,-60.87 123.16,-60.87zm31.29 -37.7c79.27,0 146.58,41.25 170.67,98.57l-65.57 0c-21.89,-41.65 -73.61,-70.92 -133.92,-70.92 -60.32,0 -112.02,29.27 -133.92,70.92l-7.94 0c24.1,-57.32 91.4,-98.57 170.67,-98.57zm35.59 -44.5c103.86,0 191.77,60.14 221.34,143.07l-72.81 0c-23.82,-64.44 -95.74,-111.26 -180.77,-111.26 -85.03,0 -156.95,46.82 -180.77,111.26l-8.33 0c29.57,-82.93 117.48,-143.07 221.34,-143.07zm35.65 -69.01c131.99,0 242.46,90.61 270.75,212.08l-71.9 0c-29.55,-89.16 -121.82,-154.21 -231.1,-154.21 -109.28,0 -201.55,65.05 -231.1,154.21l-7.4 0c28.29,-121.47 138.77,-212.08 270.75,-212.08z"/>
    <path class="fil2" d="M278.81 693.17l40.46 0 0 13.41 8.05 0 0 -21.45 -8.29 0 0 -42.54 -8.78 0 0 42.54 -22.67 0 0 -42.54 -8.77 0 0 50.58zm95.31 -16.94c-1.1,2.44 -2.93,4.99 -5.24,6.94 -2.93,2.44 -6.22,3.66 -10.36,3.66 -8.77,0 -15.96,-6.7 -16.09,-17.18l39.37 0c0.24,-6.7 -1.59,-14.5 -4.75,-19.01 -3.05,-4.39 -9.27,-9.27 -19.14,-9.27 -15.24,0 -24.5,11.7 -24.5,26.82 0,18.77 12.8,26.45 24.99,26.45 6.46,0 12.19,-2.07 16.82,-6.22 2.56,-2.32 4.75,-5.36 6.21,-8.16l-7.31 -4.02zm-31.08 -13.89c1.34,-7.56 7.43,-13.16 14.87,-13.16 7.43,0 13.41,5.24 14.87,13.16l-29.74 0zm52.17 30.84l8.77 0 0 -21.82 23.89 0 0 21.82 8.77 0 0 -50.58 -8.77 0 0 20.72 -23.89 0 0 -20.72 -8.77 0 0 50.58zm91.17 -42.54l0 -8.05 -40.46 0 0 8.05 15.85 0 0 42.54 8.77 0 0 -42.54 15.85 0zm18.04 35.46c3.78,4.88 9.51,8.54 17.67,8.54 15.36,0 24.26,-12.56 24.26,-26.45 0,-13.65 -8.78,-26.82 -24.62,-26.82 -3.66,0 -11.34,0.85 -17.31,8.29l0 -7.07 -8.77 0 0 79.1 8.77 0 0 -35.59zm16.46 0.73c-10.36,0 -16.95,-8.41 -16.95,-18.77 0,-12.19 8.65,-18.89 16.82,-18.89 8.16,0 16.58,6.58 16.58,19.01 0,10.12 -6.22,18.65 -16.45,18.65zm90.92 7.8c15.36,0 26.82,-11.22 26.82,-26.57 0,-15.36 -11.34,-26.69 -26.82,-26.69 -15.48,0 -26.82,11.34 -26.82,26.69 0,15.36 11.46,26.57 26.82,26.57zm0 -45.46c9.26,0 17.79,6.46 17.79,18.89 0,12.31 -8.65,18.77 -17.79,18.77 -9.02,0 -17.8,-6.34 -17.8,-18.77 0,-12.31 8.53,-18.89 17.8,-18.89zm73.37 1.46l0 -8.05 -40.47 0 0 8.05 15.85 0 0 42.54 8.78 0 0 -42.54 15.85 0zm12.92 -8.05l0 22.55c0,5.12 -0.37,9.87 -2.07,13.41 -1.7,3.54 -5,6.46 -9.38,6.58l0 21.45 8.05 0 0 -13.41 38.51 0 0 13.41 8.05 0 0 -21.45 -7.56 0 0 -42.54 -35.59 0zm26.81 42.54l-24.13 0c4.76,-4.14 6.1,-9.63 6.1,-15.48l0 -19.01 18.04 0 0 34.49zm25.6 8.05l17.67 0c5,0 10.48,-0.12 14.87,-4.27 2.19,-2.07 4.51,-5.85 4.51,-11.34 0,-5.12 -1.95,-8.65 -3.9,-10.6 -4.51,-4.63 -10.85,-4.99 -15.36,-4.99l-9.02 0 0 -19.38 -8.78 0 0 50.58zm8.78 -7.8l0 -15.6 8.29 0c2.8,0 5.61,0 7.8,1.46 2.56,1.59 3.17,4.14 3.17,6.34 0,3.9 -2.19,5.73 -3.29,6.46 -2.07,1.22 -4.88,1.34 -7.8,1.34l-8.16 0zm34.37 7.8l8.78 0 0 -50.58 -8.78 0 0 50.58zm18.04 0l10.73 0 15.96 -20.6 15.97 20.6 10.73 0 -20.97 -26.94 18.53 -23.64 -10.73 0 -13.28 17.18 -13.04 -17.18 -10.72 0 18.4 23.52 -21.58 27.06zm101.41 -43.39c-2.32,-3.05 -7.56,-8.41 -17.31,-8.41 -12.92,0 -24.62,9.02 -24.62,26.45 0,17.8 11.82,26.82 24.62,26.82 8.9,0 14.38,-4.76 17.31,-8.54l0 7.07 8.77 0 0 -50.58 -8.77 0 0 7.19zm-16.33 -0.61c7.8,0 16.82,5.72 16.82,18.77 0,9.99 -6.1,18.89 -16.82,18.89 -10.48,0 -16.58,-8.16 -16.58,-19.01 0,-12.31 7.92,-18.65 16.58,-18.65z"/>
    <path class="fil1" d="M293.71 751.68l-14.9 0 0 160.34 14.9 0 0 -75.7 2.2 2.95c8.34,11.2 19.92,17.07 33.95,17.07 29.89,0 46.71,-25.58 46.71,-53.21 0,-27.98 -17.27,-53.96 -47.43,-53.96 -13.42,0 -25.04,5.96 -33.23,16.58l-2.19 2.83 0 -16.9zm33.74 91.04c-22.24,0 -34.7,-19.21 -34.7,-39.84 0,-10.91 3.24,-21.66 10.9,-29.68 6.13,-6.41 14.61,-10.41 23.55,-10.41 8.91,0 17.27,3.91 23.32,10.36 7.61,8.12 10.66,19.06 10.66,29.98 0,20.14 -11.77,39.59 -33.74,39.59zm154.65 10.61l14.9 0 0 -101.65 -14.9 0 0 17.32 -2.21 -3.02c-8.02,-10.99 -19.5,-16.8 -33.21,-16.8 -6.59,0 -13.13,1.27 -19.18,3.9 -19.97,8.68 -28.26,28.6 -28.26,49.31 0,21.81 9,42.84 30.6,50.95 5.38,2.02 11.09,3 16.84,3 13.7,0 25.15,-6.21 33.22,-17.07l2.2 -2.96 0 17.01zm-33.5 -90.54c8.68,0 17.1,3.52 23.26,9.6 8.12,8.01 11.2,19.09 11.2,30.24 0,20.58 -12.06,40.09 -34.46,40.09 -22.98,0 -33.97,-19.4 -33.97,-40.34 0,-20.71 11.71,-39.59 33.97,-39.59zm90.82 -11.11l0 45.18c0,8.93 -0.4,19.89 -4.21,28.1 -3.48,7.51 -10,13.44 -18.43,14.18l0 41.78 13.46 0 0 -27.59 78.55 0 0 27.59 13.46 0 0 -41.71 -14.93 0 0 -87.53 -67.9 0zm52.99 87.53l-52.06 0 2.33 -2.11c9.06,-8.23 11.64,-19.14 11.64,-30.96l0 -40.34 38.09 0 0 73.41zm50.56 72.81l16.56 0 72.84 -160.34 -16.58 0 -33.27 76.21 -36.22 -76.21 -17.03 0 45.41 93.08 -31.71 67.26zm110.81 -58.69l14.9 0 0 -87.53 41.91 0 0 -14.12 -56.81 0 0 101.65zm153.19 0l14.9 0 0 -101.65 -14.9 0 0 17.32 -2.21 -3.02c-8.02,-10.99 -19.5,-16.8 -33.21,-16.8 -6.59,0 -13.13,1.27 -19.18,3.9 -19.97,8.68 -28.25,28.6 -28.25,49.31 0,21.81 9,42.84 30.6,50.95 5.38,2.02 11.09,3 16.83,3 13.7,0 25.15,-6.21 33.22,-17.07l2.2 -2.96 0 17.01zm-33.49 -90.54c8.68,0 17.1,3.52 23.26,9.6 8.12,8.01 11.2,19.09 11.2,30.24 0,20.58 -12.06,40.09 -34.46,40.09 -22.98,0 -33.97,-19.4 -33.97,-40.34 0,-20.71 11.7,-39.59 33.97,-39.59z"/>
   </g>
  </g>
 </g>
</svg>
