<?xml version="1.0" encoding="UTF-8"?>
<!DOCTYPE svg PUBLIC "-//W3C//DTD SVG 1.1//EN" "http://www.w3.org/Graphics/SVG/1.1/DTD/svg11.dtd">
<!-- Creator: CorelDRAW 2019 (64-Bit) -->
<svg xmlns="http://www.w3.org/2000/svg" xml:space="preserve" width="10.1598mm" height="10.1598mm" version="1.1" style="shape-rendering:geometricPrecision; text-rendering:geometricPrecision; image-rendering:optimizeQuality; fill-rule:evenodd; clip-rule:evenodd"
viewBox="0 0 329.51 329.51"
 xmlns:xlink="http://www.w3.org/1999/xlink">
 <defs>
  <style type="text/css">
   <![CDATA[
    .fil1 {fill:#FEFEFE}
    .fil0 {fill:#CDAA3B}
   ]]>
  </style>
 </defs>
 <g id="Слой_x0020_1">
  <metadata id="CorelCorpID_0Corel-Layer"/>
  <rect class="fil0" width="329.51" height="329.51"/>
  <path class="fil1" d="M129.05 175.74l5.49 0 0 5.49 -5.49 0 0 -5.49zm115.33 -85.12l-19.22 0 0 -5.49c0,-1.51 -1.23,-2.75 -2.75,-2.75l-27.46 0c-1.52,0 -2.75,1.23 -2.75,2.75l0 5.49 -107.09 0c-1.52,0 -2.75,1.23 -2.75,2.75l0 10.98c0,1.52 1.23,2.74 2.75,2.74l8.24 0 0 52.17c0,1.52 1.23,2.74 2.75,2.74 1.51,0 2.74,1.23 2.74,2.75 0,1.52 -1.23,2.75 -2.74,2.75 -1.52,0 -2.75,-1.23 -2.75,-2.75l-5.49 0c0.01,2.01 0.75,3.95 2.1,5.44l-7.04 9.39 0.03 0.03c-0.37,0.46 -0.57,1.03 -0.58,1.62l0 10.98c0,0.73 0.29,1.42 0.8,1.94l5.49 5.49c0.51,0.52 1.21,0.8 1.94,0.8l10.98 0c0.73,0 1.43,-0.29 1.94,-0.8l5.49 -5.49c0.51,-0.52 0.8,-1.21 0.8,-1.94l0 -10.98c-0.01,-0.59 -0.22,-1.16 -0.58,-1.62l0.03 -0.03 -7.04 -9.39c1.83,-2.04 2.52,-4.86 1.84,-7.51 -0.68,-2.66 -2.65,-4.79 -5.23,-5.7l0 -49.9 93.36 0 0 2.75c0,1.52 1.23,2.75 2.75,2.75l5.49 0 0 129.05 -10.98 0 0 -109.84 -5.49 0 0 10.98 -16.48 0 0 -5.49 -5.49 0 0 5.49 -16.48 0 0 -2.75 -5.49 0 0 2.75 -16.48 0 0 -8.24 35.69 0 0 -5.49 -35.69 0 0 -10.98 -5.49 0 0 123.56 -4.36 0 -12.92 -12.92c-1.07,-1.07 -2.81,-1.07 -3.88,0l-12.93 12.92 -1.61 0 0 5.49 164.75 0 0 -5.49 -2.14 0c1.93,-2.11 2.62,-5.08 1.81,-7.82 -0.81,-2.74 -3,-4.86 -5.76,-5.59 1.39,-3.44 0.32,-7.39 -2.64,-9.64 -2.95,-2.25 -7.04,-2.25 -10,0 -2.95,2.25 -4.03,6.2 -2.63,9.64 -2.77,0.73 -4.96,2.85 -5.77,5.59 -0.81,2.75 -0.12,5.71 1.81,7.82l-4.89 0 0 -129.05 5.49 0c1.52,0 2.75,-1.23 2.75,-2.75l0 -2.75 19.22 0c1.51,0 2.74,-1.23 2.74,-2.74l0 -10.98c0,-1.51 -1.23,-2.75 -2.74,-2.75zm-146.91 82.38l4.12 5.49 -10.98 0 4.12 -5.49 2.75 0zm6.86 18.08l-3.88 3.88 -8.71 0 -3.88 -3.88 0 -7.1 16.47 0 0 7.1zm128.23 -94.97l-7.41 4.94 0 -4.94 7.41 0zm-34.87 -8.24l10.98 0 0 10.98 -10.98 0 0 -10.98zm-74.14 8.79l7.41 4.94 -14.83 0 7.41 -4.94zm-16.48 4.39l-7.41 -4.94 14.83 0 -7.41 4.94zm25.54 -4.94l14.83 0 -7.41 4.94 -7.41 -4.94zm23.89 0.55l7.41 4.94 -14.83 0 7.41 -4.94zm9.06 -0.55l14.83 0 -7.41 4.94 -7.41 -4.94zm-77.71 0l1.92 0 8.24 5.49 -10.16 0 0 -5.49zm94.18 5.49l8.23 -5.49 1.92 0 0 5.49 -10.16 0zm29.38 130.98l-4.94 -7.41 4.94 -7.41 0 14.82zm0 -65.9l-4.94 -7.41 4.94 -7.41 0 14.83zm-5.49 1.65l4.94 7.41 -4.94 7.41 0 -14.83zm0 -18.12l0 -14.83 4.94 7.41 -4.94 7.41zm0 51.07l4.94 7.41 -4.94 7.42 0 -14.83zm5.49 -1.66l-4.94 -7.4 4.94 -7.41 0 14.81zm-4.94 -73.3l4.94 -7.41 0 14.83 -4.94 -7.41zm-0.55 -9.06l0 -4.67 3.11 0 -3.11 4.67zm-21.97 31.03l0 27.46 -16.48 0 0 -27.46 16.48 0zm-21.97 0l0 23.61 -6.31 -6.24c-0.51,-0.51 -1.2,-0.79 -1.92,-0.79l-8.24 0 0 -16.58 16.48 0zm-21.97 0l0 4.58 -16.48 0 0 -4.58 16.48 0zm-41.19 86.26l7.1 7.1 -14.2 0 7.1 -7.1zm24.71 7.1l0 -83.29 16.48 0 0 9.27c0,1.52 1.23,2.75 2.75,2.75l9.85 0 10.19 10.08c0.51,0.5 1.2,0.79 1.92,0.79l19.22 0 0 60.41 -60.41 0zm82.38 -7.41l4.94 7.41 -4.94 0 0 -7.41zm32.95 4.67c-1.51,0 -2.74,-1.23 -2.74,-2.75 0,-1.52 1.23,-2.75 2.74,-2.75 1.52,0 2.75,1.23 2.75,2.75 0,1.52 -1.23,2.75 -2.75,2.75zm-5.49 -16.48c1.52,0 2.75,1.23 2.75,2.74 0,1.52 -1.23,2.75 -2.75,2.75 -1.51,0 -2.75,-1.23 -2.75,-2.75 0,-1.51 1.23,-2.74 2.75,-2.74zm-5.49 10.98c1.51,0 2.74,1.23 2.74,2.75 0,1.52 -1.23,2.75 -2.74,2.75 -1.52,0 -2.75,-1.23 -2.75,-2.75 0,-1.52 1.23,-2.75 2.75,-2.75zm-8.24 -126.31l-21.97 0 0 -2.74 13.73 0c1.51,0 2.75,-1.23 2.75,-2.75l0 -13.73 5.49 0 0 19.22zm14.55 -5.49l7.41 -4.94 0 4.94 -7.41 0zm-61.23 129.06l5.49 0 0 5.49 -5.49 0 0 -5.49zm-10.98 0l5.49 0 0 5.49 -5.49 0 0 -5.49zm-10.98 0l5.49 0 0 5.49 -5.49 0 0 -5.49zm-10.98 0l5.49 0 0 5.49 -5.49 0 0 -5.49zm-10.98 0l5.49 0 0 5.49 -5.49 0 0 -5.49zm43.94 -10.98l5.49 0 0 5.49 -5.49 0 0 -5.49zm-10.98 0l5.49 0 0 5.49 -5.49 0 0 -5.49zm-10.98 0l5.49 0 0 5.49 -5.49 0 0 -5.49zm-10.98 0l5.49 0 0 5.49 -5.49 0 0 -5.49zm-10.98 0l5.49 0 0 5.49 -5.49 0 0 -5.49zm43.94 -10.98l5.49 0 0 5.49 -5.49 0 0 -5.49zm-10.98 0l5.49 0 0 5.49 -5.49 0 0 -5.49zm-10.98 0l5.49 0 0 5.49 -5.49 0 0 -5.49zm-10.98 0l5.49 0 0 5.49 -5.49 0 0 -5.49zm-10.98 0l5.49 0 0 5.49 -5.49 0 0 -5.49zm43.94 -10.98l5.49 0 0 5.49 -5.49 0 0 -5.49zm-10.98 0l5.49 0 0 5.49 -5.49 0 0 -5.49zm-10.98 0l5.49 0 0 5.49 -5.49 0 0 -5.49zm-10.98 0l5.49 0 0 5.49 -5.49 0 0 -5.49zm-10.98 0l5.49 0 0 5.49 -5.49 0 0 -5.49zm43.94 -10.98l5.49 0 0 5.49 -5.49 0 0 -5.49zm-10.98 0l5.49 0 0 5.49 -5.49 0 0 -5.49zm-10.98 0l5.49 0 0 5.49 -5.49 0 0 -5.49zm-10.98 0l5.49 0 0 5.49 -5.49 0 0 -5.49zm-10.98 0l5.49 0 0 5.49 -5.49 0 0 -5.49zm21.97 -10.98l5.49 0 0 5.49 -5.49 0 0 -5.49zm-10.98 0l5.49 0 0 5.49 -5.49 0 0 -5.49z"/>
 </g>
</svg>
