<?xml version="1.0" encoding="UTF-8"?>
<!DOCTYPE svg PUBLIC "-//W3C//DTD SVG 1.1//EN" "http://www.w3.org/Graphics/SVG/1.1/DTD/svg11.dtd">
<!-- Creator: CorelDRAW 2019 (64-Bit) -->
<svg xmlns="http://www.w3.org/2000/svg" xml:space="preserve" width="1.931mm" height="1.931mm" version="1.1" style="shape-rendering:geometricPrecision; text-rendering:geometricPrecision; image-rendering:optimizeQuality; fill-rule:evenodd; clip-rule:evenodd"
viewBox="0 0 3.07 3.07"
 xmlns:xlink="http://www.w3.org/1999/xlink">
 <defs>
  <style type="text/css">
   <![CDATA[
    .fil0 {fill:#FEFEFE}
   ]]>
  </style>
 </defs>
 <g id="Слой_x0020_1">
  <metadata id="CorelCorpID_0Corel-Layer"/>
  <g id="_1783179235008">
   <path class="fil0" d="M2.32 0.77l-1.84 0.72c-0.06,0.02 -0.06,0.11 0.01,0.13l0.47 0.14 0.17 0.55c0.02,0.06 0.09,0.08 0.13,0.03l0.24 -0.25 0.47 0.35c0.06,0.04 0.14,0.01 0.16,-0.06l0.31 -1.5c0.02,-0.07 -0.06,-0.13 -0.13,-0.11zm-0.23 0.33l-0.85 0.75c-0.01,0.01 -0.01,0.02 -0.02,0.03l-0.03 0.29c-0,0.01 -0.01,0.01 -0.02,0l-0.14 -0.44c-0.01,-0.02 0,-0.04 0.02,-0.05l1.01 -0.62c0.02,-0.01 0.05,0.02 0.03,0.04z"/>
   <path class="fil0" d="M0.89 0l1.29 0c0.49,0 0.89,0.4 0.89,0.89l0 1.29c0,0.49 -0.4,0.89 -0.89,0.89l-1.29 0c-0.49,0 -0.89,-0.4 -0.89,-0.89l0 -1.29c0,-0.49 0.4,-0.89 0.89,-0.89zm0 0.28l1.29 0c0.33,0 0.61,0.27 0.61,0.61l0 1.29c0,0.33 -0.27,0.61 -0.61,0.61l-1.29 0c-0.33,0 -0.61,-0.27 -0.61,-0.61l0 -1.29c0,-0.33 0.27,-0.61 0.61,-0.61z"/>
  </g>
 </g>
</svg>
