<?xml version="1.0" encoding="UTF-8"?>
<!DOCTYPE svg PUBLIC "-//W3C//DTD SVG 1.1//EN" "http://www.w3.org/Graphics/SVG/1.1/DTD/svg11.dtd">
<!-- Creator: CorelDRAW 2019 (64-Bit) -->
<svg xmlns="http://www.w3.org/2000/svg" xml:space="preserve" width="1.9473mm" height="1.9474mm" version="1.1" style="shape-rendering:geometricPrecision; text-rendering:geometricPrecision; image-rendering:optimizeQuality; fill-rule:evenodd; clip-rule:evenodd"
viewBox="0 0 3.71 3.71"
 xmlns:xlink="http://www.w3.org/1999/xlink">
 <defs>
  <style type="text/css">
   <![CDATA[
    .fil0 {fill:#FEFEFE}
    .fil1 {fill:#FEFEFE}
   ]]>
  </style>
 </defs>
 <g id="Слой_x0020_1">
  <metadata id="CorelCorpID_0Corel-Layer"/>
  <g id="_1784154614368">
   <path class="fil0" d="M1.62 1.5c0.01,0 0.5,0.28 0.54,0.31 0.02,0.01 0.05,0.03 0.07,0.04 -0.01,0.01 -0.03,0.02 -0.04,0.02 -0.01,0.01 -0.03,0.01 -0.04,0.02 -0.04,0.02 -0.53,0.3 -0.54,0.31l0 -0.71zm1.39 0.78c0,-0 0,-0.01 0,-0.01 0,-0 0,-0 0,-0.01 0,-0.01 0,-0 0,-0.01 -0,-0.03 0.01,-0.08 0.01,-0.12 0,-0.04 0,-0.08 0.01,-0.12 0.01,-0.21 0,-0.51 -0.04,-0.7 -0.06,-0.25 -0.25,-0.26 -0.48,-0.27 -0.4,-0.03 -1.07,-0.03 -1.46,0.01 -0.08,0.01 -0.14,0.02 -0.2,0.05 -0.05,0.03 -0.09,0.08 -0.12,0.13 -0.03,0.06 -0.04,0.13 -0.04,0.2 -0.03,0.26 -0.03,0.69 0.02,0.94 0.03,0.13 0.11,0.23 0.24,0.26 0.14,0.03 0.32,0.03 0.46,0.04 0.32,0.01 0.66,0.01 0.98,-0 0.08,-0 0.16,-0.01 0.24,-0.02 0.08,-0.01 0.14,-0.01 0.2,-0.05 0.05,-0.03 0.1,-0.08 0.12,-0.13 0.02,-0.05 0.04,-0.14 0.05,-0.2z"/>
   <path class="fil1" d="M1.08 0l1.56 0c0.59,0 1.08,0.48 1.08,1.08l0 1.56c0,0.59 -0.48,1.08 -1.08,1.08l-1.56 0c-0.59,0 -1.08,-0.48 -1.08,-1.08l0 -1.56c0,-0.59 0.48,-1.08 1.08,-1.08zm0 0.34l1.56 0c0.4,0 0.73,0.33 0.73,0.73l0 1.56c0,0.4 -0.33,0.73 -0.73,0.73l-1.56 0c-0.4,0 -0.73,-0.33 -0.73,-0.73l0 -1.56c0,-0.4 0.33,-0.73 0.73,-0.73z"/>
  </g>
 </g>
</svg>
